Ume-P-Mincho-stroke.ufo
<glyph name="quotedbl" format="1">
  <advance width="1051"/>
  <unicode hex="0022"/>
  <outline>
    <contour>
      <point x="218" y="3145" type="move" smooth="yes"/>
      <point x="233" y="3132"/>
      <point x="247" y="3117"/>
      <point x="262" y="3104" type="curve" smooth="yes"/>
      <point x="269" y="3097"/>
      <point x="279" y="3090"/>
      <point x="285" y="3082" type="curve" smooth="yes"/>
      <point x="294" y="3067"/>
      <point x="300" y="3048"/>
      <point x="309" y="3033" type="curve" smooth="yes"/>
      <point x="315" y="3021"/>
      <point x="328" y="3007"/>
      <point x="331" y="2995" type="curve" smooth="yes"/>
      <point x="334" y="2983"/>
      <point x="328" y="2967"/>
      <point x="326" y="2956" type="curve" smooth="yes"/>
      <point x="321" y="2924"/>
      <point x="316" y="2893"/>
      <point x="309" y="2863" type="curve" smooth="yes"/>
      <point x="305" y="2843"/>
      <point x="302" y="2821"/>
      <point x="296" y="2803" type="curve" smooth="yes"/>
      <point x="281" y="2762"/>
      <point x="257" y="2722"/>
      <point x="234" y="2686" type="curve" smooth="yes"/>
      <point x="174" y="2591"/>
      <point x="96" y="2501"/>
      <point x="0" y="2442" type="curve" smooth="yes"/>
    </contour>
    <contour>
      <point x="936" y="3130" type="move" smooth="yes"/>
      <point x="950" y="3119"/>
      <point x="963" y="3104"/>
      <point x="977" y="3092" type="curve" smooth="yes"/>
      <point x="985" y="3084"/>
      <point x="996" y="3076"/>
      <point x="1003" y="3067" type="curve" smooth="yes"/>
      <point x="1013" y="3053"/>
      <point x="1018" y="3034"/>
      <point x="1026" y="3020" type="curve" smooth="yes"/>
      <point x="1033" y="3007"/>
      <point x="1048" y="2991"/>
      <point x="1051" y="2978" type="curve" smooth="yes"/>
      <point x="1052" y="2968"/>
      <point x="1048" y="2954"/>
      <point x="1046" y="2945" type="curve" smooth="yes"/>
      <point x="1042" y="2921"/>
      <point x="1038" y="2897"/>
      <point x="1033" y="2874" type="curve" smooth="yes"/>
      <point x="1028" y="2845"/>
      <point x="1024" y="2814"/>
      <point x="1015" y="2788" type="curve" smooth="yes"/>
      <point x="1002" y="2753"/>
      <point x="983" y="2720"/>
      <point x="964" y="2689" type="curve" smooth="yes"/>
      <point x="925" y="2623"/>
      <point x="878" y="2562"/>
      <point x="823" y="2509" type="curve" smooth="yes"/>
      <point x="791" y="2478"/>
      <point x="756" y="2451"/>
      <point x="720" y="2427" type="curve" smooth="yes"/>
    </contour>
  </outline>
</glyph>
<glyph name="dollar" format="1">
  <advance width="1562"/>
  <unicode hex="0024"/>
  <outline>
    <contour>
      <point x="773" y="3304" type="move"/>
      <point x="773" y="-85" type="line"/>
      <point x="773" y="162" type="line"/>
      <point x="773" y="225" type="line" smooth="yes"/>
      <point x="773" y="230"/>
      <point x="770" y="243"/>
      <point x="774" y="248" type="curve" smooth="yes"/>
      <point x="777" y="253"/>
      <point x="797" y="249"/>
      <point x="803" y="250" type="curve" smooth="yes"/>
      <point x="833" y="252"/>
      <point x="865" y="251"/>
      <point x="896" y="253" type="curve" smooth="yes"/>
      <point x="994" y="257"/>
      <point x="1089" y="280"/>
      <point x="1176" y="327" type="curve" smooth="yes"/>
      <point x="1217" y="350"/>
      <point x="1258" y="379"/>
      <point x="1291" y="413" type="curve" smooth="yes"/>
      <point x="1386" y="507"/>
      <point x="1429" y="637"/>
      <point x="1445" y="768" type="curve" smooth="yes"/>
      <point x="1449" y="804"/>
      <point x="1455" y="842"/>
      <point x="1455" y="880" type="curve" smooth="yes"/>
      <point x="1453" y="1027"/>
      <point x="1411" y="1171"/>
      <point x="1319" y="1288" type="curve" smooth="yes"/>
      <point x="1280" y="1336"/>
      <point x="1228" y="1374"/>
      <point x="1177" y="1407" type="curve" smooth="yes"/>
      <point x="1111" y="1450"/>
      <point x="1039" y="1489"/>
      <point x="966" y="1518" type="curve" smooth="yes"/>
      <point x="953" y="1522"/>
      <point x="938" y="1523"/>
      <point x="925" y="1525" type="curve" smooth="yes"/>
      <point x="899" y="1530"/>
      <point x="873" y="1534"/>
      <point x="847" y="1538" type="curve" smooth="yes"/>
      <point x="836" y="1540"/>
      <point x="826" y="1541"/>
      <point x="816" y="1543" type="curve" smooth="yes"/>
      <point x="812" y="1543"/>
      <point x="805" y="1543"/>
      <point x="802" y="1546" type="curve" smooth="yes"/>
      <point x="794" y="1552"/>
      <point x="788" y="1569"/>
      <point x="782" y="1579" type="curve" smooth="yes"/>
      <point x="778" y="1586"/>
      <point x="771" y="1589"/>
      <point x="766" y="1596" type="curve" smooth="yes"/>
      <point x="758" y="1607"/>
      <point x="753" y="1620"/>
      <point x="745" y="1632" type="curve"/>
      <point x="752" y="1639"/>
      <point x="768" y="1650"/>
      <point x="772" y="1661" type="curve" smooth="yes"/>
      <point x="775" y="1669"/>
      <point x="773" y="1683"/>
      <point x="773" y="1693" type="curve" smooth="yes"/>
      <point x="773" y="1767" type="line"/>
      <point x="773" y="2067" type="line"/>
    </contour>
    <contour>
      <point x="745" y="1632" type="move" smooth="yes"/>
      <point x="707" y="1638"/>
      <point x="669" y="1643"/>
      <point x="632" y="1649" type="curve" smooth="yes"/>
      <point x="616" y="1652"/>
      <point x="600" y="1653"/>
      <point x="586" y="1657" type="curve" smooth="yes"/>
      <point x="547" y="1668"/>
      <point x="508" y="1687"/>
      <point x="472" y="1704" type="curve" smooth="yes"/>
      <point x="393" y="1739"/>
      <point x="309" y="1776"/>
      <point x="246" y="1836" type="curve" smooth="yes"/>
      <point x="171" y="1905"/>
      <point x="134" y="1999"/>
      <point x="121" y="2099" type="curve" smooth="yes"/>
      <point x="119" y="2119"/>
      <point x="115" y="2140"/>
      <point x="115" y="2161" type="curve" smooth="yes"/>
      <point x="115" y="2194"/>
      <point x="122" y="2230"/>
      <point x="127" y="2264" type="curve" smooth="yes"/>
      <point x="141" y="2352"/>
      <point x="170" y="2440"/>
      <point x="221" y="2514" type="curve" smooth="yes"/>
      <point x="311" y="2642"/>
      <point x="449" y="2739"/>
      <point x="601" y="2777" type="curve" smooth="yes"/>
      <point x="634" y="2786"/>
      <point x="670" y="2786"/>
      <point x="705" y="2790" type="curve" smooth="yes"/>
      <point x="714" y="2791"/>
      <point x="724" y="2791"/>
      <point x="735" y="2792" type="curve" smooth="yes"/>
      <point x="738" y="2792"/>
      <point x="743" y="2793"/>
      <point x="747" y="2792" type="curve" smooth="yes"/>
      <point x="756" y="2789"/>
      <point x="765" y="2775"/>
      <point x="772" y="2769" type="curve" smooth="yes"/>
    </contour>
    <contour>
      <point x="1559" y="2788" type="move"/>
      <point x="1514" y="2647" type="line"/>
      <point x="1490" y="2569" type="line"/>
      <point x="1479" y="2571"/>
      <point x="1468" y="2569"/>
      <point x="1458" y="2571" type="curve" smooth="yes"/>
      <point x="1419" y="2582"/>
      <point x="1382" y="2600"/>
      <point x="1344" y="2613" type="curve" smooth="yes"/>
      <point x="1322" y="2620"/>
      <point x="1296" y="2624"/>
      <point x="1276" y="2634" type="curve" smooth="yes"/>
      <point x="1264" y="2639"/>
      <point x="1253" y="2649"/>
      <point x="1243" y="2657" type="curve" smooth="yes"/>
      <point x="1227" y="2667"/>
      <point x="1211" y="2677"/>
      <point x="1196" y="2686" type="curve" smooth="yes"/>
      <point x="1155" y="2711"/>
      <point x="1110" y="2730"/>
      <point x="1066" y="2746" type="curve" smooth="yes"/>
      <point x="972" y="2781"/>
      <point x="872" y="2790"/>
      <point x="774" y="2790" type="curve" smooth="yes"/>
    </contour>
    <contour>
      <point x="1491" y="2568" type="move" smooth="yes"/>
      <point x="1507" y="2489"/>
      <point x="1527" y="2413"/>
      <point x="1538" y="2334" type="curve" smooth="yes"/>
      <point x="1551" y="2248"/>
      <point x="1555" y="2163"/>
      <point x="1562" y="2078" type="curve" smooth="yes"/>
    </contour>
    <contour>
      <point x="802" y="1545" type="move"/>
      <point x="773" y="251" type="line"/>
      <point x="773" y="1204" type="line"/>
      <point x="773" y="1424" type="line"/>
      <point x="773" y="1489" type="line"/>
      <point x="774" y="1516" type="line"/>
    </contour>
    <contour>
      <point x="0" y="999" type="move" smooth="yes"/>
      <point x="8" y="895"/>
      <point x="18" y="791"/>
      <point x="34" y="688" type="curve" smooth="yes"/>
      <point x="39" y="653"/>
      <point x="45" y="619"/>
      <point x="52" y="586" type="curve" smooth="yes"/>
      <point x="55" y="570"/>
      <point x="62" y="552"/>
      <point x="62" y="537" type="curve" smooth="yes"/>
      <point x="62" y="516"/>
      <point x="53" y="493"/>
      <point x="49" y="473" type="curve" smooth="yes"/>
      <point x="38" y="423"/>
      <point x="27" y="374"/>
      <point x="16" y="325" type="curve" smooth="yes"/>
      <point x="11" y="301"/>
      <point x="2" y="276"/>
      <point x="1" y="252" type="curve" smooth="yes"/>
    </contour>
    <contour>
      <point x="64" y="537" type="move" smooth="yes"/>
      <point x="76" y="537"/>
      <point x="90" y="540"/>
      <point x="103" y="537" type="curve" smooth="yes"/>
      <point x="113" y="535"/>
      <point x="124" y="529"/>
      <point x="134" y="525" type="curve" smooth="yes"/>
      <point x="155" y="516"/>
      <point x="177" y="508"/>
      <point x="199" y="500" type="curve" smooth="yes"/>
      <point x="211" y="495"/>
      <point x="224" y="490"/>
      <point x="237" y="486" type="curve" smooth="yes"/>
      <point x="244" y="483"/>
      <point x="253" y="482"/>
      <point x="260" y="477" type="curve" smooth="yes"/>
      <point x="268" y="471"/>
      <point x="274" y="463"/>
      <point x="281" y="456" type="curve" smooth="yes"/>
      <point x="292" y="443"/>
      <point x="305" y="432"/>
      <point x="318" y="421" type="curve" smooth="yes"/>
      <point x="346" y="394"/>
      <point x="378" y="371"/>
      <point x="411" y="351" type="curve" smooth="yes"/>
      <point x="473" y="311"/>
      <point x="546" y="282"/>
      <point x="620" y="269" type="curve" smooth="yes"/>
      <point x="669" y="260"/>
      <point x="722" y="259"/>
      <point x="772" y="259" type="curve" smooth="yes"/>
    </contour>
  </outline>
</glyph>
<glyph name="ampersand" format="1">
  <advance width="1994"/>
  <unicode hex="0026"/>
  <outline>
    <contour>
      <point x="1476" y="1506" type="move"/>
      <point x="1628" y="1506" type="line"/>
      <point x="1664" y="1506" type="line" smooth="yes"/>
      <point x="1671" y="1506"/>
      <point x="1677" y="1507"/>
      <point x="1683" y="1501" type="curve" smooth="yes"/>
      <point x="1686" y="1498"/>
      <point x="1692" y="1493"/>
      <point x="1694" y="1489" type="curve" smooth="yes"/>
      <point x="1699" y="1476"/>
      <point x="1694" y="1456"/>
      <point x="1694" y="1443" type="curve" smooth="yes"/>
      <point x="1694" y="1391"/>
      <point x="1690" y="1340"/>
      <point x="1685" y="1290" type="curve" smooth="yes"/>
      <point x="1662" y="1066"/>
      <point x="1579" y="847"/>
      <point x="1447" y="666" type="curve" smooth="yes"/>
      <point x="1426" y="637"/>
      <point x="1405" y="609"/>
      <point x="1382" y="583" type="curve" smooth="yes"/>
      <point x="1372" y="570"/>
      <point x="1360" y="560"/>
      <point x="1350" y="548" type="curve" smooth="yes"/>
      <point x="1345" y="541"/>
      <point x="1345" y="531"/>
      <point x="1340" y="525" type="curve" smooth="yes"/>
      <point x="1327" y="507"/>
      <point x="1307" y="491"/>
      <point x="1292" y="476" type="curve" smooth="yes"/>
      <point x="1286" y="470"/>
      <point x="1278" y="458"/>
      <point x="1270" y="455" type="curve" smooth="yes"/>
      <point x="1266" y="453"/>
      <point x="1258" y="455"/>
      <point x="1253" y="455" type="curve" smooth="yes"/>
      <point x="1239" y="455"/>
      <point x="1217" y="450"/>
      <point x="1204" y="455" type="curve" smooth="yes"/>
      <point x="1198" y="457"/>
      <point x="1193" y="464"/>
      <point x="1189" y="469" type="curve" smooth="yes"/>
      <point x="1181" y="476"/>
      <point x="1171" y="483"/>
      <point x="1166" y="493" type="curve" smooth="yes"/>
      <point x="1160" y="506"/>
      <point x="1159" y="523"/>
      <point x="1150" y="535" type="curve" smooth="yes"/>
      <point x="1141" y="548"/>
      <point x="1126" y="558"/>
      <point x="1115" y="569" type="curve" smooth="yes"/>
      <point x="1093" y="589"/>
      <point x="1072" y="610"/>
      <point x="1051" y="631" type="curve" smooth="yes"/>
      <point x="867" y="814"/>
      <point x="702" y="1021"/>
      <point x="576" y="1250" type="curve" smooth="yes"/>
      <point x="558" y="1283"/>
      <point x="540" y="1318"/>
      <point x="521" y="1352" type="curve" smooth="yes"/>
      <point x="509" y="1373"/>
      <point x="496" y="1397"/>
      <point x="487" y="1421" type="curve" smooth="yes"/>
      <point x="482" y="1434"/>
      <point x="481" y="1449"/>
      <point x="478" y="1464" type="curve" smooth="yes"/>
      <point x="475" y="1480"/>
      <point x="473" y="1488"/>
      <point x="461" y="1500" type="curve" smooth="yes"/>
      <point x="458" y="1503"/>
      <point x="450" y="1508"/>
      <point x="453" y="1513" type="curve" smooth="yes"/>
      <point x="462" y="1528"/>
      <point x="482" y="1542"/>
      <point x="495" y="1555" type="curve" smooth="yes"/>
      <point x="500" y="1560"/>
      <point x="506" y="1569"/>
      <point x="514" y="1572" type="curve" smooth="yes"/>
      <point x="532" y="1580"/>
      <point x="554" y="1577"/>
      <point x="573" y="1585" type="curve" smooth="yes"/>
      <point x="633" y="1611"/>
      <point x="693" y="1640"/>
      <point x="754" y="1666" type="curve" smooth="yes"/>
      <point x="918" y="1736"/>
      <point x="1084" y="1841"/>
      <point x="1183" y="1995" type="curve" smooth="yes"/>
      <point x="1253" y="2103"/>
      <point x="1302" y="2222"/>
      <point x="1316" y="2351" type="curve" smooth="yes"/>
      <point x="1318" y="2375"/>
      <point x="1323" y="2399"/>
      <point x="1323" y="2424" type="curve" smooth="yes"/>
      <point x="1323" y="2452"/>
      <point x="1317" y="2482"/>
      <point x="1313" y="2511" type="curve" smooth="yes"/>
      <point x="1304" y="2574"/>
      <point x="1286" y="2635"/>
      <point x="1254" y="2692" type="curve" smooth="yes"/>
      <point x="1235" y="2725"/>
      <point x="1212" y="2757"/>
      <point x="1184" y="2784" type="curve" smooth="yes"/>
      <point x="1149" y="2820"/>
      <point x="1109" y="2850"/>
      <point x="1065" y="2874" type="curve" smooth="yes"/>
      <point x="1012" y="2902"/>
      <point x="953" y="2920"/>
      <point x="894" y="2924" type="curve" smooth="yes"/>
      <point x="832" y="2929"/>
      <point x="769" y="2927"/>
      <point x="709" y="2912" type="curve" smooth="yes"/>
      <point x="663" y="2901"/>
      <point x="620" y="2881"/>
      <point x="581" y="2856" type="curve" smooth="yes"/>
      <point x="522" y="2821"/>
      <point x="466" y="2774"/>
      <point x="425" y="2720" type="curve" smooth="yes"/>
      <point x="332" y="2598"/>
      <point x="301" y="2439"/>
      <point x="291" y="2291" type="curve" smooth="yes"/>
      <point x="287" y="2241"/>
      <point x="283" y="2192"/>
      <point x="286" y="2142" type="curve" smooth="yes"/>
      <point x="288" y="2090"/>
      <point x="290" y="2037"/>
      <point x="299" y="1987" type="curve" smooth="yes"/>
      <point x="311" y="1917"/>
      <point x="324" y="1848"/>
      <point x="344" y="1781" type="curve" smooth="yes"/>
      <point x="360" y="1727"/>
      <point x="381" y="1676"/>
      <point x="399" y="1624" type="curve" smooth="yes"/>
      <point x="406" y="1600"/>
      <point x="408" y="1572"/>
      <point x="412" y="1548" type="curve" smooth="yes"/>
      <point x="414" y="1534"/>
      <point x="419" y="1517"/>
      <point x="435" y="1511" type="curve" smooth="yes"/>
      <point x="439" y="1509"/>
      <point x="446" y="1511"/>
      <point x="451" y="1511" type="curve" smooth="yes"/>
    </contour>
    <contour>
      <point x="1202" y="455" type="move" smooth="yes"/>
      <point x="1182" y="435"/>
      <point x="1162" y="416"/>
      <point x="1144" y="397" type="curve" smooth="yes"/>
      <point x="1138" y="390"/>
      <point x="1137" y="379"/>
      <point x="1130" y="375" type="curve" smooth="yes"/>
      <point x="1112" y="362"/>
      <point x="1090" y="354"/>
      <point x="1071" y="346" type="curve" smooth="yes"/>
      <point x="1021" y="323"/>
      <point x="969" y="308"/>
      <point x="916" y="296" type="curve" smooth="yes"/>
      <point x="814" y="273"/>
      <point x="708" y="271"/>
      <point x="605" y="278" type="curve" smooth="yes"/>
      <point x="458" y="288"/>
      <point x="302" y="318"/>
      <point x="187" y="417" type="curve" smooth="yes"/>
      <point x="116" y="477"/>
      <point x="63" y="557"/>
      <point x="35" y="646" type="curve" smooth="yes"/>
      <point x="22" y="686"/>
      <point x="14" y="728"/>
      <point x="9" y="771" type="curve" smooth="yes"/>
      <point x="5" y="794"/>
      <point x="1" y="818"/>
      <point x="0" y="842" type="curve" smooth="yes"/>
      <point x="-1" y="876"/>
      <point x="6" y="913"/>
      <point x="10" y="948" type="curve" smooth="yes"/>
      <point x="32" y="1108"/>
      <point x="103" y="1264"/>
      <point x="227" y="1372" type="curve" smooth="yes"/>
      <point x="246" y="1389"/>
      <point x="266" y="1404"/>
      <point x="286" y="1419" type="curve" smooth="yes"/>
      <point x="296" y="1426"/>
      <point x="306" y="1436"/>
      <point x="318" y="1442" type="curve" smooth="yes"/>
      <point x="336" y="1450"/>
      <point x="362" y="1446"/>
      <point x="379" y="1457" type="curve" smooth="yes"/>
      <point x="399" y="1471"/>
      <point x="416" y="1493"/>
      <point x="433" y="1511" type="curve" smooth="yes"/>
    </contour>
    <contour>
      <point x="1695" y="1490" type="move"/>
      <point x="1712" y="1505" type="line"/>
      <point x="1730" y="1506" type="line"/>
      <point x="1769" y="1506" type="line"/>
      <point x="1929" y="1506" type="line"/>
    </contour>
    <contour>
      <point x="1994" y="578" type="move" smooth="yes"/>
      <point x="1990" y="560"/>
      <point x="1983" y="543"/>
      <point x="1976" y="527" type="curve" smooth="yes"/>
      <point x="1964" y="496"/>
      <point x="1951" y="465"/>
      <point x="1935" y="437" type="curve" smooth="yes"/>
      <point x="1913" y="397"/>
      <point x="1887" y="359"/>
      <point x="1854" y="329" type="curve" smooth="yes"/>
      <point x="1818" y="297"/>
      <point x="1778" y="279"/>
      <point x="1732" y="268" type="curve" smooth="yes"/>
      <point x="1705" y="261"/>
      <point x="1674" y="251"/>
      <point x="1647" y="251" type="curve" smooth="yes"/>
      <point x="1630" y="251"/>
      <point x="1612" y="255"/>
      <point x="1596" y="258" type="curve" smooth="yes"/>
      <point x="1571" y="262"/>
      <point x="1546" y="266"/>
      <point x="1523" y="274" type="curve" smooth="yes"/>
      <point x="1482" y="287"/>
      <point x="1445" y="310"/>
      <point x="1409" y="332" type="curve" smooth="yes"/>
      <point x="1380" y="350"/>
      <point x="1350" y="368"/>
      <point x="1325" y="390" type="curve" smooth="yes"/>
      <point x="1318" y="396"/>
      <point x="1318" y="406"/>
      <point x="1313" y="413" type="curve" smooth="yes"/>
      <point x="1302" y="428"/>
      <point x="1285" y="441"/>
      <point x="1272" y="455" type="curve" smooth="yes"/>
    </contour>
  </outline>
</glyph>
<glyph name="parenleft" format="1">
  <advance width="840"/>
  <unicode hex="0028"/>
  <outline>
    <contour>
      <point x="839" y="3222" type="move" smooth="yes"/>
      <point x="756" y="3162"/>
      <point x="677" y="3093"/>
      <point x="602" y="3023" type="curve" smooth="yes"/>
      <point x="465" y="2892"/>
      <point x="341" y="2744"/>
      <point x="249" y="2578" type="curve" smooth="yes"/>
      <point x="171" y="2436"/>
      <point x="114" y="2280"/>
      <point x="74" y="2124" type="curve" smooth="yes"/>
      <point x="35" y="1973"/>
      <point x="15" y="1821"/>
      <point x="4" y="1666" type="curve" smooth="yes"/>
      <point x="2" y="1630"/>
      <point x="0" y="1595"/>
      <point x="0" y="1560" type="curve" smooth="yes"/>
      <point x="0" y="1526"/>
      <point x="2" y="1493"/>
      <point x="4" y="1460" type="curve" smooth="yes"/>
      <point x="9" y="1389"/>
      <point x="15" y="1319"/>
      <point x="25" y="1250" type="curve" smooth="yes"/>
      <point x="45" y="1111"/>
      <point x="80" y="975"/>
      <point x="125" y="844" type="curve" smooth="yes"/>
      <point x="160" y="742"/>
      <point x="201" y="643"/>
      <point x="252" y="549" type="curve" smooth="yes"/>
      <point x="392" y="290"/>
      <point x="605" y="77"/>
      <point x="838" y="-98" type="curve" smooth="yes"/>
    </contour>
  </outline>
</glyph>
<glyph name="parenright" format="1">
  <advance width="840"/>
  <unicode hex="0029"/>
  <outline>
    <contour>
      <point x="2" y="3221" type="move" smooth="yes"/>
      <point x="221" y="3051"/>
      <point x="424" y="2851"/>
      <point x="563" y="2609" type="curve" smooth="yes"/>
      <point x="745" y="2291"/>
      <point x="836" y="1916"/>
      <point x="840" y="1552" type="curve" smooth="yes"/>
      <point x="840" y="1495"/>
      <point x="834" y="1438"/>
      <point x="831" y="1382" type="curve" smooth="yes"/>
      <point x="824" y="1280"/>
      <point x="809" y="1177"/>
      <point x="786" y="1078" type="curve" smooth="yes"/>
      <point x="744" y="900"/>
      <point x="688" y="725"/>
      <point x="601" y="565" type="curve" smooth="yes"/>
      <point x="501" y="379"/>
      <point x="364" y="213"/>
      <point x="208" y="72" type="curve" smooth="yes"/>
      <point x="165" y="33"/>
      <point x="121" y="-3"/>
      <point x="77" y="-39" type="curve" smooth="yes"/>
      <point x="51" y="-59"/>
      <point x="24" y="-78"/>
      <point x="0" y="-99" type="curve" smooth="yes"/>
    </contour>
  </outline>
</glyph>
<glyph name="asterisk" format="1">
  <advance width="1586"/>
  <unicode hex="002A"/>
  <outline>
    <contour>
      <point x="795" y="2562" type="move"/>
      <point x="795" y="2526" type="line"/>
      <point x="792" y="2512" type="line"/>
      <point x="791" y="2432" type="line"/>
      <point x="795" y="2166" type="line"/>
      <point x="788" y="1829" type="line"/>
      <point x="787" y="1499" type="line"/>
      <point x="795" y="1029" type="line"/>
      <point x="791" y="754" type="line"/>
      <point x="792" y="687" type="line"/>
      <point x="795" y="672" type="line"/>
      <point x="793" y="601" type="line"/>
    </contour>
    <contour>
      <point x="1580" y="1002" type="move" smooth="yes"/>
      <point x="1551" y="1026"/>
      <point x="1526" y="1054"/>
      <point x="1498" y="1078" type="curve" smooth="yes"/>
      <point x="1467" y="1105"/>
      <point x="1433" y="1127"/>
      <point x="1402" y="1152" type="curve" smooth="yes"/>
      <point x="1361" y="1184"/>
      <point x="1323" y="1219"/>
      <point x="1282" y="1251" type="curve" smooth="yes"/>
      <point x="1258" y="1270"/>
      <point x="1231" y="1286"/>
      <point x="1207" y="1304" type="curve" smooth="yes"/>
      <point x="1147" y="1347"/>
      <point x="1089" y="1392"/>
      <point x="1031" y="1437" type="curve" smooth="yes"/>
      <point x="991" y="1469"/>
      <point x="952" y="1503"/>
      <point x="911" y="1531" type="curve" smooth="yes"/>
      <point x="898" y="1540"/>
      <point x="881" y="1539"/>
      <point x="868" y="1547" type="curve" smooth="yes"/>
      <point x="847" y="1559"/>
      <point x="830" y="1583"/>
      <point x="814" y="1600" type="curve"/>
      <point x="830" y="1616"/>
      <point x="847" y="1639"/>
      <point x="867" y="1652" type="curve" smooth="yes"/>
      <point x="882" y="1662"/>
      <point x="901" y="1663"/>
      <point x="917" y="1674" type="curve" smooth="yes"/>
      <point x="952" y="1699"/>
      <point x="986" y="1727"/>
      <point x="1021" y="1753" type="curve" smooth="yes"/>
      <point x="1211" y="1899"/>
      <point x="1409" y="2038"/>
      <point x="1586" y="2201" type="curve" smooth="yes"/>
    </contour>
    <contour>
      <point x="0" y="2198" type="move" smooth="yes"/>
      <point x="40" y="2162"/>
      <point x="83" y="2131"/>
      <point x="125" y="2097" type="curve" smooth="yes"/>
      <point x="184" y="2048"/>
      <point x="243" y="1998"/>
      <point x="305" y="1950" type="curve" smooth="yes"/>
      <point x="397" y="1879"/>
      <point x="490" y="1809"/>
      <point x="582" y="1737" type="curve" smooth="yes"/>
      <point x="611" y="1713"/>
      <point x="642" y="1686"/>
      <point x="676" y="1667" type="curve" smooth="yes"/>
      <point x="690" y="1659"/>
      <point x="709" y="1661"/>
      <point x="723" y="1652" type="curve" smooth="yes"/>
      <point x="742" y="1638"/>
      <point x="759" y="1616"/>
      <point x="776" y="1600" type="curve"/>
      <point x="759" y="1583"/>
      <point x="742" y="1559"/>
      <point x="722" y="1547" type="curve" smooth="yes"/>
      <point x="705" y="1537"/>
      <point x="684" y="1539"/>
      <point x="669" y="1529" type="curve" smooth="yes"/>
      <point x="629" y="1504"/>
      <point x="593" y="1470"/>
      <point x="557" y="1441" type="curve" smooth="yes"/>
      <point x="502" y="1398"/>
      <point x="447" y="1354"/>
      <point x="392" y="1312" type="curve" smooth="yes"/>
      <point x="364" y="1292"/>
      <point x="335" y="1273"/>
      <point x="309" y="1252" type="curve" smooth="yes"/>
      <point x="272" y="1223"/>
      <point x="237" y="1191"/>
      <point x="201" y="1162" type="curve" smooth="yes"/>
      <point x="164" y="1133"/>
      <point x="126" y="1107"/>
      <point x="91" y="1078" type="curve" smooth="yes"/>
      <point x="61" y="1053"/>
      <point x="33" y="1025"/>
      <point x="3" y="1002" type="curve" smooth="yes"/>
    </contour>
    <contour>
      <point x="776" y="1600" type="move"/>
      <point x="814" y="1600" type="line"/>
    </contour>
  </outline>
</glyph>
<glyph name="comma" format="1">
  <advance width="343"/>
  <unicode hex="002C"/>
  <outline>
    <contour>
      <point x="219" y="511" type="move" smooth="yes"/>
      <point x="243" y="486"/>
      <point x="275" y="469"/>
      <point x="298" y="443" type="curve" smooth="yes"/>
      <point x="308" y="432"/>
      <point x="315" y="415"/>
      <point x="323" y="403" type="curve" smooth="yes"/>
      <point x="328" y="394"/>
      <point x="338" y="385"/>
      <point x="341" y="376" type="curve" smooth="yes"/>
      <point x="345" y="363"/>
      <point x="338" y="342"/>
      <point x="337" y="330" type="curve" smooth="yes"/>
      <point x="332" y="292"/>
      <point x="327" y="255"/>
      <point x="321" y="219" type="curve" smooth="yes"/>
      <point x="298" y="83"/>
      <point x="224" y="-43"/>
      <point x="145" y="-153" type="curve" smooth="yes"/>
      <point x="103" y="-211"/>
      <point x="56" y="-271"/>
      <point x="0" y="-317" type="curve" smooth="yes"/>
    </contour>
  </outline>
</glyph>
<glyph name="three" format="1">
  <advance width="1344"/>
  <unicode hex="0033"/>
  <outline>
    <contour>
      <point x="0" y="2180" type="move" smooth="yes"/>
      <point x="5" y="2196"/>
      <point x="6" y="2214"/>
      <point x="9" y="2231" type="curve" smooth="yes"/>
      <point x="14" y="2260"/>
      <point x="20" y="2289"/>
      <point x="26" y="2319" type="curve" smooth="yes"/>
      <point x="45" y="2416"/>
      <point x="68" y="2515"/>
      <point x="104" y="2609" type="curve" smooth="yes"/>
      <point x="117" y="2643"/>
      <point x="131" y="2677"/>
      <point x="148" y="2710" type="curve" smooth="yes"/>
      <point x="154" y="2719"/>
      <point x="160" y="2737"/>
      <point x="169" y="2744" type="curve" smooth="yes"/>
      <point x="174" y="2747"/>
      <point x="183" y="2747"/>
      <point x="190" y="2748" type="curve" smooth="yes"/>
      <point x="206" y="2751"/>
      <point x="223" y="2753"/>
      <point x="240" y="2755" type="curve" smooth="yes"/>
      <point x="299" y="2759"/>
      <point x="359" y="2757"/>
      <point x="419" y="2757" type="curve" smooth="yes"/>
      <point x="1079" y="2757" type="line"/>
      <point x="1282" y="2757" type="line" smooth="yes"/>
      <point x="1290" y="2757"/>
      <point x="1306" y="2759"/>
      <point x="1314" y="2755" type="curve" smooth="yes"/>
      <point x="1320" y="2752"/>
      <point x="1326" y="2744"/>
      <point x="1332" y="2739" type="curve" smooth="yes"/>
      <point x="1335" y="2735"/>
      <point x="1342" y="2730"/>
      <point x="1343" y="2725" type="curve" smooth="yes"/>
      <point x="1344" y="2719"/>
      <point x="1340" y="2712"/>
      <point x="1339" y="2708" type="curve" smooth="yes"/>
      <point x="1328" y="2668" type="line" smooth="yes"/>
      <point x="1322" y="2648"/>
      <point x="1319" y="2623"/>
      <point x="1309" y="2605" type="curve" smooth="yes"/>
      <point x="1301" y="2589"/>
      <point x="1286" y="2574"/>
      <point x="1275" y="2561" type="curve" smooth="yes"/>
      <point x="1209" y="2477" type="line" smooth="yes"/>
      <point x="1059" y="2287"/>
      <point x="909" y="2098"/>
      <point x="759" y="1910" type="curve" smooth="yes"/>
      <point x="730" y="1873"/>
      <point x="701" y="1837"/>
      <point x="672" y="1801" type="curve" smooth="yes"/>
      <point x="660" y="1785"/>
      <point x="648" y="1770"/>
      <point x="636" y="1755" type="curve" smooth="yes"/>
      <point x="631" y="1748"/>
      <point x="624" y="1741"/>
      <point x="620" y="1734" type="curve" smooth="yes"/>
      <point x="615" y="1724"/>
      <point x="613" y="1711"/>
      <point x="610" y="1701" type="curve" smooth="yes"/>
      <point x="605" y="1682"/>
      <point x="591" y="1653"/>
      <point x="596" y="1634" type="curve" smooth="yes"/>
      <point x="598" y="1624"/>
      <point x="612" y="1627"/>
      <point x="620" y="1627" type="curve" smooth="yes"/>
      <point x="645" y="1627"/>
      <point x="670" y="1624"/>
      <point x="696" y="1622" type="curve" smooth="yes"/>
      <point x="718" y="1621"/>
      <point x="741" y="1614"/>
      <point x="763" y="1609" type="curve" smooth="yes"/>
      <point x="835" y="1591"/>
      <point x="902" y="1561"/>
      <point x="964" y="1519" type="curve" smooth="yes"/>
      <point x="1021" y="1480"/>
      <point x="1076" y="1431"/>
      <point x="1116" y="1375" type="curve" smooth="yes"/>
      <point x="1185" y="1278"/>
      <point x="1219" y="1166"/>
      <point x="1235" y="1050" type="curve" smooth="yes"/>
      <point x="1240" y="1011"/>
      <point x="1246" y="971"/>
      <point x="1245" y="932" type="curve" smooth="yes"/>
      <point x="1245" y="904"/>
      <point x="1240" y="875"/>
      <point x="1238" y="848" type="curve" smooth="yes"/>
      <point x="1230" y="769"/>
      <point x="1214" y="691"/>
      <point x="1183" y="619" type="curve" smooth="yes"/>
      <point x="1137" y="511"/>
      <point x="1064" y="416"/>
      <point x="966" y="352" type="curve" smooth="yes"/>
      <point x="847" y="276"/>
      <point x="702" y="260"/>
      <point x="566" y="269" type="curve" smooth="yes"/>
      <point x="499" y="274"/>
      <point x="433" y="282"/>
      <point x="371" y="307" type="curve" smooth="yes"/>
      <point x="301" y="334"/>
      <point x="237" y="372"/>
      <point x="178" y="418" type="curve" smooth="yes"/>
      <point x="150" y="439"/>
      <point x="120" y="464"/>
      <point x="102" y="495" type="curve" smooth="yes"/>
      <point x="96" y="506"/>
      <point x="94" y="520"/>
      <point x="90" y="533" type="curve" smooth="yes"/>
      <point x="84" y="554"/>
      <point x="78" y="576"/>
      <point x="73" y="599" type="curve" smooth="yes"/>
      <point x="68" y="621"/>
      <point x="63" y="642"/>
      <point x="58" y="665" type="curve" smooth="yes"/>
      <point x="56" y="677"/>
      <point x="52" y="690"/>
      <point x="56" y="703" type="curve" smooth="yes"/>
      <point x="61" y="718"/>
      <point x="76" y="732"/>
      <point x="86" y="746" type="curve" smooth="yes"/>
    </contour>
  </outline>
</glyph>
<glyph name="four" format="1">
  <advance width="1550"/>
  <unicode hex="0034"/>
  <outline>
    <contour>
      <point x="1550" y="1039" type="move"/>
      <point x="376" y="1039" type="line"/>
      <point x="96" y="1039" type="line"/>
      <point x="44" y="1039" type="line" smooth="yes"/>
      <point x="37" y="1039"/>
      <point x="26" y="1037"/>
      <point x="20" y="1039" type="curve" smooth="yes"/>
      <point x="14" y="1041"/>
      <point x="4" y="1052"/>
      <point x="1" y="1058" type="curve" smooth="yes"/>
      <point x="-2" y="1065"/>
      <point x="5" y="1084"/>
      <point x="7" y="1092" type="curve" smooth="yes"/>
      <point x="10" y="1105"/>
      <point x="12" y="1121"/>
      <point x="18" y="1134" type="curve" smooth="yes"/>
      <point x="26" y="1152"/>
      <point x="41" y="1170"/>
      <point x="52" y="1187" type="curve" smooth="yes"/>
      <point x="127" y="1299"/>
      <point x="200" y="1412"/>
      <point x="275" y="1525" type="curve" smooth="yes"/>
      <point x="402" y="1714"/>
      <point x="527" y="1904"/>
      <point x="651" y="2095" type="curve" smooth="yes"/>
      <point x="693" y="2158"/>
      <point x="735" y="2222"/>
      <point x="777" y="2286" type="curve" smooth="yes"/>
      <point x="796" y="2314"/>
      <point x="813" y="2344"/>
      <point x="834" y="2370" type="curve" smooth="yes"/>
      <point x="841" y="2380"/>
      <point x="859" y="2385"/>
      <point x="870" y="2390" type="curve" smooth="yes"/>
      <point x="897" y="2401"/>
      <point x="924" y="2413"/>
      <point x="952" y="2425" type="curve" smooth="yes"/>
      <point x="961" y="2429"/>
      <point x="983" y="2434"/>
      <point x="989" y="2443" type="curve" smooth="yes"/>
      <point x="994" y="2451"/>
      <point x="995" y="2467"/>
      <point x="998" y="2478" type="curve" smooth="yes"/>
      <point x="1005" y="2505"/>
      <point x="1011" y="2532"/>
      <point x="1018" y="2560" type="curve" smooth="yes"/>
      <point x="1040" y="2653"/>
      <point x="1061" y="2748"/>
      <point x="1087" y="2841" type="curve" smooth="yes"/>
    </contour>
    <contour>
      <point x="989" y="2441" type="move" smooth="yes"/>
      <point x="993" y="2436"/>
      <point x="999" y="2432"/>
      <point x="1001" y="2427" type="curve" smooth="yes"/>
      <point x="1005" y="2416"/>
      <point x="1002" y="2398"/>
      <point x="1002" y="2387" type="curve" smooth="yes"/>
      <point x="1002" y="2287" type="line"/>
      <point x="1002" y="1857" type="line"/>
      <point x="1002" y="722" type="line"/>
      <point x="1002" y="418" type="line"/>
      <point x="1002" y="337" type="line" smooth="yes"/>
      <point x="1002" y="328"/>
      <point x="1005" y="312"/>
      <point x="1000" y="305" type="curve" smooth="yes"/>
      <point x="990" y="288"/>
      <point x="970" y="273"/>
      <point x="956" y="260" type="curve" smooth="yes"/>
      <point x="950" y="254"/>
      <point x="944" y="245"/>
      <point x="937" y="242" type="curve" smooth="yes"/>
      <point x="931" y="240"/>
      <point x="921" y="242"/>
      <point x="915" y="242" type="curve" smooth="yes"/>
      <point x="867" y="242" type="line"/>
      <point x="703" y="242" type="line"/>
    </contour>
    <contour>
      <point x="1002" y="305" type="move"/>
      <point x="1046" y="261" type="line"/>
      <point x="1066" y="242" type="line"/>
      <point x="1088" y="242" type="line"/>
      <point x="1136" y="242" type="line"/>
      <point x="1300" y="242" type="line"/>
    </contour>
  </outline>
</glyph>
<glyph name="colon" format="1">
  <advance width="420"/>
  <unicode hex="003A"/>
  <outline>
    <contour>
      <point x="210" y="1605" type="move"/>
      <point x="210" y="1604" type="line"/>
    </contour>
    <contour>
      <point x="212" y="880" type="move"/>
    </contour>
  </outline>
</glyph>
<glyph name="question" format="1">
  <advance width="1357"/>
  <unicode hex="003F"/>
  <outline>
    <contour>
      <point x="89" y="2364" type="move" smooth="yes"/>
      <point x="69" y="2384"/>
      <point x="48" y="2403"/>
      <point x="28" y="2424" type="curve" smooth="yes"/>
      <point x="20" y="2432"/>
      <point x="5" y="2444"/>
      <point x="0" y="2456" type="curve" smooth="yes"/>
      <point x="-1" y="2462"/>
      <point x="1" y="2472"/>
      <point x="1" y="2479" type="curve" smooth="yes"/>
      <point x="1" y="2502"/>
      <point x="5" y="2525"/>
      <point x="7" y="2549" type="curve" smooth="yes"/>
      <point x="9" y="2572"/>
      <point x="11" y="2597"/>
      <point x="16" y="2621" type="curve" smooth="yes"/>
      <point x="32" y="2695"/>
      <point x="63" y="2765"/>
      <point x="101" y="2832" type="curve" smooth="yes"/>
      <point x="150" y="2918"/>
      <point x="221" y="2999"/>
      <point x="303" y="3055" type="curve" smooth="yes"/>
      <point x="406" y="3124"/>
      <point x="522" y="3151"/>
      <point x="644" y="3160" type="curve" smooth="yes"/>
      <point x="720" y="3165"/>
      <point x="798" y="3160"/>
      <point x="872" y="3144" type="curve" smooth="yes"/>
      <point x="936" y="3130"/>
      <point x="998" y="3107"/>
      <point x="1053" y="3074" type="curve" smooth="yes"/>
      <point x="1174" y="3001"/>
      <point x="1265" y="2882"/>
      <point x="1314" y="2751" type="curve" smooth="yes"/>
      <point x="1332" y="2699"/>
      <point x="1341" y="2646"/>
      <point x="1348" y="2593" type="curve" smooth="yes"/>
      <point x="1352" y="2568"/>
      <point x="1356" y="2544"/>
      <point x="1356" y="2520" type="curve" smooth="yes"/>
      <point x="1357" y="2497"/>
      <point x="1352" y="2474"/>
      <point x="1349" y="2452" type="curve" smooth="yes"/>
      <point x="1344" y="2410"/>
      <point x="1338" y="2368"/>
      <point x="1328" y="2328" type="curve" smooth="yes"/>
      <point x="1294" y="2193"/>
      <point x="1216" y="2074"/>
      <point x="1130" y="1968" type="curve" smooth="yes"/>
      <point x="1073" y="1898"/>
      <point x="1014" y="1832"/>
      <point x="963" y="1758" type="curve" smooth="yes"/>
      <point x="854" y="1600"/>
      <point x="762" y="1427"/>
      <point x="724" y="1239" type="curve" smooth="yes"/>
      <point x="705" y="1147"/>
      <point x="706" y="1053"/>
      <point x="706" y="961" type="curve" smooth="yes"/>
    </contour>
    <contour>
      <point x="707" y="215" type="move"/>
      <point x="707" y="214" type="line"/>
    </contour>
  </outline>
</glyph>
<glyph name="A" format="1">
  <advance width="2565"/>
  <unicode hex="0041"/>
  <outline>
    <contour>
      <point x="1205" y="2786" type="move" smooth="yes"/>
      <point x="1205" y="2760"/>
      <point x="1206" y="2736"/>
      <point x="1206" y="2711" type="curve" smooth="yes"/>
      <point x="1207" y="2701"/>
      <point x="1204" y="2688"/>
      <point x="1207" y="2679" type="curve" smooth="yes"/>
      <point x="1209" y="2675"/>
      <point x="1216" y="2673"/>
      <point x="1220" y="2671" type="curve" smooth="yes"/>
      <point x="1230" y="2665"/>
      <point x="1249" y="2659"/>
      <point x="1255" y="2648" type="curve" smooth="yes"/>
      <point x="1266" y="2632"/>
      <point x="1271" y="2610"/>
      <point x="1279" y="2592" type="curve" smooth="yes"/>
      <point x="1295" y="2551"/>
      <point x="1310" y="2511"/>
      <point x="1327" y="2471" type="curve" smooth="yes"/>
      <point x="1383" y="2330"/>
      <point x="1439" y="2189"/>
      <point x="1495" y="2049" type="curve" smooth="yes"/>
      <point x="1534" y="1950"/>
      <point x="1571" y="1851"/>
      <point x="1612" y="1754" type="curve" smooth="yes"/>
      <point x="1646" y="1672"/>
      <point x="1678" y="1589"/>
      <point x="1711" y="1507" type="curve" smooth="yes"/>
      <point x="1723" y="1476"/>
      <point x="1729" y="1447"/>
      <point x="1734" y="1416" type="curve" smooth="yes"/>
      <point x="1736" y="1405"/>
      <point x="1741" y="1390"/>
      <point x="1739" y="1380" type="curve" smooth="yes"/>
      <point x="1738" y="1374"/>
      <point x="1731" y="1369"/>
      <point x="1728" y="1366" type="curve" smooth="yes"/>
      <point x="1702" y="1340" type="line" smooth="yes"/>
      <point x="1698" y="1336"/>
      <point x="1694" y="1330"/>
      <point x="1689" y="1328" type="curve" smooth="yes"/>
      <point x="1683" y="1326"/>
      <point x="1675" y="1328"/>
      <point x="1670" y="1328" type="curve" smooth="yes"/>
      <point x="1629" y="1328" type="line"/>
      <point x="1489" y="1328" type="line"/>
      <point x="915" y="1328" type="line"/>
      <point x="752" y="1328" type="line" smooth="yes"/>
      <point x="743" y="1328"/>
      <point x="730" y="1325"/>
      <point x="722" y="1328" type="curve" smooth="yes"/>
      <point x="715" y="1330"/>
      <point x="711" y="1342"/>
      <point x="704" y="1339" type="curve" smooth="yes"/>
      <point x="698" y="1336"/>
      <point x="689" y="1331"/>
      <point x="685" y="1326" type="curve" smooth="yes"/>
      <point x="680" y="1320"/>
      <point x="678" y="1310"/>
      <point x="676" y="1303" type="curve" smooth="yes"/>
      <point x="659" y="1252" type="line"/>
      <point x="576" y="1003" type="line" smooth="yes"/>
      <point x="514" y="818"/>
      <point x="452" y="635"/>
      <point x="391" y="451" type="curve" smooth="yes"/>
      <point x="376" y="406"/>
      <point x="358" y="362"/>
      <point x="351" y="316" type="curve" smooth="yes"/>
      <point x="349" y="302"/>
      <point x="347" y="288"/>
      <point x="345" y="275" type="curve" smooth="yes"/>
      <point x="344" y="269"/>
      <point x="345" y="262"/>
      <point x="340" y="259" type="curve" smooth="yes"/>
      <point x="333" y="253"/>
      <point x="320" y="244"/>
      <point x="312" y="242" type="curve" smooth="yes"/>
      <point x="304" y="240"/>
      <point x="294" y="242"/>
      <point x="287" y="242" type="curve" smooth="yes"/>
      <point x="235" y="242" type="line"/>
      <point x="0" y="242" type="line"/>
    </contour>
    <contour>
      <point x="1206" y="2677" type="move" smooth="yes"/>
      <point x="1185" y="2665"/>
      <point x="1165" y="2652"/>
      <point x="1145" y="2640" type="curve" smooth="yes"/>
      <point x="1137" y="2635"/>
      <point x="1124" y="2631"/>
      <point x="1118" y="2623" type="curve" smooth="yes"/>
      <point x="1113" y="2616"/>
      <point x="1112" y="2605"/>
      <point x="1109" y="2597" type="curve" smooth="yes"/>
      <point x="1089" y="2538" type="line" smooth="yes"/>
      <point x="1068" y="2473"/>
      <point x="1046" y="2409"/>
      <point x="1025" y="2345" type="curve" smooth="yes"/>
      <point x="952" y="2127"/>
      <point x="879" y="1910"/>
      <point x="807" y="1693" type="curve" smooth="yes"/>
      <point x="787" y="1633"/>
      <point x="766" y="1573"/>
      <point x="747" y="1514" type="curve" smooth="yes"/>
      <point x="728" y="1458"/>
      <point x="709" y="1400"/>
      <point x="708" y="1341" type="curve" smooth="yes"/>
    </contour>
    <contour>
      <point x="2565" y="242" type="move"/>
      <point x="2373" y="242" type="line"/>
      <point x="2313" y="242" type="line" smooth="yes"/>
      <point x="2303" y="242"/>
      <point x="2292" y="240"/>
      <point x="2284" y="242" type="curve" smooth="yes"/>
      <point x="2271" y="245"/>
      <point x="2258" y="255"/>
      <point x="2248" y="261" type="curve" smooth="yes"/>
      <point x="2232" y="270"/>
      <point x="2216" y="279"/>
      <point x="2201" y="287" type="curve" smooth="yes"/>
      <point x="2192" y="292"/>
      <point x="2180" y="296"/>
      <point x="2173" y="303" type="curve" smooth="yes"/>
      <point x="2169" y="306"/>
      <point x="2169" y="315"/>
      <point x="2168" y="320" type="curve" smooth="yes"/>
      <point x="2166" y="335"/>
      <point x="2163" y="349"/>
      <point x="2161" y="365" type="curve" smooth="yes"/>
      <point x="2154" y="406"/>
      <point x="2133" y="447"/>
      <point x="2117" y="486" type="curve" smooth="yes"/>
      <point x="2041" y="666"/>
      <point x="1972" y="850"/>
      <point x="1900" y="1032" type="curve" smooth="yes"/>
      <point x="1800" y="1282" type="line" smooth="yes"/>
      <point x="1793" y="1299"/>
      <point x="1786" y="1316"/>
      <point x="1779" y="1334" type="curve" smooth="yes"/>
      <point x="1776" y="1342"/>
      <point x="1773" y="1354"/>
      <point x="1768" y="1361" type="curve" smooth="yes"/>
      <point x="1763" y="1368"/>
      <point x="1749" y="1373"/>
      <point x="1742" y="1377" type="curve" smooth="yes"/>
    </contour>
    <contour>
      <point x="2171" y="304" type="move"/>
      <point x="2128" y="261" type="line"/>
      <point x="2108" y="242" type="line"/>
      <point x="2082" y="242" type="line"/>
      <point x="2024" y="242" type="line"/>
      <point x="1828" y="242" type="line"/>
    </contour>
    <contour>
      <point x="344" y="260" type="move"/>
      <point x="363" y="242" type="line"/>
      <point x="387" y="242" type="line"/>
      <point x="441" y="242" type="line"/>
      <point x="674" y="242" type="line"/>
    </contour>
  </outline>
</glyph>
<glyph name="B" format="1">
  <advance width="1886"/>
  <unicode hex="0042"/>
  <outline>
    <contour>
      <point x="0" y="2820" type="move"/>
      <point x="174" y="2820" type="line"/>
      <point x="226" y="2820" type="line"/>
      <point x="249" y="2819" type="line"/>
      <point x="269" y="2801" type="line"/>
      <point x="314" y="2756" type="line"/>
      <point x="358" y="2800" type="line" smooth="yes"/>
      <point x="363" y="2805"/>
      <point x="370" y="2815"/>
      <point x="378" y="2818" type="curve" smooth="yes"/>
      <point x="388" y="2822"/>
      <point x="405" y="2819"/>
      <point x="416" y="2819" type="curve" smooth="yes"/>
      <point x="502" y="2819" type="line"/>
      <point x="793" y="2819" type="line"/>
      <point x="1076" y="2819" type="line" smooth="yes"/>
      <point x="1148" y="2819"/>
      <point x="1223" y="2821"/>
      <point x="1295" y="2807" type="curve" smooth="yes"/>
      <point x="1445" y="2779"/>
      <point x="1586" y="2694"/>
      <point x="1682" y="2576" type="curve" smooth="yes"/>
      <point x="1720" y="2529"/>
      <point x="1750" y="2478"/>
      <point x="1770" y="2422" type="curve" smooth="yes"/>
      <point x="1785" y="2379"/>
      <point x="1793" y="2334"/>
      <point x="1799" y="2290" type="curve" smooth="yes"/>
      <point x="1802" y="2268"/>
      <point x="1806" y="2246"/>
      <point x="1806" y="2225" type="curve" smooth="yes"/>
      <point x="1807" y="2198"/>
      <point x="1801" y="2170"/>
      <point x="1797" y="2144" type="curve" smooth="yes"/>
      <point x="1789" y="2088"/>
      <point x="1776" y="2034"/>
      <point x="1753" y="1983" type="curve" smooth="yes"/>
      <point x="1717" y="1900"/>
      <point x="1655" y="1828"/>
      <point x="1588" y="1769" type="curve" smooth="yes"/>
      <point x="1552" y="1738"/>
      <point x="1514" y="1710"/>
      <point x="1474" y="1687" type="curve" smooth="yes"/>
      <point x="1461" y="1680"/>
      <point x="1448" y="1673"/>
      <point x="1435" y="1668" type="curve" smooth="yes"/>
      <point x="1428" y="1665"/>
      <point x="1418" y="1663"/>
      <point x="1412" y="1659" type="curve" smooth="yes"/>
      <point x="1408" y="1655"/>
      <point x="1406" y="1649"/>
      <point x="1404" y="1645" type="curve" smooth="yes"/>
      <point x="1399" y="1634"/>
      <point x="1394" y="1624"/>
      <point x="1388" y="1615" type="curve" smooth="yes"/>
      <point x="1386" y="1610"/>
      <point x="1381" y="1604"/>
      <point x="1382" y="1600" type="curve" smooth="yes"/>
      <point x="1383" y="1594"/>
      <point x="1388" y="1589"/>
      <point x="1390" y="1585" type="curve" smooth="yes"/>
      <point x="1397" y="1573"/>
      <point x="1403" y="1550"/>
      <point x="1414" y="1542" type="curve" smooth="yes"/>
      <point x="1418" y="1538"/>
      <point x="1425" y="1537"/>
      <point x="1431" y="1535" type="curve" smooth="yes"/>
      <point x="1449" y="1525"/>
      <point x="1468" y="1517"/>
      <point x="1486" y="1507" type="curve" smooth="yes"/>
      <point x="1553" y="1470"/>
      <point x="1616" y="1426"/>
      <point x="1673" y="1373" type="curve" smooth="yes"/>
      <point x="1746" y="1305"/>
      <point x="1807" y="1220"/>
      <point x="1842" y="1125" type="curve" smooth="yes"/>
      <point x="1859" y="1077"/>
      <point x="1869" y="1028"/>
      <point x="1876" y="979" type="curve" smooth="yes"/>
      <point x="1880" y="951"/>
      <point x="1885" y="922"/>
      <point x="1886" y="894" type="curve" smooth="yes"/>
      <point x="1886" y="870"/>
      <point x="1882" y="845"/>
      <point x="1880" y="822" type="curve" smooth="yes"/>
      <point x="1874" y="766"/>
      <point x="1865" y="710"/>
      <point x="1849" y="657" type="curve" smooth="yes"/>
      <point x="1832" y="600"/>
      <point x="1808" y="547"/>
      <point x="1776" y="498" type="curve" smooth="yes"/>
      <point x="1755" y="464"/>
      <point x="1729" y="435"/>
      <point x="1701" y="408" type="curve" smooth="yes"/>
      <point x="1598" y="313"/>
      <point x="1451" y="261"/>
      <point x="1314" y="247" type="curve" smooth="yes"/>
      <point x="1207" y="236"/>
      <point x="1098" y="241"/>
      <point x="991" y="241" type="curve" smooth="yes"/>
      <point x="780" y="241" type="line"/>
      <point x="499" y="241" type="line"/>
      <point x="416" y="241" type="line" smooth="yes"/>
      <point x="405" y="241"/>
      <point x="389" y="238"/>
      <point x="380" y="241" type="curve" smooth="yes"/>
      <point x="372" y="244"/>
      <point x="364" y="255"/>
      <point x="359" y="261" type="curve" smooth="yes"/>
      <point x="314" y="306" type="line"/>
      <point x="269" y="261" type="line"/>
      <point x="249" y="242" type="line"/>
      <point x="226" y="242" type="line"/>
      <point x="174" y="242" type="line"/>
      <point x="0" y="242" type="line"/>
    </contour>
    <contour>
      <point x="314" y="2756" type="move"/>
      <point x="314" y="306" type="line"/>
    </contour>
    <contour>
      <point x="315" y="1600" type="move"/>
      <point x="1381" y="1601" type="line"/>
    </contour>
  </outline>
</glyph>
<glyph name="C" format="1">
  <advance width="2074"/>
  <unicode hex="0043"/>
  <outline>
    <contour>
      <point x="2064" y="953" type="move" smooth="yes"/>
      <point x="2057" y="935"/>
      <point x="2053" y="915"/>
      <point x="2047" y="898" type="curve" smooth="yes"/>
      <point x="2036" y="864"/>
      <point x="2022" y="832"/>
      <point x="2008" y="800" type="curve" smooth="yes"/>
      <point x="1963" y="697"/>
      <point x="1895" y="603"/>
      <point x="1812" y="528" type="curve" smooth="yes"/>
      <point x="1595" y="331"/>
      <point x="1299" y="259"/>
      <point x="1012" y="278" type="curve" smooth="yes"/>
      <point x="917" y="285"/>
      <point x="822" y="299"/>
      <point x="731" y="328" type="curve" smooth="yes"/>
      <point x="586" y="372"/>
      <point x="453" y="452"/>
      <point x="347" y="561" type="curve" smooth="yes"/>
      <point x="125" y="787"/>
      <point x="25" y="1104"/>
      <point x="4" y="1415" type="curve" smooth="yes"/>
      <point x="-0" y="1491"/>
      <point x="-1" y="1565"/>
      <point x="3" y="1642" type="curve" smooth="yes"/>
      <point x="11" y="1756"/>
      <point x="25" y="1869"/>
      <point x="54" y="1981" type="curve" smooth="yes"/>
      <point x="118" y="2218"/>
      <point x="247" y="2442"/>
      <point x="445" y="2592" type="curve" smooth="yes"/>
      <point x="572" y="2689"/>
      <point x="723" y="2748"/>
      <point x="879" y="2775" type="curve" smooth="yes"/>
      <point x="942" y="2787"/>
      <point x="1006" y="2791"/>
      <point x="1070" y="2794" type="curve" smooth="yes"/>
      <point x="1175" y="2798"/>
      <point x="1282" y="2795"/>
      <point x="1386" y="2776" type="curve" smooth="yes"/>
      <point x="1493" y="2757"/>
      <point x="1596" y="2721"/>
      <point x="1693" y="2672" type="curve" smooth="yes"/>
      <point x="1716" y="2661"/>
      <point x="1745" y="2657"/>
      <point x="1770" y="2650" type="curve" smooth="yes"/>
      <point x="1815" y="2638"/>
      <point x="1860" y="2622"/>
      <point x="1904" y="2607" type="curve" smooth="yes"/>
      <point x="1919" y="2602"/>
      <point x="1935" y="2600"/>
      <point x="1951" y="2598" type="curve" smooth="yes"/>
      <point x="1957" y="2597"/>
      <point x="1967" y="2597"/>
      <point x="1972" y="2592" type="curve" smooth="yes"/>
      <point x="1979" y="2584"/>
      <point x="1981" y="2563"/>
      <point x="1984" y="2553" type="curve" smooth="yes"/>
      <point x="1992" y="2521"/>
      <point x="2001" y="2489"/>
      <point x="2009" y="2458" type="curve" smooth="yes"/>
      <point x="2037" y="2336"/>
      <point x="2063" y="2212"/>
      <point x="2073" y="2088" type="curve" smooth="yes"/>
    </contour>
  </outline>
</glyph>
<glyph name="G" format="1">
  <advance width="2231"/>
  <unicode hex="0047"/>
  <outline>
    <contour>
      <point x="1559" y="1350" type="move" smooth="yes"/>
      <point x="1624" y="1350"/>
      <point x="1690" y="1351"/>
      <point x="1755" y="1351" type="curve" smooth="yes"/>
      <point x="1812" y="1351" type="line" smooth="yes"/>
      <point x="1820" y="1351"/>
      <point x="1831" y="1353"/>
      <point x="1838" y="1350" type="curve" smooth="yes"/>
      <point x="1847" y="1347"/>
      <point x="1855" y="1334"/>
      <point x="1862" y="1328" type="curve" smooth="yes"/>
      <point x="1880" y="1310"/>
      <point x="1902" y="1293"/>
      <point x="1917" y="1273" type="curve" smooth="yes"/>
      <point x="1920" y="1268"/>
      <point x="1919" y="1262"/>
      <point x="1919" y="1257" type="curve" smooth="yes"/>
      <point x="1919" y="1222" type="line"/>
      <point x="1919" y="1083" type="line"/>
      <point x="1919" y="610" type="line"/>
      <point x="1919" y="518" type="line" smooth="yes"/>
      <point x="1919" y="506"/>
      <point x="1922" y="488"/>
      <point x="1918" y="478" type="curve" smooth="yes"/>
      <point x="1916" y="472"/>
      <point x="1909" y="467"/>
      <point x="1905" y="463" type="curve" smooth="yes"/>
      <point x="1894" y="452"/>
      <point x="1884" y="437"/>
      <point x="1871" y="429" type="curve" smooth="yes"/>
      <point x="1862" y="424"/>
      <point x="1847" y="423"/>
      <point x="1837" y="421" type="curve" smooth="yes"/>
      <point x="1810" y="416"/>
      <point x="1780" y="413"/>
      <point x="1755" y="404" type="curve" smooth="yes"/>
      <point x="1726" y="394"/>
      <point x="1698" y="377"/>
      <point x="1670" y="365" type="curve" smooth="yes"/>
      <point x="1598" y="336"/>
      <point x="1524" y="313"/>
      <point x="1449" y="296" type="curve" smooth="yes"/>
      <point x="1365" y="277"/>
      <point x="1280" y="267"/>
      <point x="1194" y="261" type="curve" smooth="yes"/>
      <point x="936" y="244"/>
      <point x="663" y="286"/>
      <point x="452" y="445" type="curve" smooth="yes"/>
      <point x="220" y="620"/>
      <point x="89" y="892"/>
      <point x="37" y="1173" type="curve" smooth="yes"/>
      <point x="-34" y="1555"/>
      <point x="-14" y="1981"/>
      <point x="203" y="2316" type="curve" smooth="yes"/>
      <point x="250" y="2387"/>
      <point x="304" y="2453"/>
      <point x="365" y="2513" type="curve" smooth="yes"/>
      <point x="432" y="2578"/>
      <point x="507" y="2637"/>
      <point x="590" y="2681" type="curve" smooth="yes"/>
      <point x="851" y="2818"/>
      <point x="1167" y="2825"/>
      <point x="1446" y="2738" type="curve" smooth="yes"/>
      <point x="1529" y="2713"/>
      <point x="1607" y="2674"/>
      <point x="1684" y="2633" type="curve" smooth="yes"/>
      <point x="1700" y="2625"/>
      <point x="1721" y="2622"/>
      <point x="1739" y="2617" type="curve" smooth="yes"/>
      <point x="1773" y="2606"/>
      <point x="1808" y="2595"/>
      <point x="1842" y="2584" type="curve" smooth="yes"/>
      <point x="1855" y="2579"/>
      <point x="1869" y="2575"/>
      <point x="1882" y="2570" type="curve" smooth="yes"/>
      <point x="1887" y="2568"/>
      <point x="1895" y="2567"/>
      <point x="1898" y="2562" type="curve" smooth="yes"/>
      <point x="1903" y="2556"/>
      <point x="1905" y="2544"/>
      <point x="1907" y="2537" type="curve" smooth="yes"/>
      <point x="1913" y="2516"/>
      <point x="1918" y="2495"/>
      <point x="1924" y="2474" type="curve" smooth="yes"/>
      <point x="1936" y="2424"/>
      <point x="1947" y="2374"/>
      <point x="1957" y="2324" type="curve" smooth="yes"/>
      <point x="1963" y="2294"/>
      <point x="1971" y="2264"/>
      <point x="1973" y="2234" type="curve" smooth="yes"/>
    </contour>
    <contour>
      <point x="1969" y="2781" type="move" smooth="yes"/>
      <point x="1952" y="2729"/>
      <point x="1937" y="2677"/>
      <point x="1921" y="2626" type="curve" smooth="yes"/>
      <point x="1914" y="2607"/>
      <point x="1912" y="2578"/>
      <point x="1898" y="2564" type="curve" smooth="yes"/>
    </contour>
    <contour>
      <point x="1919" y="1272" type="move"/>
      <point x="1972" y="1325" type="line"/>
      <point x="1997" y="1348" type="line"/>
      <point x="2017" y="1350" type="line"/>
      <point x="2064" y="1350" type="line"/>
      <point x="2231" y="1350" type="line"/>
    </contour>
    <contour>
      <point x="1918" y="476" type="move" smooth="yes"/>
      <point x="1933" y="460"/>
      <point x="1934" y="434"/>
      <point x="1939" y="414" type="curve" smooth="yes"/>
      <point x="1950" y="365"/>
      <point x="1959" y="315"/>
      <point x="1973" y="267" type="curve" smooth="yes"/>
    </contour>
  </outline>
</glyph>
<glyph name="H" format="1">
  <advance width="2487"/>
  <unicode hex="0048"/>
  <outline>
    <contour>
      <point x="0" y="2820" type="move"/>
      <point x="197" y="2820" type="line"/>
      <point x="255" y="2820" type="line" smooth="yes"/>
      <point x="262" y="2820"/>
      <point x="273" y="2822"/>
      <point x="281" y="2819" type="curve" smooth="yes"/>
      <point x="287" y="2816"/>
      <point x="293" y="2808"/>
      <point x="299" y="2803" type="curve" smooth="yes"/>
      <point x="330" y="2772" type="line" smooth="yes"/>
      <point x="334" y="2767"/>
      <point x="341" y="2762"/>
      <point x="344" y="2756" type="curve" smooth="yes"/>
      <point x="347" y="2751"/>
      <point x="346" y="2745"/>
      <point x="346" y="2741" type="curve" smooth="yes"/>
      <point x="346" y="2707" type="line"/>
      <point x="346" y="2585" type="line"/>
      <point x="346" y="2149" type="line"/>
      <point x="346" y="852" type="line"/>
      <point x="346" y="469" type="line"/>
      <point x="346" y="356" type="line" smooth="yes"/>
      <point x="346" y="342"/>
      <point x="350" y="320"/>
      <point x="345" y="307" type="curve" smooth="yes"/>
      <point x="343" y="300"/>
      <point x="335" y="295"/>
      <point x="331" y="291" type="curve" smooth="yes"/>
      <point x="298" y="258" type="line" smooth="yes"/>
      <point x="293" y="253"/>
      <point x="287" y="245"/>
      <point x="281" y="242" type="curve" smooth="yes"/>
      <point x="274" y="240"/>
      <point x="265" y="242"/>
      <point x="259" y="242" type="curve" smooth="yes"/>
      <point x="211" y="242" type="line"/>
      <point x="47" y="242" type="line"/>
    </contour>
    <contour>
      <point x="346" y="2757" type="move"/>
      <point x="390" y="2801" type="line"/>
      <point x="410" y="2819" type="line"/>
      <point x="436" y="2820" type="line"/>
      <point x="494" y="2820" type="line"/>
      <point x="690" y="2820" type="line"/>
    </contour>
    <contour>
      <point x="1797" y="2820" type="move"/>
      <point x="1994" y="2820" type="line"/>
      <point x="2052" y="2820" type="line" smooth="yes"/>
      <point x="2059" y="2820"/>
      <point x="2070" y="2822"/>
      <point x="2078" y="2819" type="curve" smooth="yes"/>
      <point x="2084" y="2816"/>
      <point x="2090" y="2808"/>
      <point x="2096" y="2803" type="curve" smooth="yes"/>
      <point x="2127" y="2772" type="line" smooth="yes"/>
      <point x="2131" y="2767"/>
      <point x="2138" y="2762"/>
      <point x="2141" y="2756" type="curve" smooth="yes"/>
      <point x="2144" y="2751"/>
      <point x="2143" y="2745"/>
      <point x="2143" y="2741" type="curve" smooth="yes"/>
      <point x="2143" y="2707" type="line"/>
      <point x="2143" y="2585" type="line"/>
      <point x="2143" y="2149" type="line"/>
      <point x="2143" y="851" type="line"/>
      <point x="2143" y="469" type="line"/>
      <point x="2143" y="356" type="line" smooth="yes"/>
      <point x="2143" y="342"/>
      <point x="2147" y="320"/>
      <point x="2142" y="307" type="curve" smooth="yes"/>
      <point x="2140" y="300"/>
      <point x="2132" y="295"/>
      <point x="2128" y="291" type="curve" smooth="yes"/>
      <point x="2095" y="258" type="line" smooth="yes"/>
      <point x="2090" y="253"/>
      <point x="2084" y="245"/>
      <point x="2078" y="242" type="curve" smooth="yes"/>
      <point x="2071" y="240"/>
      <point x="2062" y="242"/>
      <point x="2056" y="242" type="curve" smooth="yes"/>
      <point x="2008" y="242" type="line"/>
      <point x="1844" y="242" type="line"/>
    </contour>
    <contour>
      <point x="2143" y="2757" type="move"/>
      <point x="2187" y="2801" type="line"/>
      <point x="2207" y="2819" type="line"/>
      <point x="2233" y="2820" type="line"/>
      <point x="2291" y="2820" type="line"/>
      <point x="2487" y="2820" type="line"/>
    </contour>
    <contour>
      <point x="347" y="1585" type="move"/>
      <point x="2142" y="1585" type="line"/>
    </contour>
    <contour>
      <point x="346" y="305" type="move"/>
      <point x="644" y="242" type="line"/>
      <point x="480" y="242" type="line"/>
      <point x="432" y="242" type="line"/>
      <point x="410" y="242" type="line"/>
      <point x="390" y="261" type="line"/>
    </contour>
    <contour>
      <point x="2143" y="305" type="move"/>
      <point x="2187" y="261" type="line"/>
      <point x="2207" y="242" type="line"/>
      <point x="2229" y="242" type="line"/>
      <point x="2277" y="242" type="line"/>
      <point x="2440" y="242" type="line"/>
    </contour>
  </outline>
</glyph>
<glyph name="I" format="1">
  <advance width="596"/>
  <unicode hex="0049"/>
  <outline>
    <contour>
      <point x="15" y="2820" type="move"/>
      <point x="580" y="2820" type="line"/>
      <point x="428" y="2820" type="line"/>
      <point x="383" y="2820" type="line"/>
      <point x="363" y="2819" type="line"/>
      <point x="343" y="2801" type="line"/>
      <point x="298" y="2756" type="line"/>
      <point x="253" y="2801" type="line"/>
      <point x="233" y="2819" type="line"/>
      <point x="213" y="2820" type="line"/>
      <point x="168" y="2820" type="line"/>
    </contour>
    <contour>
      <point x="298" y="2756" type="move"/>
      <point x="298" y="992" type="line"/>
      <point x="298" y="499" type="line"/>
      <point x="298" y="361" type="line"/>
      <point x="298" y="323" type="line"/>
      <point x="299" y="306" type="line"/>
      <point x="314" y="290" type="line"/>
      <point x="345" y="259" type="line"/>
      <point x="363" y="242" type="line"/>
      <point x="385" y="242" type="line"/>
      <point x="433" y="242" type="line"/>
      <point x="596" y="242" type="line"/>
    </contour>
    <contour>
      <point x="298" y="306" type="move"/>
      <point x="253" y="261" type="line"/>
      <point x="233" y="242" type="line"/>
      <point x="211" y="242" type="line"/>
      <point x="163" y="242" type="line"/>
      <point x="0" y="242" type="line"/>
    </contour>
  </outline>
</glyph>
<glyph name="M" format="1">
  <advance width="2752"/>
  <unicode hex="004D"/>
  <outline>
    <contour>
      <point x="0" y="2820" type="move"/>
      <point x="163" y="2820" type="line"/>
      <point x="211" y="2820" type="line"/>
      <point x="233" y="2819" type="line"/>
      <point x="249" y="2805" type="line"/>
      <point x="282" y="2772" type="line"/>
      <point x="251" y="2741" type="line" smooth="yes"/>
      <point x="246" y="2736"/>
      <point x="239" y="2731"/>
      <point x="237" y="2726" type="curve" smooth="yes"/>
      <point x="231" y="2715"/>
      <point x="236" y="2695"/>
      <point x="236" y="2684" type="curve" smooth="yes"/>
      <point x="236" y="2579" type="line"/>
      <point x="236" y="2225" type="line"/>
      <point x="236" y="770" type="line"/>
      <point x="236" y="385" type="line"/>
      <point x="236" y="283" type="line"/>
      <point x="236" y="256" type="line" smooth="yes"/>
      <point x="236" y="252"/>
      <point x="236" y="247"/>
      <point x="234" y="244" type="curve" smooth="yes"/>
      <point x="232" y="240"/>
      <point x="224" y="242"/>
      <point x="220" y="242" type="curve" smooth="yes"/>
      <point x="177" y="242" type="line"/>
      <point x="0" y="242" type="line"/>
    </contour>
    <contour>
      <point x="282" y="2772" type="move"/>
      <point x="349" y="2772" type="line" smooth="yes"/>
      <point x="355" y="2772"/>
      <point x="368" y="2772"/>
      <point x="375" y="2770" type="curve" smooth="yes"/>
      <point x="382" y="2767"/>
      <point x="385" y="2752"/>
      <point x="388" y="2746" type="curve" smooth="yes"/>
      <point x="400" y="2722"/>
      <point x="410" y="2697"/>
      <point x="422" y="2674" type="curve" smooth="yes"/>
      <point x="466" y="2581"/>
      <point x="508" y="2487"/>
      <point x="551" y="2394" type="curve" smooth="yes"/>
      <point x="741" y="1980"/>
      <point x="934" y="1568"/>
      <point x="1124" y="1155" type="curve" smooth="yes"/>
      <point x="1182" y="1029"/>
      <point x="1239" y="903"/>
      <point x="1298" y="778" type="curve" smooth="yes"/>
      <point x="1308" y="757"/>
      <point x="1318" y="735"/>
      <point x="1328" y="715" type="curve" smooth="yes"/>
      <point x="1331" y="707"/>
      <point x="1334" y="696"/>
      <point x="1340" y="690" type="curve" smooth="yes"/>
      <point x="1345" y="685"/>
      <point x="1353" y="682"/>
      <point x="1359" y="679" type="curve" smooth="yes"/>
      <point x="1364" y="676"/>
      <point x="1374" y="668"/>
      <point x="1381" y="669" type="curve" smooth="yes"/>
      <point x="1385" y="669"/>
      <point x="1391" y="674"/>
      <point x="1395" y="676" type="curve" smooth="yes"/>
      <point x="1404" y="681"/>
      <point x="1413" y="686"/>
      <point x="1423" y="691" type="curve" smooth="yes"/>
      <point x="1439" y="700"/>
      <point x="1456" y="709"/>
      <point x="1473" y="719" type="curve" smooth="yes"/>
      <point x="1479" y="723"/>
      <point x="1490" y="726"/>
      <point x="1495" y="732" type="curve" smooth="yes"/>
      <point x="1502" y="739"/>
      <point x="1504" y="752"/>
      <point x="1508" y="762" type="curve" smooth="yes"/>
      <point x="1516" y="782"/>
      <point x="1525" y="802"/>
      <point x="1533" y="822" type="curve" smooth="yes"/>
      <point x="1595" y="969"/>
      <point x="1655" y="1117"/>
      <point x="1717" y="1266" type="curve" smooth="yes"/>
      <point x="1847" y="1582"/>
      <point x="1979" y="1898"/>
      <point x="2109" y="2215" type="curve" smooth="yes"/>
      <point x="2151" y="2314"/>
      <point x="2191" y="2414"/>
      <point x="2233" y="2514" type="curve" smooth="yes"/>
      <point x="2245" y="2543"/>
      <point x="2257" y="2572"/>
      <point x="2269" y="2602" type="curve" smooth="yes"/>
      <point x="2274" y="2613"/>
      <point x="2278" y="2631"/>
      <point x="2286" y="2641" type="curve" smooth="yes"/>
      <point x="2295" y="2652"/>
      <point x="2317" y="2659"/>
      <point x="2329" y="2665" type="curve" smooth="yes"/>
      <point x="2360" y="2682"/>
      <point x="2394" y="2698"/>
      <point x="2424" y="2718" type="curve" smooth="yes"/>
      <point x="2431" y="2722"/>
      <point x="2429" y="2731"/>
      <point x="2435" y="2737" type="curve" smooth="yes"/>
      <point x="2453" y="2756"/>
      <point x="2472" y="2774"/>
      <point x="2491" y="2793" type="curve" smooth="yes"/>
      <point x="2498" y="2800"/>
      <point x="2507" y="2813"/>
      <point x="2518" y="2818" type="curve" smooth="yes"/>
      <point x="2523" y="2821"/>
      <point x="2532" y="2820"/>
      <point x="2538" y="2820" type="curve" smooth="yes"/>
      <point x="2585" y="2820" type="line"/>
      <point x="2752" y="2820" type="line"/>
    </contour>
    <contour>
      <point x="2752" y="242" type="move"/>
      <point x="2589" y="242" type="line"/>
      <point x="2541" y="242" type="line" smooth="yes"/>
      <point x="2534" y="242"/>
      <point x="2525" y="240"/>
      <point x="2519" y="242" type="curve" smooth="yes"/>
      <point x="2511" y="245"/>
      <point x="2505" y="254"/>
      <point x="2500" y="260" type="curve" smooth="yes"/>
      <point x="2486" y="273"/>
      <point x="2466" y="288"/>
      <point x="2455" y="305" type="curve" smooth="yes"/>
      <point x="2450" y="313"/>
      <point x="2454" y="333"/>
      <point x="2454" y="343" type="curve" smooth="yes"/>
      <point x="2454" y="441" type="line"/>
      <point x="2454" y="808" type="line"/>
      <point x="2454" y="2182" type="line"/>
      <point x="2454" y="2565" type="line"/>
      <point x="2454" y="2654" type="line" smooth="yes"/>
      <point x="2454" y="2665"/>
      <point x="2457" y="2682"/>
      <point x="2453" y="2693" type="curve" smooth="yes"/>
      <point x="2449" y="2702"/>
      <point x="2435" y="2712"/>
      <point x="2428" y="2720" type="curve" smooth="yes"/>
    </contour>
    <contour>
      <point x="1381" y="668" type="move"/>
      <point x="1384" y="455" type="line"/>
    </contour>
    <contour>
      <point x="2454" y="306" type="move"/>
      <point x="2409" y="261" type="line"/>
      <point x="2389" y="242" type="line"/>
      <point x="2367" y="242" type="line"/>
      <point x="2319" y="242" type="line"/>
      <point x="2156" y="242" type="line"/>
    </contour>
    <contour>
      <point x="237" y="242" type="move"/>
      <point x="471" y="242" type="line"/>
    </contour>
  </outline>
</glyph>
<glyph name="O" format="1">
  <advance width="2214"/>
  <unicode hex="004F"/>
  <outline>
    <contour>
      <point x="1094" y="2794" type="move" smooth="yes"/>
      <point x="1112" y="2797"/>
      <point x="1132" y="2794"/>
      <point x="1151" y="2794" type="curve" smooth="yes"/>
      <point x="1198" y="2792"/>
      <point x="1244" y="2789"/>
      <point x="1291" y="2783" type="curve" smooth="yes"/>
      <point x="1483" y="2758"/>
      <point x="1660" y="2670"/>
      <point x="1804" y="2541" type="curve" smooth="yes"/>
      <point x="1918" y="2438"/>
      <point x="2009" y="2310"/>
      <point x="2077" y="2173" type="curve" smooth="yes"/>
      <point x="2143" y="2042"/>
      <point x="2184" y="1895"/>
      <point x="2199" y="1750" type="curve" smooth="yes"/>
      <point x="2206" y="1682"/>
      <point x="2214" y="1613"/>
      <point x="2214" y="1546" type="curve" smooth="yes"/>
      <point x="2209" y="1185"/>
      <point x="2111" y="819"/>
      <point x="1860" y="550" type="curve" smooth="yes"/>
      <point x="1816" y="503"/>
      <point x="1768" y="461"/>
      <point x="1717" y="424" type="curve" smooth="yes"/>
      <point x="1662" y="385"/>
      <point x="1603" y="351"/>
      <point x="1541" y="326" type="curve" smooth="yes"/>
      <point x="1461" y="294"/>
      <point x="1378" y="270"/>
      <point x="1293" y="260" type="curve" smooth="yes"/>
      <point x="1094" y="235"/>
      <point x="885" y="251"/>
      <point x="698" y="326" type="curve" smooth="yes"/>
      <point x="443" y="428"/>
      <point x="254" y="649"/>
      <point x="139" y="893" type="curve" smooth="yes"/>
      <point x="67" y="1045"/>
      <point x="27" y="1211"/>
      <point x="10" y="1379" type="curve" smooth="yes"/>
      <point x="5" y="1436"/>
      <point x="-0" y="1494"/>
      <point x="0" y="1552" type="curve" smooth="yes"/>
      <point x="1" y="1703"/>
      <point x="24" y="1859"/>
      <point x="70" y="2004" type="curve" smooth="yes"/>
      <point x="133" y="2200"/>
      <point x="245" y="2382"/>
      <point x="395" y="2524" type="curve" smooth="yes"/>
      <point x="533" y="2657"/>
      <point x="710" y="2742"/>
      <point x="898" y="2776" type="curve" smooth="yes"/>
      <point x="946" y="2785"/>
      <point x="994" y="2789"/>
      <point x="1043" y="2792" type="curve" smooth="yes"/>
      <point x="1059" y="2794"/>
      <point x="1077" y="2792"/>
      <point x="1094" y="2794" type="curve" smooth="yes"/>
    </contour>
  </outline>
</glyph>
<glyph name="P" format="1">
  <advance width="1731"/>
  <unicode hex="0050"/>
  <outline>
    <contour>
      <point x="0" y="2820" type="move"/>
      <point x="163" y="2820" type="line"/>
      <point x="211" y="2820" type="line"/>
      <point x="233" y="2819" type="line"/>
      <point x="253" y="2801" type="line"/>
      <point x="298" y="2756" type="line"/>
      <point x="343" y="2801" type="line" smooth="yes"/>
      <point x="348" y="2806"/>
      <point x="355" y="2816"/>
      <point x="363" y="2819" type="curve" smooth="yes"/>
      <point x="373" y="2823"/>
      <point x="390" y="2820"/>
      <point x="401" y="2820" type="curve" smooth="yes"/>
      <point x="489" y="2820" type="line"/>
      <point x="788" y="2820" type="line" smooth="yes"/>
      <point x="965" y="2820"/>
      <point x="1149" y="2833"/>
      <point x="1319" y="2771" type="curve" smooth="yes"/>
      <point x="1373" y="2751"/>
      <point x="1426" y="2723"/>
      <point x="1474" y="2689" type="curve" smooth="yes"/>
      <point x="1570" y="2619"/>
      <point x="1645" y="2522"/>
      <point x="1685" y="2410" type="curve" smooth="yes"/>
      <point x="1704" y="2356"/>
      <point x="1714" y="2301"/>
      <point x="1722" y="2245" type="curve" smooth="yes"/>
      <point x="1725" y="2217"/>
      <point x="1730" y="2188"/>
      <point x="1730" y="2160" type="curve" smooth="yes"/>
      <point x="1731" y="2142"/>
      <point x="1727" y="2123"/>
      <point x="1726" y="2106" type="curve" smooth="yes"/>
      <point x="1722" y="2068"/>
      <point x="1717" y="2031"/>
      <point x="1710" y="1994" type="curve" smooth="yes"/>
      <point x="1697" y="1933"/>
      <point x="1676" y="1873"/>
      <point x="1644" y="1820" type="curve" smooth="yes"/>
      <point x="1617" y="1774"/>
      <point x="1586" y="1735"/>
      <point x="1549" y="1698" type="curve" smooth="yes"/>
      <point x="1524" y="1673"/>
      <point x="1497" y="1652"/>
      <point x="1469" y="1632" type="curve" smooth="yes"/>
      <point x="1375" y="1566"/>
      <point x="1263" y="1528"/>
      <point x="1151" y="1515" type="curve" smooth="yes"/>
      <point x="1094" y="1508"/>
      <point x="1039" y="1509"/>
      <point x="983" y="1507" type="curve" smooth="yes"/>
      <point x="890" y="1505"/>
      <point x="796" y="1507"/>
      <point x="704" y="1507" type="curve" smooth="yes"/>
      <point x="399" y="1507" type="line"/>
      <point x="324" y="1507" type="line" smooth="yes"/>
      <point x="318" y="1507"/>
      <point x="302" y="1509"/>
      <point x="299" y="1505" type="curve" smooth="yes"/>
      <point x="295" y="1501"/>
      <point x="298" y="1490"/>
      <point x="298" y="1486" type="curve" smooth="yes"/>
      <point x="298" y="1435" type="line"/>
      <point x="298" y="1234" type="line"/>
      <point x="298" y="555" type="line"/>
      <point x="298" y="374" type="line"/>
      <point x="298" y="325" type="line" smooth="yes"/>
      <point x="298" y="319"/>
      <point x="296" y="310"/>
      <point x="299" y="305" type="curve" smooth="yes"/>
      <point x="310" y="288"/>
      <point x="330" y="273"/>
      <point x="344" y="260" type="curve" smooth="yes"/>
      <point x="349" y="254"/>
      <point x="355" y="245"/>
      <point x="363" y="242" type="curve" smooth="yes"/>
      <point x="369" y="240"/>
      <point x="378" y="242"/>
      <point x="385" y="242" type="curve" smooth="yes"/>
      <point x="433" y="242" type="line"/>
      <point x="596" y="242" type="line"/>
    </contour>
    <contour>
      <point x="298" y="2756" type="move"/>
      <point x="298" y="1508" type="line"/>
    </contour>
    <contour>
      <point x="298" y="306" type="move"/>
      <point x="253" y="261" type="line"/>
      <point x="233" y="242" type="line"/>
      <point x="211" y="242" type="line"/>
      <point x="163" y="242" type="line"/>
      <point x="0" y="242" type="line"/>
    </contour>
  </outline>
</glyph>
<glyph name="R" format="1">
  <advance width="2065"/>
  <unicode hex="0052"/>
  <outline>
    <contour>
      <point x="0" y="2820" type="move"/>
      <point x="174" y="2820" type="line"/>
      <point x="226" y="2820" type="line"/>
      <point x="249" y="2819" type="line"/>
      <point x="269" y="2801" type="line"/>
      <point x="314" y="2756" type="line"/>
      <point x="358" y="2800" type="line" smooth="yes"/>
      <point x="363" y="2805"/>
      <point x="370" y="2815"/>
      <point x="378" y="2818" type="curve" smooth="yes"/>
      <point x="387" y="2821"/>
      <point x="402" y="2819"/>
      <point x="413" y="2819" type="curve" smooth="yes"/>
      <point x="492" y="2819" type="line"/>
      <point x="761" y="2819" type="line" smooth="yes"/>
      <point x="882" y="2819"/>
      <point x="1005" y="2823"/>
      <point x="1126" y="2811" type="curve" smooth="yes"/>
      <point x="1303" y="2794"/>
      <point x="1487" y="2722"/>
      <point x="1610" y="2591" type="curve" smooth="yes"/>
      <point x="1646" y="2553"/>
      <point x="1675" y="2509"/>
      <point x="1697" y="2463" type="curve" smooth="yes"/>
      <point x="1727" y="2398"/>
      <point x="1740" y="2328"/>
      <point x="1748" y="2258" type="curve" smooth="yes"/>
      <point x="1753" y="2220"/>
      <point x="1751" y="2186"/>
      <point x="1746" y="2149" type="curve" smooth="yes"/>
      <point x="1739" y="2104"/>
      <point x="1732" y="2060"/>
      <point x="1714" y="2019" type="curve" smooth="yes"/>
      <point x="1649" y="1868"/>
      <point x="1500" y="1757"/>
      <point x="1350" y="1701" type="curve" smooth="yes"/>
      <point x="1296" y="1681"/>
      <point x="1241" y="1667"/>
      <point x="1185" y="1659" type="curve" smooth="yes"/>
      <point x="1168" y="1657"/>
      <point x="1151" y="1654"/>
      <point x="1135" y="1653" type="curve" smooth="yes"/>
      <point x="1125" y="1652"/>
      <point x="1113" y="1653"/>
      <point x="1104" y="1650" type="curve" smooth="yes"/>
      <point x="1097" y="1647"/>
      <point x="1092" y="1640"/>
      <point x="1087" y="1635" type="curve" smooth="yes"/>
      <point x="1080" y="1626"/>
      <point x="1071" y="1618"/>
      <point x="1064" y="1611" type="curve" smooth="yes"/>
      <point x="1060" y="1607"/>
      <point x="1053" y="1602"/>
      <point x="1051" y="1597" type="curve" smooth="yes"/>
      <point x="1048" y="1589"/>
      <point x="1054" y="1572"/>
      <point x="1056" y="1564" type="curve" smooth="yes"/>
      <point x="1059" y="1549"/>
      <point x="1060" y="1533"/>
      <point x="1065" y="1520" type="curve" smooth="yes"/>
      <point x="1071" y="1503"/>
      <point x="1081" y="1487"/>
      <point x="1089" y="1472" type="curve" smooth="yes"/>
      <point x="1246" y="1158" type="line" smooth="yes"/>
      <point x="1352" y="947"/>
      <point x="1457" y="735"/>
      <point x="1562" y="525" type="curve" smooth="yes"/>
      <point x="1591" y="467"/>
      <point x="1620" y="409"/>
      <point x="1649" y="352" type="curve" smooth="yes"/>
      <point x="1657" y="335"/>
      <point x="1665" y="319"/>
      <point x="1673" y="303" type="curve" smooth="yes"/>
      <point x="1677" y="296"/>
      <point x="1679" y="287"/>
      <point x="1686" y="282" type="curve" smooth="yes"/>
      <point x="1701" y="272"/>
      <point x="1720" y="265"/>
      <point x="1737" y="257" type="curve" smooth="yes"/>
      <point x="1747" y="252"/>
      <point x="1758" y="244"/>
      <point x="1769" y="242" type="curve" smooth="yes"/>
      <point x="1780" y="239"/>
      <point x="1794" y="242"/>
      <point x="1806" y="242" type="curve" smooth="yes"/>
      <point x="1882" y="242" type="line"/>
      <point x="2065" y="242" type="line"/>
    </contour>
    <contour>
      <point x="314" y="2756" type="move"/>
      <point x="314" y="991" type="line"/>
      <point x="314" y="499" type="line"/>
      <point x="314" y="361" type="line"/>
      <point x="314" y="323" type="line"/>
      <point x="315" y="306" type="line"/>
      <point x="330" y="290" type="line"/>
      <point x="361" y="259" type="line"/>
      <point x="379" y="242" type="line"/>
      <point x="401" y="242" type="line"/>
      <point x="449" y="242" type="line"/>
      <point x="612" y="242" type="line"/>
    </contour>
    <contour>
      <point x="315" y="1648" type="move"/>
      <point x="745" y="1648" type="line"/>
      <point x="881" y="1648" type="line" smooth="yes"/>
      <point x="901" y="1648"/>
      <point x="926" y="1651"/>
      <point x="946" y="1647" type="curve" smooth="yes"/>
      <point x="954" y="1645"/>
      <point x="963" y="1639"/>
      <point x="972" y="1635" type="curve" smooth="yes"/>
      <point x="996" y="1622"/>
      <point x="1023" y="1604"/>
      <point x="1050" y="1597" type="curve" smooth="yes"/>
    </contour>
    <contour>
      <point x="314" y="306" type="move"/>
      <point x="269" y="261" type="line"/>
      <point x="249" y="242" type="line"/>
      <point x="226" y="242" type="line"/>
      <point x="174" y="242" type="line"/>
      <point x="0" y="242" type="line"/>
    </contour>
  </outline>
</glyph>
<glyph name="S" format="1">
  <advance width="1554"/>
  <unicode hex="0053"/>
  <outline>
    <contour>
      <point x="0" y="1022" type="move" smooth="yes"/>
      <point x="0" y="979"/>
      <point x="6" y="935"/>
      <point x="10" y="893" type="curve" smooth="yes"/>
      <point x="19" y="798"/>
      <point x="31" y="704"/>
      <point x="45" y="610" type="curve" smooth="yes"/>
      <point x="50" y="575"/>
      <point x="56" y="541"/>
      <point x="63" y="507" type="curve" smooth="yes"/>
      <point x="65" y="497"/>
      <point x="65" y="476"/>
      <point x="72" y="469" type="curve" smooth="yes"/>
      <point x="76" y="465"/>
      <point x="84" y="463"/>
      <point x="90" y="461" type="curve" smooth="yes"/>
      <point x="102" y="455"/>
      <point x="114" y="450"/>
      <point x="127" y="444" type="curve" smooth="yes"/>
      <point x="162" y="430"/>
      <point x="197" y="417"/>
      <point x="234" y="405" type="curve" smooth="yes"/>
      <point x="251" y="399"/>
      <point x="271" y="396"/>
      <point x="288" y="388" type="curve" smooth="yes"/>
      <point x="313" y="375"/>
      <point x="336" y="357"/>
      <point x="361" y="344" type="curve" smooth="yes"/>
      <point x="419" y="314"/>
      <point x="481" y="289"/>
      <point x="545" y="272" type="curve" smooth="yes"/>
      <point x="627" y="251"/>
      <point x="715" y="247"/>
      <point x="801" y="250" type="curve" smooth="yes"/>
      <point x="968" y="258"/>
      <point x="1149" y="290"/>
      <point x="1276" y="411" type="curve" smooth="yes"/>
      <point x="1307" y="440"/>
      <point x="1333" y="475"/>
      <point x="1355" y="512" type="curve" smooth="yes"/>
      <point x="1379" y="550"/>
      <point x="1397" y="594"/>
      <point x="1410" y="638" type="curve" smooth="yes"/>
      <point x="1425" y="690"/>
      <point x="1434" y="743"/>
      <point x="1440" y="797" type="curve" smooth="yes"/>
      <point x="1442" y="822"/>
      <point x="1447" y="849"/>
      <point x="1447" y="875" type="curve" smooth="yes"/>
      <point x="1447" y="901"/>
      <point x="1443" y="928"/>
      <point x="1440" y="955" type="curve" smooth="yes"/>
      <point x="1436" y="993"/>
      <point x="1430" y="1031"/>
      <point x="1420" y="1069" type="curve" smooth="yes"/>
      <point x="1411" y="1102"/>
      <point x="1398" y="1134"/>
      <point x="1382" y="1165" type="curve" smooth="yes"/>
      <point x="1302" y="1325"/>
      <point x="1146" y="1421"/>
      <point x="990" y="1497" type="curve" smooth="yes"/>
      <point x="941" y="1520"/>
      <point x="891" y="1542"/>
      <point x="841" y="1562" type="curve" smooth="yes"/>
      <point x="800" y="1578"/>
      <point x="759" y="1592"/>
      <point x="719" y="1609" type="curve" smooth="yes"/>
      <point x="671" y="1627"/>
      <point x="624" y="1646"/>
      <point x="578" y="1667" type="curve" smooth="yes"/>
      <point x="498" y="1704"/>
      <point x="419" y="1742"/>
      <point x="346" y="1790" type="curve" smooth="yes"/>
      <point x="278" y="1834"/>
      <point x="217" y="1881"/>
      <point x="174" y="1952" type="curve" smooth="yes"/>
      <point x="143" y="2003"/>
      <point x="126" y="2061"/>
      <point x="117" y="2121" type="curve" smooth="yes"/>
      <point x="113" y="2150"/>
      <point x="105" y="2184"/>
      <point x="107" y="2214" type="curve" smooth="yes"/>
      <point x="111" y="2287"/>
      <point x="126" y="2366"/>
      <point x="153" y="2435" type="curve" smooth="yes"/>
      <point x="169" y="2475"/>
      <point x="191" y="2514"/>
      <point x="217" y="2550" type="curve" smooth="yes"/>
      <point x="264" y="2615"/>
      <point x="324" y="2673"/>
      <point x="396" y="2713" type="curve" smooth="yes"/>
      <point x="522" y="2782"/>
      <point x="669" y="2799"/>
      <point x="811" y="2793" type="curve" smooth="yes"/>
      <point x="877" y="2790"/>
      <point x="944" y="2783"/>
      <point x="1010" y="2766" type="curve" smooth="yes"/>
      <point x="1052" y="2755"/>
      <point x="1097" y="2742"/>
      <point x="1138" y="2724" type="curve" smooth="yes"/>
      <point x="1169" y="2710"/>
      <point x="1199" y="2691"/>
      <point x="1231" y="2677" type="curve" smooth="yes"/>
      <point x="1252" y="2668"/>
      <point x="1278" y="2665"/>
      <point x="1301" y="2658" type="curve" smooth="yes"/>
      <point x="1338" y="2647"/>
      <point x="1375" y="2633"/>
      <point x="1413" y="2622" type="curve" smooth="yes"/>
      <point x="1426" y="2617"/>
      <point x="1441" y="2617"/>
      <point x="1456" y="2615" type="curve" smooth="yes"/>
      <point x="1461" y="2614"/>
      <point x="1470" y="2614"/>
      <point x="1474" y="2610" type="curve" smooth="yes"/>
      <point x="1481" y="2603"/>
      <point x="1482" y="2582"/>
      <point x="1485" y="2573" type="curve" smooth="yes"/>
      <point x="1493" y="2539"/>
      <point x="1500" y="2506"/>
      <point x="1507" y="2473" type="curve" smooth="yes"/>
      <point x="1534" y="2338"/>
      <point x="1551" y="2199"/>
      <point x="1554" y="2062" type="curve" smooth="yes"/>
    </contour>
  </outline>
</glyph>
<glyph name="T" format="1">
  <advance width="1938"/>
  <unicode hex="0054"/>
  <outline>
    <contour>
      <point x="0" y="2235" type="move" smooth="yes"/>
      <point x="0" y="2358"/>
      <point x="12" y="2481"/>
      <point x="34" y="2603" type="curve" smooth="yes"/>
      <point x="40" y="2633"/>
      <point x="47" y="2663"/>
      <point x="54" y="2694" type="curve" smooth="yes"/>
      <point x="57" y="2703"/>
      <point x="58" y="2721"/>
      <point x="65" y="2729" type="curve" smooth="yes"/>
      <point x="68" y="2733"/>
      <point x="76" y="2735"/>
      <point x="81" y="2736" type="curve" smooth="yes"/>
      <point x="92" y="2740"/>
      <point x="104" y="2744"/>
      <point x="116" y="2748" type="curve" smooth="yes"/>
      <point x="163" y="2764"/>
      <point x="211" y="2777"/>
      <point x="260" y="2787" type="curve" smooth="yes"/>
      <point x="428" y="2820"/>
      <point x="597" y="2820"/>
      <point x="769" y="2820" type="curve" smooth="yes"/>
      <point x="869" y="2820" type="line" smooth="yes"/>
      <point x="881" y="2820"/>
      <point x="900" y="2823"/>
      <point x="912" y="2819" type="curve" smooth="yes"/>
      <point x="919" y="2816"/>
      <point x="925" y="2807"/>
      <point x="931" y="2802" type="curve" smooth="yes"/>
      <point x="944" y="2788"/>
      <point x="964" y="2773"/>
      <point x="975" y="2757" type="curve" smooth="yes"/>
      <point x="981" y="2747"/>
      <point x="977" y="2724"/>
      <point x="977" y="2713" type="curve" smooth="yes"/>
      <point x="977" y="2597" type="line"/>
      <point x="977" y="2164" type="line"/>
      <point x="977" y="856" type="line"/>
      <point x="977" y="470" type="line"/>
      <point x="977" y="356" type="line" smooth="yes"/>
      <point x="977" y="342"/>
      <point x="981" y="320"/>
      <point x="976" y="307" type="curve" smooth="yes"/>
      <point x="974" y="300"/>
      <point x="966" y="295"/>
      <point x="962" y="291" type="curve" smooth="yes"/>
      <point x="929" y="258" type="line" smooth="yes"/>
      <point x="924" y="253"/>
      <point x="918" y="245"/>
      <point x="912" y="242" type="curve" smooth="yes"/>
      <point x="905" y="240"/>
      <point x="896" y="242"/>
      <point x="890" y="242" type="curve" smooth="yes"/>
      <point x="842" y="242" type="line"/>
      <point x="678" y="242" type="line"/>
    </contour>
    <contour>
      <point x="977" y="2757" type="move"/>
      <point x="1021" y="2801" type="line" smooth="yes"/>
      <point x="1026" y="2806"/>
      <point x="1033" y="2816"/>
      <point x="1041" y="2819" type="curve" smooth="yes"/>
      <point x="1045" y="2821"/>
      <point x="1052" y="2820"/>
      <point x="1058" y="2820" type="curve" smooth="yes"/>
      <point x="1094" y="2820" type="line"/>
      <point x="1215" y="2820" type="line" smooth="yes"/>
      <point x="1368" y="2820"/>
      <point x="1520" y="2820"/>
      <point x="1672" y="2790" type="curve" smooth="yes"/>
      <point x="1723" y="2780"/>
      <point x="1774" y="2768"/>
      <point x="1824" y="2751" type="curve" smooth="yes"/>
      <point x="1860" y="2739" type="line" smooth="yes"/>
      <point x="1864" y="2737"/>
      <point x="1872" y="2736"/>
      <point x="1875" y="2732" type="curve" smooth="yes"/>
      <point x="1881" y="2724"/>
      <point x="1883" y="2706"/>
      <point x="1885" y="2696" type="curve" smooth="yes"/>
      <point x="1893" y="2665"/>
      <point x="1900" y="2634"/>
      <point x="1906" y="2603" type="curve" smooth="yes"/>
      <point x="1928" y="2481"/>
      <point x="1938" y="2358"/>
      <point x="1938" y="2235" type="curve" smooth="yes"/>
    </contour>
    <contour>
      <point x="977" y="305" type="move"/>
      <point x="1021" y="261" type="line"/>
      <point x="1041" y="242" type="line"/>
      <point x="1063" y="242" type="line"/>
      <point x="1111" y="242" type="line"/>
      <point x="1275" y="242" type="line"/>
    </contour>
  </outline>
</glyph>
<glyph name="U" format="1">
  <advance width="2347"/>
  <unicode hex="0055"/>
  <outline>
    <contour>
      <point x="0" y="2820" type="move"/>
      <point x="581" y="2820" type="line"/>
      <point x="418" y="2820" type="line"/>
      <point x="370" y="2820" type="line"/>
      <point x="348" y="2819" type="line"/>
      <point x="328" y="2801" type="line"/>
      <point x="283" y="2756" type="line"/>
      <point x="238" y="2801" type="line"/>
      <point x="218" y="2819" type="line"/>
      <point x="198" y="2820" type="line"/>
      <point x="153" y="2820" type="line"/>
    </contour>
    <contour>
      <point x="1750" y="2820" type="move"/>
      <point x="1958" y="2820" type="line"/>
      <point x="2012" y="2820" type="line" smooth="yes"/>
      <point x="2018" y="2820"/>
      <point x="2028" y="2821"/>
      <point x="2034" y="2817" type="curve" smooth="yes"/>
      <point x="2040" y="2812"/>
      <point x="2053" y="2801"/>
      <point x="2056" y="2794" type="curve" smooth="yes"/>
      <point x="2061" y="2780"/>
      <point x="2057" y="2758"/>
      <point x="2057" y="2744" type="curve" smooth="yes"/>
      <point x="2057" y="2610" type="line"/>
      <point x="2057" y="2006" type="line"/>
      <point x="2057" y="1405" type="line" smooth="yes"/>
      <point x="2057" y="1301"/>
      <point x="2060" y="1196"/>
      <point x="2050" y="1093" type="curve" smooth="yes"/>
      <point x="2033" y="908"/>
      <point x="1978" y="724"/>
      <point x="1867" y="574" type="curve" smooth="yes"/>
      <point x="1789" y="467"/>
      <point x="1685" y="375"/>
      <point x="1565" y="320" type="curve" smooth="yes"/>
      <point x="1432" y="259"/>
      <point x="1286" y="237"/>
      <point x="1141" y="243" type="curve" smooth="yes"/>
      <point x="1069" y="247"/>
      <point x="998" y="253"/>
      <point x="928" y="269" type="curve" smooth="yes"/>
      <point x="793" y="300"/>
      <point x="668" y="362"/>
      <point x="564" y="452" type="curve" smooth="yes"/>
      <point x="475" y="528"/>
      <point x="408" y="627"/>
      <point x="364" y="735" type="curve" smooth="yes"/>
      <point x="349" y="772"/>
      <point x="339" y="811"/>
      <point x="326" y="850" type="curve" smooth="yes"/>
      <point x="319" y="873"/>
      <point x="315" y="898"/>
      <point x="310" y="923" type="curve" smooth="yes"/>
      <point x="296" y="991"/>
      <point x="292" y="1060"/>
      <point x="287" y="1130" type="curve" smooth="yes"/>
      <point x="277" y="1283"/>
      <point x="283" y="1438"/>
      <point x="283" y="1592" type="curve" smooth="yes"/>
      <point x="283" y="2756" type="line"/>
    </contour>
    <contour>
      <point x="2057" y="2796" type="move"/>
      <point x="2081" y="2818" type="line"/>
      <point x="2104" y="2820" type="line"/>
      <point x="2158" y="2820" type="line"/>
      <point x="2347" y="2820" type="line"/>
    </contour>
  </outline>
</glyph>
<glyph name="bracketleft" format="1">
  <advance width="680"/>
  <unicode hex="005B"/>
  <outline>
    <contour>
      <point x="680" y="-164" type="move"/>
      <point x="173" y="-164" type="line"/>
      <point x="48" y="-164" type="line" smooth="yes"/>
      <point x="36" y="-164"/>
      <point x="11" y="-168"/>
      <point x="3" y="-158" type="curve" smooth="yes"/>
      <point x="-0" y="-154"/>
      <point x="0" y="-148"/>
      <point x="0" y="-143" type="curve" smooth="yes"/>
      <point x="0" y="-108" type="line"/>
      <point x="0" y="34" type="line"/>
      <point x="0" y="594" type="line"/>
      <point x="0" y="2550" type="line"/>
      <point x="0" y="3057" type="line"/>
      <point x="0" y="3188" type="line"/>
      <point x="0" y="3221" type="line" smooth="yes"/>
      <point x="0" y="3226"/>
      <point x="-0" y="3231"/>
      <point x="2" y="3235" type="curve" smooth="yes"/>
      <point x="10" y="3246"/>
      <point x="33" y="3242"/>
      <point x="46" y="3242" type="curve" smooth="yes"/>
      <point x="170" y="3242" type="line"/>
      <point x="680" y="3242" type="line"/>
    </contour>
  </outline>
</glyph>
<glyph name="backslash" format="1">
  <advance width="1753"/>
  <unicode hex="005C"/>
  <outline>
    <contour>
      <point x="0" y="2820" type="move"/>
      <point x="137" y="2820" type="line" smooth="yes"/>
      <point x="157" y="2820"/>
      <point x="182" y="2823"/>
      <point x="202" y="2819" type="curve" smooth="yes"/>
      <point x="213" y="2817"/>
      <point x="224" y="2808"/>
      <point x="235" y="2802" type="curve" smooth="yes"/>
      <point x="251" y="2794"/>
      <point x="267" y="2785"/>
      <point x="283" y="2776" type="curve" smooth="yes"/>
      <point x="289" y="2773"/>
      <point x="298" y="2770"/>
      <point x="304" y="2765" type="curve" smooth="yes"/>
      <point x="308" y="2762"/>
      <point x="307" y="2756"/>
      <point x="308" y="2752" type="curve" smooth="yes"/>
      <point x="310" y="2741"/>
      <point x="312" y="2730"/>
      <point x="314" y="2720" type="curve" smooth="yes"/>
      <point x="316" y="2708"/>
      <point x="317" y="2696"/>
      <point x="320" y="2685" type="curve" smooth="yes"/>
      <point x="326" y="2663"/>
      <point x="338" y="2643"/>
      <point x="347" y="2623" type="curve" smooth="yes"/>
      <point x="404" y="2488"/>
      <point x="461" y="2354"/>
      <point x="518" y="2221" type="curve" smooth="yes"/>
      <point x="539" y="2172"/>
      <point x="560" y="2123"/>
      <point x="580" y="2075" type="curve" smooth="yes"/>
      <point x="593" y="2044"/>
      <point x="610" y="2013"/>
      <point x="615" y="1981" type="curve" smooth="yes"/>
      <point x="618" y="1962"/>
      <point x="622" y="1945"/>
      <point x="625" y="1927" type="curve" smooth="yes"/>
      <point x="626" y="1921"/>
      <point x="629" y="1912"/>
      <point x="626" y="1907" type="curve" smooth="yes"/>
      <point x="618" y="1894"/>
      <point x="603" y="1883"/>
      <point x="593" y="1873" type="curve" smooth="yes"/>
      <point x="588" y="1868"/>
      <point x="583" y="1861"/>
      <point x="578" y="1859" type="curve" smooth="yes"/>
      <point x="570" y="1856"/>
      <point x="557" y="1859"/>
      <point x="549" y="1859" type="curve" smooth="yes"/>
      <point x="485" y="1859" type="line"/>
      <point x="196" y="1859" type="line"/>
    </contour>
    <contour>
      <point x="307" y="2765" type="move"/>
      <point x="345" y="2803" type="line"/>
      <point x="363" y="2819" type="line"/>
      <point x="383" y="2820" type="line"/>
      <point x="428" y="2820" type="line"/>
      <point x="581" y="2820" type="line"/>
    </contour>
    <contour>
      <point x="1297" y="2820" type="move"/>
      <point x="1753" y="2820" type="line"/>
      <point x="1607" y="2820" type="line" smooth="yes"/>
      <point x="1589" y="2820"/>
      <point x="1568" y="2823"/>
      <point x="1551" y="2819" type="curve" smooth="yes"/>
      <point x="1540" y="2817"/>
      <point x="1526" y="2808"/>
      <point x="1518" y="2802" type="curve"/>
      <point x="1499" y="2819" type="line"/>
      <point x="1481" y="2820" type="line"/>
      <point x="1442" y="2820" type="line"/>
    </contour>
    <contour>
      <point x="1518" y="2801" type="move" smooth="yes"/>
      <point x="1509" y="2775"/>
      <point x="1511" y="2746"/>
      <point x="1502" y="2721" type="curve" smooth="yes"/>
      <point x="1492" y="2691"/>
      <point x="1478" y="2663"/>
      <point x="1466" y="2635" type="curve" smooth="yes"/>
      <point x="1441" y="2576"/>
      <point x="1417" y="2518"/>
      <point x="1392" y="2460" type="curve" smooth="yes"/>
      <point x="1335" y="2325"/>
      <point x="1280" y="2191"/>
      <point x="1223" y="2057" type="curve" smooth="yes"/>
      <point x="1214" y="2035"/>
      <point x="1205" y="2013"/>
      <point x="1196" y="1992" type="curve" smooth="yes"/>
      <point x="1191" y="1980"/>
      <point x="1185" y="1969"/>
      <point x="1182" y="1957" type="curve" smooth="yes"/>
      <point x="1177" y="1937"/>
      <point x="1175" y="1916"/>
      <point x="1171" y="1896" type="curve" smooth="yes"/>
      <point x="1170" y="1887"/>
      <point x="1170" y="1875"/>
      <point x="1166" y="1868" type="curve" smooth="yes"/>
      <point x="1156" y="1848"/>
      <point x="1124" y="1869"/>
      <point x="1115" y="1850" type="curve" smooth="yes"/>
      <point x="1112" y="1843"/>
      <point x="1111" y="1832"/>
      <point x="1110" y="1825" type="curve" smooth="yes"/>
      <point x="1107" y="1804"/>
      <point x="1105" y="1781"/>
      <point x="1099" y="1762" type="curve" smooth="yes"/>
      <point x="1092" y="1740"/>
      <point x="1081" y="1720"/>
      <point x="1073" y="1700" type="curve" smooth="yes"/>
      <point x="1056" y="1659"/>
      <point x="1039" y="1619"/>
      <point x="1022" y="1579" type="curve" smooth="yes"/>
      <point x="1013" y="1558"/>
      <point x="1004" y="1537"/>
      <point x="996" y="1516" type="curve" smooth="yes"/>
      <point x="991" y="1505"/>
      <point x="988" y="1491"/>
      <point x="981" y="1482" type="curve" smooth="yes"/>
      <point x="973" y="1472"/>
      <point x="954" y="1466"/>
      <point x="944" y="1460" type="curve" smooth="yes"/>
      <point x="929" y="1453"/>
      <point x="913" y="1446"/>
      <point x="901" y="1437" type="curve" smooth="yes"/>
      <point x="892" y="1431"/>
      <point x="884" y="1421"/>
      <point x="877" y="1414" type="curve"/>
      <point x="869" y="1421"/>
      <point x="859" y="1429"/>
      <point x="852" y="1439" type="curve" smooth="yes"/>
      <point x="845" y="1449"/>
      <point x="841" y="1464"/>
      <point x="836" y="1476" type="curve" smooth="yes"/>
      <point x="828" y="1497"/>
      <point x="819" y="1518"/>
      <point x="810" y="1539" type="curve" smooth="yes"/>
      <point x="759" y="1658" type="line" smooth="yes"/>
      <point x="750" y="1677"/>
      <point x="739" y="1697"/>
      <point x="733" y="1718" type="curve" smooth="yes"/>
      <point x="727" y="1739"/>
      <point x="725" y="1762"/>
      <point x="721" y="1784" type="curve" smooth="yes"/>
      <point x="720" y="1791"/>
      <point x="720" y="1802"/>
      <point x="716" y="1808" type="curve" smooth="yes"/>
      <point x="710" y="1818"/>
      <point x="693" y="1818"/>
      <point x="686" y="1828" type="curve" smooth="yes"/>
      <point x="673" y="1845"/>
      <point x="672" y="1872"/>
      <point x="659" y="1889" type="curve" smooth="yes"/>
      <point x="653" y="1898"/>
      <point x="637" y="1902"/>
      <point x="629" y="1908" type="curve" smooth="yes"/>
    </contour>
    <contour>
      <point x="1542" y="1859" type="move"/>
      <point x="1265" y="1859" type="line"/>
      <point x="1198" y="1859" type="line" smooth="yes"/>
      <point x="1185" y="1859"/>
      <point x="1176" y="1857"/>
      <point x="1167" y="1866" type="curve" smooth="yes"/>
    </contour>
    <contour>
      <point x="717" y="1810" type="move"/>
      <point x="1115" y="1853" type="line"/>
      <point x="1106" y="1861"/>
      <point x="1095" y="1859"/>
      <point x="1084" y="1859" type="curve" smooth="yes"/>
      <point x="1011" y="1859" type="line"/>
      <point x="840" y="1859" type="line"/>
      <point x="790" y="1859" type="line" smooth="yes"/>
      <point x="783" y="1859"/>
      <point x="773" y="1860"/>
      <point x="767" y="1858" type="curve" smooth="yes"/>
      <point x="760" y="1856"/>
      <point x="755" y="1848"/>
      <point x="751" y="1844" type="curve" smooth="yes"/>
    </contour>
    <contour>
      <point x="877" y="1414" type="move"/>
      <point x="877" y="594" type="line"/>
      <point x="877" y="381" type="line"/>
      <point x="877" y="326" type="line" smooth="yes"/>
      <point x="877" y="319"/>
      <point x="878" y="309"/>
      <point x="874" y="304" type="curve" smooth="yes"/>
      <point x="862" y="287"/>
      <point x="845" y="274"/>
      <point x="831" y="260" type="curve" smooth="yes"/>
      <point x="825" y="254"/>
      <point x="819" y="245"/>
      <point x="812" y="242" type="curve" smooth="yes"/>
      <point x="805" y="240"/>
      <point x="796" y="242"/>
      <point x="790" y="242" type="curve" smooth="yes"/>
      <point x="742" y="242" type="line"/>
      <point x="578" y="242" type="line"/>
    </contour>
    <contour>
      <point x="196" y="1140" type="move"/>
      <point x="1541" y="1140" type="line"/>
    </contour>
    <contour>
      <point x="877" y="305" type="move"/>
      <point x="921" y="261" type="line"/>
      <point x="941" y="242" type="line"/>
      <point x="963" y="242" type="line"/>
      <point x="1011" y="242" type="line"/>
      <point x="1175" y="242" type="line"/>
    </contour>
  </outline>
</glyph>
<glyph name="bracketright" format="1">
  <advance width="673"/>
  <unicode hex="005D"/>
  <outline>
    <contour>
      <point x="0" y="3242" type="move"/>
      <point x="507" y="3242" type="line"/>
      <point x="631" y="3242" type="line"/>
      <point x="661" y="3242" type="line"/>
      <point x="671" y="3240" type="line"/>
      <point x="673" y="3228" type="line"/>
      <point x="673" y="3194" type="line"/>
      <point x="673" y="3063" type="line"/>
      <point x="673" y="2555" type="line"/>
      <point x="673" y="589" type="line"/>
      <point x="673" y="32" type="line"/>
      <point x="673" y="-112" type="line"/>
      <point x="673" y="-149" type="line"/>
      <point x="671" y="-162" type="line"/>
      <point x="661" y="-164" type="line"/>
      <point x="631" y="-164" type="line"/>
      <point x="507" y="-164" type="line"/>
      <point x="0" y="-164" type="line"/>
    </contour>
  </outline>
</glyph>
<glyph name="asciicircum" format="1">
  <advance width="991"/>
  <unicode hex="005E"/>
  <outline>
    <contour>
      <point x="0" y="2904" type="move" smooth="yes"/>
      <point x="26" y="2939"/>
      <point x="57" y="2971"/>
      <point x="85" y="3005" type="curve" smooth="yes"/>
      <point x="146" y="3075"/>
      <point x="206" y="3146"/>
      <point x="266" y="3217" type="curve" smooth="yes"/>
      <point x="295" y="3250"/>
      <point x="322" y="3284"/>
      <point x="352" y="3317" type="curve" smooth="yes"/>
      <point x="362" y="3328"/>
      <point x="372" y="3348"/>
      <point x="386" y="3355" type="curve" smooth="yes"/>
      <point x="400" y="3363"/>
      <point x="424" y="3359"/>
      <point x="441" y="3359" type="curve" smooth="yes"/>
      <point x="537" y="3359" type="line" smooth="yes"/>
      <point x="558" y="3359"/>
      <point x="578" y="3361"/>
      <point x="598" y="3351" type="curve" smooth="yes"/>
      <point x="610" y="3345"/>
      <point x="619" y="3329"/>
      <point x="629" y="3319" type="curve" smooth="yes"/>
      <point x="656" y="3290"/>
      <point x="681" y="3258"/>
      <point x="707" y="3229" type="curve" smooth="yes"/>
      <point x="775" y="3152"/>
      <point x="842" y="3074"/>
      <point x="909" y="2997" type="curve" smooth="yes"/>
      <point x="936" y="2966"/>
      <point x="962" y="2933"/>
      <point x="991" y="2904" type="curve" smooth="yes"/>
    </contour>
  </outline>
</glyph>
<glyph name="underscore" format="1">
  <advance width="1063"/>
  <unicode hex="005F"/>
  <outline>
    <contour>
      <point x="0" y="-274" type="move"/>
      <point x="1063" y="-274" type="line"/>
    </contour>
  </outline>
</glyph>
<glyph name="a" format="1">
  <advance width="1384"/>
  <unicode hex="0061"/>
  <outline>
    <contour>
      <point x="44" y="1475" type="move" smooth="yes"/>
      <point x="72" y="1510"/>
      <point x="100" y="1549"/>
      <point x="120" y="1590" type="curve" smooth="yes"/>
      <point x="136" y="1624"/>
      <point x="144" y="1660"/>
      <point x="166" y="1693" type="curve" smooth="yes"/>
      <point x="192" y="1730"/>
      <point x="228" y="1760"/>
      <point x="266" y="1784" type="curve" smooth="yes"/>
      <point x="333" y="1825"/>
      <point x="409" y="1860"/>
      <point x="487" y="1871" type="curve" smooth="yes"/>
      <point x="545" y="1878"/>
      <point x="605" y="1874"/>
      <point x="662" y="1870" type="curve" smooth="yes"/>
      <point x="702" y="1867"/>
      <point x="741" y="1860"/>
      <point x="778" y="1846" type="curve" smooth="yes"/>
      <point x="808" y="1834"/>
      <point x="836" y="1818"/>
      <point x="861" y="1799" type="curve" smooth="yes"/>
      <point x="884" y="1782"/>
      <point x="906" y="1763"/>
      <point x="923" y="1740" type="curve" smooth="yes"/>
      <point x="981" y="1664"/>
      <point x="996" y="1563"/>
      <point x="1002" y="1471" type="curve" smooth="yes"/>
      <point x="1005" y="1432"/>
      <point x="1008" y="1394"/>
      <point x="1008" y="1356" type="curve" smooth="yes"/>
      <point x="1008" y="1272" type="line" smooth="yes"/>
      <point x="1009" y="1220"/>
      <point x="1008" y="1167"/>
      <point x="1008" y="1116" type="curve" smooth="yes"/>
      <point x="1008" y="930" type="line"/>
      <point x="1008" y="609" type="line"/>
      <point x="1008" y="520" type="line" smooth="yes"/>
      <point x="1008" y="510"/>
      <point x="1012" y="492"/>
      <point x="1007" y="483" type="curve" smooth="yes"/>
      <point x="1003" y="474"/>
      <point x="986" y="457"/>
      <point x="977" y="453" type="curve" smooth="yes"/>
      <point x="972" y="450"/>
      <point x="965" y="451"/>
      <point x="959" y="450" type="curve" smooth="yes"/>
      <point x="937" y="442"/>
      <point x="913" y="435"/>
      <point x="890" y="429" type="curve" smooth="yes"/>
      <point x="881" y="426"/>
      <point x="868" y="425"/>
      <point x="859" y="419" type="curve" smooth="yes"/>
      <point x="842" y="407"/>
      <point x="828" y="390"/>
      <point x="811" y="378" type="curve" smooth="yes"/>
      <point x="779" y="352"/>
      <point x="743" y="329"/>
      <point x="706" y="311" type="curve" smooth="yes"/>
      <point x="599" y="257"/>
      <point x="484" y="250"/>
      <point x="366" y="250" type="curve" smooth="yes"/>
      <point x="291" y="250"/>
      <point x="212" y="255"/>
      <point x="145" y="295" type="curve" smooth="yes"/>
      <point x="75" y="337"/>
      <point x="37" y="413"/>
      <point x="18" y="491" type="curve" smooth="yes"/>
      <point x="11" y="524"/>
      <point x="0" y="562"/>
      <point x="0" y="597" type="curve" smooth="yes"/>
      <point x="0" y="617"/>
      <point x="4" y="638"/>
      <point x="6" y="659" type="curve" smooth="yes"/>
      <point x="18" y="757"/>
      <point x="51" y="848"/>
      <point x="112" y="928" type="curve" smooth="yes"/>
      <point x="177" y="1010"/>
      <point x="269" y="1065"/>
      <point x="361" y="1111" type="curve" smooth="yes"/>
      <point x="465" y="1163"/>
      <point x="576" y="1203"/>
      <point x="688" y="1231" type="curve" smooth="yes"/>
      <point x="741" y="1244"/>
      <point x="794" y="1259"/>
      <point x="848" y="1265" type="curve" smooth="yes"/>
      <point x="901" y="1272"/>
      <point x="955" y="1273"/>
      <point x="1007" y="1273" type="curve" smooth="yes"/>
    </contour>
    <contour>
      <point x="1383" y="505" type="move" smooth="yes"/>
      <point x="1376" y="487"/>
      <point x="1371" y="468"/>
      <point x="1364" y="451" type="curve" smooth="yes"/>
      <point x="1344" y="396"/>
      <point x="1316" y="331"/>
      <point x="1268" y="294" type="curve" smooth="yes"/>
      <point x="1249" y="280"/>
      <point x="1225" y="276"/>
      <point x="1202" y="271" type="curve" smooth="yes"/>
      <point x="1184" y="266"/>
      <point x="1165" y="263"/>
      <point x="1146" y="260" type="curve" smooth="yes"/>
      <point x="1138" y="259"/>
      <point x="1128" y="256"/>
      <point x="1119" y="258" type="curve" smooth="yes"/>
      <point x="1090" y="263"/>
      <point x="1062" y="281"/>
      <point x="1047" y="307" type="curve" smooth="yes"/>
      <point x="1034" y="328"/>
      <point x="1028" y="355"/>
      <point x="1023" y="380" type="curve" smooth="yes"/>
      <point x="1015" y="413"/>
      <point x="1009" y="446"/>
      <point x="1009" y="481" type="curve" smooth="yes"/>
    </contour>
  </outline>
</glyph>
<glyph name="b" format="1">
  <advance width="1520"/>
  <unicode hex="0062"/>
  <outline>
    <contour>
      <point x="266" y="1710" type="move" smooth="yes"/>
      <point x="281" y="1710"/>
      <point x="297" y="1708"/>
      <point x="313" y="1710" type="curve" smooth="yes"/>
      <point x="333" y="1712"/>
      <point x="353" y="1718"/>
      <point x="374" y="1722" type="curve" smooth="yes"/>
      <point x="387" y="1724"/>
      <point x="402" y="1725"/>
      <point x="416" y="1730" type="curve" smooth="yes"/>
      <point x="439" y="1739"/>
      <point x="462" y="1754"/>
      <point x="485" y="1766" type="curve" smooth="yes"/>
      <point x="525" y="1786"/>
      <point x="568" y="1803"/>
      <point x="612" y="1817" type="curve" smooth="yes"/>
      <point x="764" y="1866"/>
      <point x="941" y="1886"/>
      <point x="1096" y="1832" type="curve" smooth="yes"/>
      <point x="1162" y="1809"/>
      <point x="1224" y="1771"/>
      <point x="1277" y="1725" type="curve" smooth="yes"/>
      <point x="1435" y="1587"/>
      <point x="1493" y="1383"/>
      <point x="1513" y="1182" type="curve" smooth="yes"/>
      <point x="1521" y="1097"/>
      <point x="1522" y="1014"/>
      <point x="1514" y="930" type="curve" smooth="yes"/>
      <point x="1507" y="862"/>
      <point x="1498" y="796"/>
      <point x="1480" y="731" type="curve" smooth="yes"/>
      <point x="1450" y="619"/>
      <point x="1397" y="515"/>
      <point x="1315" y="433" type="curve" smooth="yes"/>
      <point x="1246" y="362"/>
      <point x="1159" y="309"/>
      <point x="1065" y="280" type="curve" smooth="yes"/>
      <point x="976" y="252"/>
      <point x="883" y="247"/>
      <point x="792" y="253" type="curve" smooth="yes"/>
      <point x="720" y="258"/>
      <point x="650" y="270"/>
      <point x="582" y="292" type="curve" smooth="yes"/>
      <point x="543" y="304"/>
      <point x="506" y="318"/>
      <point x="470" y="335" type="curve" smooth="yes"/>
      <point x="449" y="344"/>
      <point x="428" y="358"/>
      <point x="407" y="366" type="curve" smooth="yes"/>
      <point x="382" y="375"/>
      <point x="352" y="372"/>
      <point x="328" y="382" type="curve" smooth="yes"/>
      <point x="320" y="384"/>
      <point x="315" y="392"/>
      <point x="310" y="398" type="curve" smooth="yes"/>
      <point x="280" y="428" type="line" smooth="yes"/>
      <point x="275" y="432"/>
      <point x="268" y="437"/>
      <point x="266" y="443" type="curve" smooth="yes"/>
      <point x="261" y="452"/>
      <point x="265" y="473"/>
      <point x="265" y="484" type="curve" smooth="yes"/>
      <point x="265" y="586" type="line"/>
      <point x="265" y="950" type="line"/>
      <point x="265" y="2254" type="line"/>
      <point x="265" y="2692" type="line"/>
      <point x="265" y="2794" type="line" smooth="yes"/>
      <point x="265" y="2804"/>
      <point x="268" y="2820"/>
      <point x="264" y="2831" type="curve" smooth="yes"/>
      <point x="262" y="2836"/>
      <point x="256" y="2841"/>
      <point x="252" y="2844" type="curve" smooth="yes"/>
      <point x="246" y="2850"/>
      <point x="239" y="2847"/>
      <point x="232" y="2846" type="curve" smooth="yes"/>
      <point x="217" y="2843"/>
      <point x="202" y="2840"/>
      <point x="188" y="2838" type="curve" smooth="yes"/>
      <point x="146" y="2831"/>
      <point x="105" y="2823"/>
      <point x="64" y="2815" type="curve" smooth="yes"/>
      <point x="43" y="2811"/>
      <point x="21" y="2804"/>
      <point x="0" y="2804" type="curve" smooth="yes"/>
    </contour>
    <contour>
      <point x="264" y="442" type="move"/>
      <point x="220" y="299" type="line"/>
      <point x="205" y="248" type="line"/>
    </contour>
  </outline>
</glyph>
<glyph name="c" format="1">
  <advance width="1393"/>
  <unicode hex="0063"/>
  <outline>
    <contour>
      <point x="1393" y="666" type="move" smooth="yes"/>
      <point x="1335" y="556"/>
      <point x="1247" y="457"/>
      <point x="1142" y="392" type="curve" smooth="yes"/>
      <point x="1037" y="328"/>
      <point x="918" y="294"/>
      <point x="797" y="281" type="curve" smooth="yes"/>
      <point x="746" y="276"/>
      <point x="696" y="273"/>
      <point x="646" y="276" type="curve" smooth="yes"/>
      <point x="604" y="279"/>
      <point x="562" y="282"/>
      <point x="522" y="291" type="curve" smooth="yes"/>
      <point x="417" y="314"/>
      <point x="314" y="362"/>
      <point x="238" y="438" type="curve" smooth="yes"/>
      <point x="197" y="478"/>
      <point x="161" y="522"/>
      <point x="130" y="571" type="curve" smooth="yes"/>
      <point x="52" y="695"/>
      <point x="15" y="844"/>
      <point x="5" y="990" type="curve" smooth="yes"/>
      <point x="3" y="1023"/>
      <point x="-0" y="1056"/>
      <point x="0" y="1090" type="curve" smooth="yes"/>
      <point x="0" y="1114"/>
      <point x="3" y="1139"/>
      <point x="5" y="1164" type="curve" smooth="yes"/>
      <point x="14" y="1253"/>
      <point x="29" y="1339"/>
      <point x="59" y="1424" type="curve" smooth="yes"/>
      <point x="114" y="1576"/>
      <point x="221" y="1718"/>
      <point x="365" y="1797" type="curve" smooth="yes"/>
      <point x="471" y="1856"/>
      <point x="601" y="1879"/>
      <point x="722" y="1871" type="curve" smooth="yes"/>
      <point x="778" y="1867"/>
      <point x="834" y="1862"/>
      <point x="888" y="1844" type="curve" smooth="yes"/>
      <point x="972" y="1814"/>
      <point x="1052" y="1771"/>
      <point x="1121" y="1713" type="curve" smooth="yes"/>
      <point x="1154" y="1685"/>
      <point x="1188" y="1652"/>
      <point x="1209" y="1614" type="curve" smooth="yes"/>
      <point x="1220" y="1593"/>
      <point x="1224" y="1564"/>
      <point x="1230" y="1542" type="curve" smooth="yes"/>
      <point x="1236" y="1519"/>
      <point x="1241" y="1496"/>
      <point x="1245" y="1474" type="curve" smooth="yes"/>
      <point x="1247" y="1463"/>
      <point x="1251" y="1451"/>
      <point x="1250" y="1441" type="curve" smooth="yes"/>
      <point x="1248" y="1424"/>
      <point x="1238" y="1410"/>
      <point x="1229" y="1397" type="curve" smooth="yes"/>
    </contour>
  </outline>
</glyph>
<glyph name="e" format="1">
  <advance width="1352"/>
  <unicode hex="0065"/>
  <outline>
    <contour>
      <point x="16" y="1261" type="move" smooth="yes"/>
      <point x="20" y="1292"/>
      <point x="22" y="1324"/>
      <point x="28" y="1356" type="curve" smooth="yes"/>
      <point x="48" y="1465"/>
      <point x="94" y="1574"/>
      <point x="164" y="1661" type="curve" smooth="yes"/>
      <point x="224" y="1734"/>
      <point x="302" y="1797"/>
      <point x="389" y="1834" type="curve" smooth="yes"/>
      <point x="471" y="1868"/>
      <point x="562" y="1877"/>
      <point x="650" y="1869" type="curve" smooth="yes"/>
      <point x="694" y="1864"/>
      <point x="738" y="1857"/>
      <point x="780" y="1842" type="curve" smooth="yes"/>
      <point x="850" y="1817"/>
      <point x="913" y="1775"/>
      <point x="968" y="1725" type="curve" smooth="yes"/>
      <point x="1067" y="1635"/>
      <point x="1139" y="1510"/>
      <point x="1170" y="1380" type="curve" smooth="yes"/>
      <point x="1177" y="1352"/>
      <point x="1181" y="1324"/>
      <point x="1185" y="1296" type="curve" smooth="yes"/>
      <point x="1186" y="1287"/>
      <point x="1191" y="1273"/>
      <point x="1188" y="1265" type="curve" smooth="yes"/>
      <point x="1185" y="1256"/>
      <point x="1174" y="1249"/>
      <point x="1168" y="1243" type="curve" smooth="yes"/>
      <point x="1131" y="1206" type="line" smooth="yes"/>
      <point x="1125" y="1200"/>
      <point x="1119" y="1192"/>
      <point x="1112" y="1187" type="curve" smooth="yes"/>
      <point x="1108" y="1185"/>
      <point x="1102" y="1186"/>
      <point x="1098" y="1186" type="curve" smooth="yes"/>
      <point x="1067" y="1186" type="line"/>
      <point x="950" y="1186" type="line"/>
      <point x="513" y="1186" type="line"/>
      <point x="217" y="1186" type="line"/>
      <point x="130" y="1186" type="line" smooth="yes"/>
      <point x="119" y="1186"/>
      <point x="102" y="1182"/>
      <point x="92" y="1186" type="curve" smooth="yes"/>
      <point x="83" y="1189"/>
      <point x="75" y="1201"/>
      <point x="69" y="1208" type="curve" smooth="yes"/>
      <point x="16" y="1261" type="line"/>
      <point x="11" y="1255"/>
      <point x="11" y="1249"/>
      <point x="10" y="1243" type="curve" smooth="yes"/>
      <point x="7" y="1204" type="line" smooth="yes"/>
      <point x="3" y="1154"/>
      <point x="-1" y="1106"/>
      <point x="0" y="1057" type="curve" smooth="yes"/>
      <point x="5" y="853"/>
      <point x="30" y="619"/>
      <point x="175" y="463" type="curve" smooth="yes"/>
      <point x="329" y="298"/>
      <point x="578" y="254"/>
      <point x="793" y="283" type="curve" smooth="yes"/>
      <point x="852" y="291"/>
      <point x="910" y="303"/>
      <point x="967" y="324" type="curve" smooth="yes"/>
      <point x="1028" y="347"/>
      <point x="1087" y="374"/>
      <point x="1140" y="412" type="curve" smooth="yes"/>
      <point x="1231" y="478"/>
      <point x="1304" y="574"/>
      <point x="1352" y="676" type="curve" smooth="yes"/>
    </contour>
  </outline>
</glyph>
<glyph name="g" format="1">
  <advance width="1238"/>
  <unicode hex="0067"/>
  <outline>
    <contour>
      <point x="1206" y="506" type="move" smooth="yes"/>
      <point x="1190" y="506"/>
      <point x="1174" y="507"/>
      <point x="1159" y="505" type="curve" smooth="yes"/>
      <point x="1139" y="503"/>
      <point x="1119" y="496"/>
      <point x="1099" y="492" type="curve" smooth="yes"/>
      <point x="1086" y="489"/>
      <point x="1071" y="488"/>
      <point x="1058" y="483" type="curve" smooth="yes"/>
      <point x="1034" y="474"/>
      <point x="1010" y="457"/>
      <point x="988" y="446" type="curve" smooth="yes"/>
      <point x="950" y="426"/>
      <point x="909" y="409"/>
      <point x="869" y="395" type="curve" smooth="yes"/>
      <point x="757" y="355"/>
      <point x="636" y="336"/>
      <point x="518" y="347" type="curve" smooth="yes"/>
      <point x="409" y="358"/>
      <point x="305" y="389"/>
      <point x="219" y="459" type="curve" smooth="yes"/>
      <point x="114" y="545"/>
      <point x="55" y="678"/>
      <point x="28" y="809" type="curve" smooth="yes"/>
      <point x="16" y="871"/>
      <point x="7" y="934"/>
      <point x="3" y="998" type="curve" smooth="yes"/>
      <point x="-2" y="1089"/>
      <point x="0" y="1178"/>
      <point x="9" y="1270" type="curve" smooth="yes"/>
      <point x="27" y="1453"/>
      <point x="86" y="1636"/>
      <point x="229" y="1761" type="curve" smooth="yes"/>
      <point x="256" y="1785"/>
      <point x="286" y="1804"/>
      <point x="317" y="1822" type="curve" smooth="yes"/>
      <point x="356" y="1844"/>
      <point x="401" y="1858"/>
      <point x="446" y="1866" type="curve" smooth="yes"/>
      <point x="493" y="1875"/>
      <point x="541" y="1874"/>
      <point x="589" y="1872" type="curve" smooth="yes"/>
      <point x="689" y="1867"/>
      <point x="784" y="1846"/>
      <point x="876" y="1805" type="curve" smooth="yes"/>
      <point x="939" y="1777"/>
      <point x="995" y="1739"/>
      <point x="1054" y="1702" type="curve" smooth="yes"/>
      <point x="1064" y="1696"/>
      <point x="1077" y="1695"/>
      <point x="1088" y="1692" type="curve" smooth="yes"/>
      <point x="1143" y="1677" type="line" smooth="yes"/>
      <point x="1151" y="1675"/>
      <point x="1161" y="1674"/>
      <point x="1169" y="1670" type="curve" smooth="yes"/>
      <point x="1180" y="1663"/>
      <point x="1198" y="1645"/>
      <point x="1205" y="1634" type="curve" smooth="yes"/>
      <point x="1210" y="1626"/>
      <point x="1207" y="1608"/>
      <point x="1207" y="1600" type="curve" smooth="yes"/>
      <point x="1207" y="1513" type="line"/>
      <point x="1207" y="1189" type="line"/>
      <point x="1207" y="671" type="line" smooth="yes"/>
      <point x="1207" y="556"/>
      <point x="1210" y="440"/>
      <point x="1202" y="326" type="curve" smooth="yes"/>
      <point x="1199" y="277"/>
      <point x="1197" y="229"/>
      <point x="1190" y="182" type="curve" smooth="yes"/>
      <point x="1174" y="75"/>
      <point x="1140" y="-27"/>
      <point x="1074" y="-114" type="curve" smooth="yes"/>
      <point x="1055" y="-140"/>
      <point x="1031" y="-163"/>
      <point x="1007" y="-184" type="curve" smooth="yes"/>
      <point x="907" y="-271"/>
      <point x="775" y="-308"/>
      <point x="646" y="-317" type="curve" smooth="yes"/>
      <point x="515" y="-326"/>
      <point x="382" y="-312"/>
      <point x="259" y="-263" type="curve" smooth="yes"/>
      <point x="213" y="-244"/>
      <point x="167" y="-221"/>
      <point x="127" y="-191" type="curve" smooth="yes"/>
      <point x="114" y="-181"/>
      <point x="97" y="-172"/>
      <point x="88" y="-158" type="curve" smooth="yes"/>
      <point x="82" y="-150"/>
      <point x="79" y="-137"/>
      <point x="76" y="-128" type="curve" smooth="yes"/>
      <point x="69" y="-108"/>
      <point x="63" y="-88"/>
      <point x="57" y="-68" type="curve" smooth="yes"/>
      <point x="49" y="-40"/>
      <point x="30" y="1"/>
      <point x="49" y="27" type="curve" smooth="yes"/>
    </contour>
    <contour>
      <point x="1238" y="1866" type="move" smooth="yes"/>
      <point x="1224" y="1790"/>
      <point x="1217" y="1711"/>
      <point x="1207" y="1635" type="curve" smooth="yes"/>
    </contour>
  </outline>
</glyph>
<glyph name="h" format="1">
  <advance width="1721"/>
  <unicode hex="0068"/>
  <outline>
    <contour>
      <point x="33" y="2805" type="move" smooth="yes"/>
      <point x="55" y="2805"/>
      <point x="78" y="2812"/>
      <point x="101" y="2816" type="curve" smooth="yes"/>
      <point x="138" y="2823"/>
      <point x="177" y="2829"/>
      <point x="215" y="2836" type="curve" smooth="yes"/>
      <point x="230" y="2839"/>
      <point x="246" y="2842"/>
      <point x="262" y="2844" type="curve" smooth="yes"/>
      <point x="267" y="2845"/>
      <point x="275" y="2848"/>
      <point x="280" y="2845" type="curve" smooth="yes"/>
      <point x="285" y="2841"/>
      <point x="295" y="2833"/>
      <point x="297" y="2827" type="curve" smooth="yes"/>
      <point x="299" y="2820"/>
      <point x="298" y="2811"/>
      <point x="298" y="2805" type="curve" smooth="yes"/>
      <point x="298" y="2757" type="line"/>
      <point x="298" y="2511" type="line"/>
      <point x="298" y="1817" type="line"/>
      <point x="298" y="1605" type="line"/>
      <point x="298" y="1540" type="line" smooth="yes"/>
      <point x="298" y="1529"/>
      <point x="296" y="1517"/>
      <point x="299" y="1508" type="curve"/>
      <point x="311" y="1520"/>
      <point x="324" y="1539"/>
      <point x="340" y="1547" type="curve" smooth="yes"/>
      <point x="361" y="1558"/>
      <point x="387" y="1565"/>
      <point x="410" y="1573" type="curve" smooth="yes"/>
      <point x="419" y="1576"/>
      <point x="432" y="1578"/>
      <point x="440" y="1585" type="curve" smooth="yes"/>
      <point x="447" y="1591"/>
      <point x="453" y="1599"/>
      <point x="459" y="1606" type="curve" smooth="yes"/>
      <point x="472" y="1621"/>
      <point x="486" y="1636"/>
      <point x="501" y="1650" type="curve" smooth="yes"/>
      <point x="544" y="1694"/>
      <point x="591" y="1734"/>
      <point x="643" y="1767" type="curve" smooth="yes"/>
      <point x="713" y="1813"/>
      <point x="794" y="1849"/>
      <point x="878" y="1862" type="curve" smooth="yes"/>
      <point x="918" y="1868"/>
      <point x="958" y="1871"/>
      <point x="999" y="1873" type="curve" smooth="yes"/>
      <point x="1029" y="1874"/>
      <point x="1061" y="1876"/>
      <point x="1092" y="1872" type="curve" smooth="yes"/>
      <point x="1129" y="1868"/>
      <point x="1165" y="1858"/>
      <point x="1199" y="1842" type="curve" smooth="yes"/>
      <point x="1232" y="1826"/>
      <point x="1263" y="1805"/>
      <point x="1291" y="1780" type="curve" smooth="yes"/>
      <point x="1348" y="1728"/>
      <point x="1381" y="1654"/>
      <point x="1398" y="1580" type="curve" smooth="yes"/>
      <point x="1427" y="1450"/>
      <point x="1423" y="1315"/>
      <point x="1423" y="1184" type="curve" smooth="yes"/>
      <point x="1423" y="1032" type="line"/>
      <point x="1423" y="818" type="line"/>
      <point x="1423" y="444" type="line"/>
      <point x="1423" y="344" type="line" smooth="yes"/>
      <point x="1423" y="333"/>
      <point x="1426" y="313"/>
      <point x="1421" y="305" type="curve" smooth="yes"/>
      <point x="1410" y="288"/>
      <point x="1390" y="273"/>
      <point x="1377" y="260" type="curve" smooth="yes"/>
      <point x="1371" y="254"/>
      <point x="1365" y="245"/>
      <point x="1358" y="242" type="curve" smooth="yes"/>
      <point x="1351" y="240"/>
      <point x="1342" y="242"/>
      <point x="1336" y="242" type="curve" smooth="yes"/>
      <point x="1288" y="242" type="line"/>
      <point x="1125" y="242" type="line"/>
    </contour>
    <contour>
      <point x="298" y="1507" type="move"/>
      <point x="298" y="619" type="line"/>
      <point x="298" y="388" type="line"/>
      <point x="298" y="328" type="line" smooth="yes"/>
      <point x="298" y="320"/>
      <point x="295" y="309"/>
      <point x="300" y="304" type="curve" smooth="yes"/>
      <point x="312" y="287"/>
      <point x="329" y="274"/>
      <point x="344" y="260" type="curve" smooth="yes"/>
      <point x="349" y="254"/>
      <point x="355" y="245"/>
      <point x="363" y="242" type="curve" smooth="yes"/>
      <point x="369" y="240"/>
      <point x="378" y="242"/>
      <point x="385" y="242" type="curve" smooth="yes"/>
      <point x="433" y="242" type="line"/>
      <point x="596" y="242" type="line"/>
    </contour>
    <contour>
      <point x="298" y="306" type="move"/>
      <point x="253" y="261" type="line"/>
      <point x="233" y="242" type="line"/>
      <point x="211" y="242" type="line"/>
      <point x="163" y="242" type="line"/>
      <point x="0" y="242" type="line"/>
    </contour>
    <contour>
      <point x="1423" y="305" type="move"/>
      <point x="1467" y="261" type="line"/>
      <point x="1487" y="242" type="line"/>
      <point x="1509" y="242" type="line"/>
      <point x="1557" y="242" type="line"/>
      <point x="1721" y="242" type="line"/>
    </contour>
  </outline>
</glyph>
<glyph name="i" format="1">
  <advance width="597"/>
  <unicode hex="0069"/>
  <outline>
    <contour>
      <point x="283" y="2734" type="move"/>
      <point x="284" y="2734" type="line"/>
    </contour>
    <contour>
      <point x="10" y="1766" type="move" smooth="yes"/>
      <point x="31" y="1766"/>
      <point x="53" y="1773"/>
      <point x="75" y="1776" type="curve" smooth="yes"/>
      <point x="118" y="1783"/>
      <point x="162" y="1791"/>
      <point x="206" y="1798" type="curve" smooth="yes"/>
      <point x="252" y="1806" type="line" smooth="yes"/>
      <point x="257" y="1807"/>
      <point x="266" y="1810"/>
      <point x="272" y="1809" type="curve" smooth="yes"/>
      <point x="279" y="1807"/>
      <point x="290" y="1793"/>
      <point x="295" y="1787" type="curve" smooth="yes"/>
      <point x="301" y="1780"/>
      <point x="299" y="1769"/>
      <point x="299" y="1762" type="curve" smooth="yes"/>
      <point x="299" y="1699" type="line"/>
      <point x="299" y="1452" type="line"/>
      <point x="299" y="613" type="line"/>
      <point x="299" y="389" type="line"/>
      <point x="299" y="329" type="line" smooth="yes"/>
      <point x="299" y="322"/>
      <point x="301" y="310"/>
      <point x="297" y="305" type="curve" smooth="yes"/>
      <point x="286" y="288"/>
      <point x="266" y="273"/>
      <point x="253" y="260" type="curve" smooth="yes"/>
      <point x="247" y="254"/>
      <point x="241" y="245"/>
      <point x="234" y="242" type="curve" smooth="yes"/>
      <point x="227" y="240"/>
      <point x="218" y="242"/>
      <point x="212" y="242" type="curve" smooth="yes"/>
      <point x="164" y="242" type="line"/>
      <point x="0" y="242" type="line"/>
    </contour>
    <contour>
      <point x="299" y="305" type="move"/>
      <point x="343" y="261" type="line"/>
      <point x="363" y="242" type="line"/>
      <point x="385" y="242" type="line"/>
      <point x="433" y="242" type="line"/>
      <point x="597" y="242" type="line"/>
    </contour>
  </outline>
</glyph>
<glyph name="j" format="1">
  <advance width="620"/>
  <unicode hex="006A"/>
  <outline>
    <contour>
      <point x="602" y="2734" type="move"/>
      <point x="603" y="2734" type="line"/>
    </contour>
    <contour>
      <point x="298" y="1765" type="move" smooth="yes"/>
      <point x="376" y="1779"/>
      <point x="457" y="1788"/>
      <point x="536" y="1799" type="curve" smooth="yes"/>
      <point x="553" y="1801"/>
      <point x="570" y="1803"/>
      <point x="587" y="1806" type="curve" smooth="yes"/>
      <point x="598" y="1808"/>
      <point x="607" y="1811"/>
      <point x="616" y="1801" type="curve" smooth="yes"/>
      <point x="622" y="1793"/>
      <point x="619" y="1777"/>
      <point x="619" y="1768" type="curve" smooth="yes"/>
      <point x="619" y="1680" type="line"/>
      <point x="619" y="1334" type="line"/>
      <point x="619" y="704" type="line" smooth="yes"/>
      <point x="619" y="583"/>
      <point x="622" y="462"/>
      <point x="617" y="342" type="curve" smooth="yes"/>
      <point x="611" y="222"/>
      <point x="606" y="103"/>
      <point x="574" y="-13" type="curve" smooth="yes"/>
      <point x="560" y="-63"/>
      <point x="542" y="-116"/>
      <point x="513" y="-160" type="curve" smooth="yes"/>
      <point x="486" y="-200"/>
      <point x="451" y="-236"/>
      <point x="410" y="-262" type="curve" smooth="yes"/>
      <point x="345" y="-302"/>
      <point x="261" y="-316"/>
      <point x="186" y="-306" type="curve" smooth="yes"/>
      <point x="159" y="-302"/>
      <point x="132" y="-298"/>
      <point x="108" y="-286" type="curve" smooth="yes"/>
      <point x="79" y="-273"/>
      <point x="48" y="-249"/>
      <point x="33" y="-220" type="curve" smooth="yes"/>
      <point x="22" y="-197"/>
      <point x="18" y="-168"/>
      <point x="12" y="-144" type="curve" smooth="yes"/>
      <point x="4" y="-109"/>
      <point x="-9" y="-68"/>
      <point x="9" y="-35" type="curve" smooth="yes"/>
      <point x="15" y="-23"/>
      <point x="27" y="-13"/>
      <point x="36" y="-4" type="curve" smooth="yes"/>
    </contour>
  </outline>
</glyph>
<glyph name="m" format="1">
  <advance width="2502"/>
  <unicode hex="006D"/>
  <outline>
    <contour>
      <point x="0" y="242" type="move"/>
      <point x="163" y="242" type="line"/>
      <point x="211" y="242" type="line" smooth="yes"/>
      <point x="217" y="242"/>
      <point x="226" y="240"/>
      <point x="233" y="242" type="curve" smooth="yes"/>
      <point x="240" y="245"/>
      <point x="246" y="254"/>
      <point x="252" y="260" type="curve" smooth="yes"/>
      <point x="266" y="274"/>
      <point x="284" y="288"/>
      <point x="296" y="304" type="curve" smooth="yes"/>
      <point x="300" y="309"/>
      <point x="298" y="320"/>
      <point x="298" y="326" type="curve" smooth="yes"/>
      <point x="298" y="380" type="line"/>
      <point x="298" y="590" type="line"/>
      <point x="298" y="1392" type="line"/>
      <point x="298" y="1632" type="line"/>
      <point x="298" y="1694" type="line" smooth="yes"/>
      <point x="298" y="1699"/>
      <point x="295" y="1712"/>
      <point x="299" y="1716" type="curve" smooth="yes"/>
      <point x="301" y="1718"/>
      <point x="306" y="1718"/>
      <point x="309" y="1718" type="curve" smooth="yes"/>
      <point x="318" y="1718"/>
      <point x="328" y="1716"/>
      <point x="337" y="1718" type="curve" smooth="yes"/>
      <point x="364" y="1724"/>
      <point x="391" y="1730"/>
      <point x="419" y="1736" type="curve" smooth="yes"/>
      <point x="430" y="1739"/>
      <point x="444" y="1739"/>
      <point x="456" y="1744" type="curve" smooth="yes"/>
      <point x="504" y="1764"/>
      <point x="549" y="1788"/>
      <point x="599" y="1806" type="curve" smooth="yes"/>
      <point x="699" y="1843"/>
      <point x="801" y="1863"/>
      <point x="908" y="1871" type="curve" smooth="yes"/>
      <point x="970" y="1875"/>
      <point x="1033" y="1878"/>
      <point x="1093" y="1855" type="curve" smooth="yes"/>
      <point x="1155" y="1830"/>
      <point x="1201" y="1781"/>
      <point x="1226" y="1720" type="curve" smooth="yes"/>
      <point x="1233" y="1702"/>
      <point x="1238" y="1683"/>
      <point x="1241" y="1664" type="curve" smooth="yes"/>
      <point x="1242" y="1659"/>
      <point x="1244" y="1648"/>
      <point x="1251" y="1649" type="curve" smooth="yes"/>
      <point x="1256" y="1650"/>
      <point x="1262" y="1659"/>
      <point x="1266" y="1663" type="curve" smooth="yes"/>
      <point x="1294" y="1691" type="line" smooth="yes"/>
      <point x="1298" y="1695"/>
      <point x="1302" y="1701"/>
      <point x="1309" y="1703" type="curve" smooth="yes"/>
      <point x="1332" y="1711"/>
      <point x="1358" y="1710"/>
      <point x="1382" y="1718" type="curve" smooth="yes"/>
      <point x="1400" y="1725"/>
      <point x="1417" y="1737"/>
      <point x="1435" y="1746" type="curve" smooth="yes"/>
      <point x="1467" y="1763"/>
      <point x="1501" y="1779"/>
      <point x="1535" y="1793" type="curve" smooth="yes"/>
      <point x="1634" y="1834"/>
      <point x="1736" y="1862"/>
      <point x="1844" y="1870" type="curve" smooth="yes"/>
      <point x="1872" y="1872"/>
      <point x="1902" y="1875"/>
      <point x="1931" y="1873" type="curve" smooth="yes"/>
      <point x="1960" y="1872"/>
      <point x="1989" y="1867"/>
      <point x="2018" y="1857" type="curve" smooth="yes"/>
      <point x="2037" y="1850"/>
      <point x="2055" y="1839"/>
      <point x="2073" y="1827" type="curve" smooth="yes"/>
      <point x="2207" y="1735"/>
      <point x="2204" y="1554"/>
      <point x="2204" y="1408" type="curve" smooth="yes"/>
      <point x="2204" y="593" type="line"/>
      <point x="2204" y="381" type="line"/>
      <point x="2204" y="326" type="line" smooth="yes"/>
      <point x="2204" y="319"/>
      <point x="2202" y="309"/>
      <point x="2206" y="304" type="curve" smooth="yes"/>
      <point x="2218" y="287"/>
      <point x="2235" y="274"/>
      <point x="2250" y="260" type="curve" smooth="yes"/>
      <point x="2255" y="254"/>
      <point x="2261" y="245"/>
      <point x="2269" y="242" type="curve" smooth="yes"/>
      <point x="2275" y="240"/>
      <point x="2284" y="242"/>
      <point x="2291" y="242" type="curve" smooth="yes"/>
      <point x="2339" y="242" type="line"/>
      <point x="2502" y="242" type="line"/>
    </contour>
    <contour>
      <point x="64" y="1789" type="move"/>
      <point x="203" y="1810" type="line"/>
      <point x="246" y="1817" type="line"/>
      <point x="265" y="1819" type="line"/>
      <point x="275" y="1812" type="line"/>
      <point x="296" y="1789" type="line"/>
      <point x="298" y="1768" type="line"/>
      <point x="298" y="1719" type="line"/>
    </contour>
    <contour>
      <point x="1250" y="1648" type="move"/>
      <point x="1250" y="959" type="line"/>
      <point x="1250" y="731" type="line" smooth="yes"/>
      <point x="1250" y="693"/>
      <point x="1253" y="654"/>
      <point x="1249" y="617" type="curve" smooth="yes"/>
      <point x="1245" y="567"/>
      <point x="1231" y="517"/>
      <point x="1222" y="468" type="curve" smooth="yes"/>
      <point x="1208" y="390"/>
      <point x="1194" y="313"/>
      <point x="1180" y="236" type="curve" smooth="yes"/>
    </contour>
    <contour>
      <point x="2204" y="306" type="move"/>
      <point x="1906" y="242" type="line"/>
      <point x="2069" y="242" type="line"/>
      <point x="2117" y="242" type="line"/>
      <point x="2139" y="242" type="line"/>
      <point x="2159" y="261" type="line"/>
    </contour>
    <contour>
      <point x="298" y="305" type="move"/>
      <point x="342" y="261" type="line"/>
      <point x="362" y="242" type="line"/>
      <point x="384" y="242" type="line"/>
      <point x="432" y="242" type="line"/>
      <point x="596" y="242" type="line"/>
    </contour>
  </outline>
</glyph>
<glyph name="n" format="1">
  <advance width="1753"/>
  <unicode hex="006E"/>
  <outline>
    <contour>
      <point x="0" y="241" type="move"/>
      <point x="171" y="241" type="line"/>
      <point x="217" y="241" type="line" smooth="yes"/>
      <point x="222" y="241"/>
      <point x="231" y="239"/>
      <point x="236" y="242" type="curve" smooth="yes"/>
      <point x="252" y="253"/>
      <point x="267" y="273"/>
      <point x="281" y="287" type="curve" smooth="yes"/>
      <point x="286" y="292"/>
      <point x="295" y="298"/>
      <point x="298" y="305" type="curve" smooth="yes"/>
      <point x="301" y="312"/>
      <point x="299" y="323"/>
      <point x="299" y="331" type="curve" smooth="yes"/>
      <point x="299" y="390" type="line"/>
      <point x="299" y="597" type="line"/>
      <point x="299" y="1323" type="line"/>
      <point x="299" y="1526" type="line"/>
      <point x="299" y="1583" type="line" smooth="yes"/>
      <point x="299" y="1589"/>
      <point x="296" y="1600"/>
      <point x="299" y="1606" type="curve" smooth="yes"/>
      <point x="301" y="1610"/>
      <point x="306" y="1609"/>
      <point x="310" y="1609" type="curve" smooth="yes"/>
      <point x="339" y="1609" type="line" smooth="yes"/>
      <point x="363" y="1609"/>
      <point x="386" y="1616"/>
      <point x="410" y="1623" type="curve" smooth="yes"/>
      <point x="420" y="1625"/>
      <point x="433" y="1626"/>
      <point x="442" y="1631" type="curve" smooth="yes"/>
      <point x="454" y="1639"/>
      <point x="465" y="1650"/>
      <point x="477" y="1659" type="curve" smooth="yes"/>
      <point x="504" y="1680"/>
      <point x="531" y="1700"/>
      <point x="560" y="1719" type="curve" smooth="yes"/>
      <point x="676" y="1800"/>
      <point x="811" y="1870"/>
      <point x="956" y="1873" type="curve" smooth="yes"/>
      <point x="1025" y="1875"/>
      <point x="1099" y="1876"/>
      <point x="1167" y="1857" type="curve" smooth="yes"/>
      <point x="1198" y="1848"/>
      <point x="1229" y="1835"/>
      <point x="1258" y="1819" type="curve" smooth="yes"/>
      <point x="1280" y="1807"/>
      <point x="1301" y="1792"/>
      <point x="1320" y="1775" type="curve" smooth="yes"/>
      <point x="1337" y="1759"/>
      <point x="1354" y="1742"/>
      <point x="1368" y="1724" type="curve" smooth="yes"/>
      <point x="1423" y="1649"/>
      <point x="1439" y="1561"/>
      <point x="1448" y="1472" type="curve" smooth="yes"/>
      <point x="1456" y="1382"/>
      <point x="1455" y="1292"/>
      <point x="1455" y="1202" type="curve" smooth="yes"/>
      <point x="1455" y="1026" type="line"/>
      <point x="1455" y="790" type="line"/>
      <point x="1455" y="436" type="line"/>
      <point x="1455" y="342" type="line" smooth="yes"/>
      <point x="1455" y="332"/>
      <point x="1458" y="313"/>
      <point x="1453" y="305" type="curve" smooth="yes"/>
      <point x="1442" y="288"/>
      <point x="1422" y="273"/>
      <point x="1409" y="260" type="curve" smooth="yes"/>
      <point x="1403" y="254"/>
      <point x="1397" y="245"/>
      <point x="1390" y="242" type="curve" smooth="yes"/>
      <point x="1383" y="240"/>
      <point x="1374" y="242"/>
      <point x="1368" y="242" type="curve" smooth="yes"/>
      <point x="1320" y="242" type="line"/>
      <point x="1157" y="242" type="line"/>
    </contour>
    <contour>
      <point x="17" y="1772" type="move" smooth="yes"/>
      <point x="83" y="1784"/>
      <point x="151" y="1792"/>
      <point x="219" y="1803" type="curve" smooth="yes"/>
      <point x="231" y="1805"/>
      <point x="244" y="1807"/>
      <point x="257" y="1809" type="curve" smooth="yes"/>
      <point x="261" y="1809"/>
      <point x="269" y="1812"/>
      <point x="274" y="1811" type="curve" smooth="yes"/>
      <point x="281" y="1809"/>
      <point x="293" y="1795"/>
      <point x="297" y="1789" type="curve" smooth="yes"/>
      <point x="300" y="1784"/>
      <point x="299" y="1778"/>
      <point x="299" y="1774" type="curve" smooth="yes"/>
      <point x="299" y="1739" type="line"/>
      <point x="299" y="1610" type="line"/>
    </contour>
    <contour>
      <point x="1455" y="305" type="move"/>
      <point x="1753" y="242" type="line"/>
      <point x="1589" y="242" type="line"/>
      <point x="1541" y="242" type="line"/>
      <point x="1519" y="242" type="line"/>
      <point x="1499" y="261" type="line"/>
    </contour>
    <contour>
      <point x="299" y="304" type="move"/>
      <point x="343" y="260" type="line"/>
      <point x="363" y="241" type="line"/>
      <point x="385" y="241" type="line"/>
      <point x="433" y="241" type="line"/>
      <point x="595" y="241" type="line"/>
    </contour>
  </outline>
</glyph>
<glyph name="o" format="1">
  <advance width="1399"/>
  <unicode hex="006F"/>
  <outline>
    <contour>
      <point x="680" y="1872" type="move" smooth="yes"/>
      <point x="708" y="1876"/>
      <point x="738" y="1872"/>
      <point x="766" y="1870" type="curve" smooth="yes"/>
      <point x="819" y="1866"/>
      <point x="873" y="1857"/>
      <point x="924" y="1839" type="curve" smooth="yes"/>
      <point x="1104" y="1775"/>
      <point x="1247" y="1626"/>
      <point x="1322" y="1453" type="curve" smooth="yes"/>
      <point x="1361" y="1362"/>
      <point x="1382" y="1267"/>
      <point x="1391" y="1170" type="curve" smooth="yes"/>
      <point x="1394" y="1135"/>
      <point x="1399" y="1099"/>
      <point x="1399" y="1065" type="curve" smooth="yes"/>
      <point x="1398" y="1021"/>
      <point x="1392" y="976"/>
      <point x="1388" y="933" type="curve" smooth="yes"/>
      <point x="1367" y="728"/>
      <point x="1287" y="520"/>
      <point x="1124" y="387" type="curve" smooth="yes"/>
      <point x="1077" y="349"/>
      <point x="1026" y="321"/>
      <point x="971" y="297" type="curve" smooth="yes"/>
      <point x="925" y="276"/>
      <point x="872" y="265"/>
      <point x="822" y="258" type="curve" smooth="yes"/>
      <point x="651" y="234"/>
      <point x="460" y="254"/>
      <point x="317" y="356" type="curve" smooth="yes"/>
      <point x="126" y="491"/>
      <point x="31" y="721"/>
      <point x="9" y="948" type="curve" smooth="yes"/>
      <point x="4" y="990"/>
      <point x="-1" y="1035"/>
      <point x="0" y="1078" type="curve" smooth="yes"/>
      <point x="3" y="1161"/>
      <point x="13" y="1244"/>
      <point x="31" y="1326" type="curve" smooth="yes"/>
      <point x="59" y="1447"/>
      <point x="115" y="1563"/>
      <point x="199" y="1656" type="curve" smooth="yes"/>
      <point x="290" y="1759"/>
      <point x="410" y="1829"/>
      <point x="545" y="1858" type="curve" smooth="yes"/>
      <point x="590" y="1868"/>
      <point x="635" y="1866"/>
      <point x="680" y="1872" type="curve" smooth="yes"/>
    </contour>
  </outline>
</glyph>
<glyph name="r" format="1">
  <advance width="1145"/>
  <unicode hex="0072"/>
  <outline>
    <contour>
      <point x="0" y="242" type="move"/>
      <point x="171" y="242" type="line"/>
      <point x="216" y="242" type="line" smooth="yes"/>
      <point x="221" y="242"/>
      <point x="230" y="240"/>
      <point x="235" y="243" type="curve" smooth="yes"/>
      <point x="251" y="254"/>
      <point x="266" y="274"/>
      <point x="280" y="288" type="curve" smooth="yes"/>
      <point x="285" y="293"/>
      <point x="294" y="299"/>
      <point x="297" y="306" type="curve" smooth="yes"/>
      <point x="299" y="312"/>
      <point x="298" y="322"/>
      <point x="298" y="329" type="curve" smooth="yes"/>
      <point x="298" y="383" type="line"/>
      <point x="298" y="570" type="line"/>
      <point x="298" y="1186" type="line"/>
      <point x="298" y="1374" type="line"/>
      <point x="298" y="1431" type="line" smooth="yes"/>
      <point x="298" y="1439"/>
      <point x="296" y="1450"/>
      <point x="298" y="1457" type="curve" smooth="yes"/>
      <point x="299" y="1462"/>
      <point x="307" y="1460"/>
      <point x="311" y="1461" type="curve" smooth="yes"/>
      <point x="317" y="1461"/>
      <point x="325" y="1467"/>
      <point x="331" y="1470" type="curve" smooth="yes"/>
      <point x="355" y="1484"/>
      <point x="381" y="1497"/>
      <point x="406" y="1510" type="curve" smooth="yes"/>
      <point x="415" y="1515"/>
      <point x="426" y="1518"/>
      <point x="434" y="1525" type="curve" smooth="yes"/>
      <point x="442" y="1532"/>
      <point x="445" y="1545"/>
      <point x="449" y="1554" type="curve" smooth="yes"/>
      <point x="461" y="1576"/>
      <point x="472" y="1598"/>
      <point x="485" y="1620" type="curve" smooth="yes"/>
      <point x="518" y="1677"/>
      <point x="558" y="1731"/>
      <point x="605" y="1777" type="curve" smooth="yes"/>
      <point x="654" y="1826"/>
      <point x="716" y="1863"/>
      <point x="784" y="1879" type="curve" smooth="yes"/>
      <point x="816" y="1886"/>
      <point x="850" y="1886"/>
      <point x="883" y="1889" type="curve" smooth="yes"/>
      <point x="928" y="1892"/>
      <point x="979" y="1892"/>
      <point x="1023" y="1875" type="curve" smooth="yes"/>
      <point x="1049" y="1864"/>
      <point x="1077" y="1849"/>
      <point x="1096" y="1827" type="curve" smooth="yes"/>
      <point x="1108" y="1814"/>
      <point x="1113" y="1789"/>
      <point x="1119" y="1773" type="curve" smooth="yes"/>
      <point x="1127" y="1747"/>
      <point x="1135" y="1721"/>
      <point x="1141" y="1695" type="curve" smooth="yes"/>
      <point x="1144" y="1679"/>
      <point x="1147" y="1665"/>
      <point x="1141" y="1650" type="curve" smooth="yes"/>
      <point x="1137" y="1640"/>
      <point x="1126" y="1630"/>
      <point x="1119" y="1623" type="curve" smooth="yes"/>
    </contour>
    <contour>
      <point x="1" y="1773" type="move" smooth="yes"/>
      <point x="24" y="1778"/>
      <point x="49" y="1780"/>
      <point x="73" y="1784" type="curve" smooth="yes"/>
      <point x="118" y="1790"/>
      <point x="163" y="1797"/>
      <point x="208" y="1805" type="curve" smooth="yes"/>
      <point x="224" y="1807"/>
      <point x="242" y="1810"/>
      <point x="259" y="1812" type="curve" smooth="yes"/>
      <point x="264" y="1813"/>
      <point x="273" y="1817"/>
      <point x="279" y="1813" type="curve" smooth="yes"/>
      <point x="284" y="1809"/>
      <point x="294" y="1800"/>
      <point x="297" y="1794" type="curve" smooth="yes"/>
      <point x="299" y="1787"/>
      <point x="298" y="1777"/>
      <point x="298" y="1771" type="curve" smooth="yes"/>
      <point x="298" y="1720" type="line"/>
      <point x="298" y="1462" type="line"/>
    </contour>
    <contour>
      <point x="298" y="305" type="move"/>
      <point x="342" y="261" type="line"/>
      <point x="362" y="242" type="line"/>
      <point x="384" y="242" type="line"/>
      <point x="432" y="242" type="line"/>
      <point x="596" y="242" type="line"/>
    </contour>
  </outline>
</glyph>
<glyph name="t" format="1">
  <advance width="1157"/>
  <unicode hex="0074"/>
  <outline>
    <contour>
      <point x="454" y="2569" type="move" smooth="yes"/>
      <point x="451" y="2555"/>
      <point x="451" y="2540"/>
      <point x="450" y="2526" type="curve" smooth="yes"/>
      <point x="448" y="2495"/>
      <point x="446" y="2464"/>
      <point x="443" y="2434" type="curve" smooth="yes"/>
      <point x="433" y="2330"/>
      <point x="425" y="2227"/>
      <point x="409" y="2125" type="curve" smooth="yes"/>
      <point x="403" y="2087"/>
      <point x="397" y="2050"/>
      <point x="390" y="2014" type="curve" smooth="yes"/>
      <point x="387" y="2003"/>
      <point x="387" y="1980"/>
      <point x="380" y="1972" type="curve" smooth="yes"/>
      <point x="375" y="1966"/>
      <point x="363" y="1963"/>
      <point x="356" y="1960" type="curve" smooth="yes"/>
      <point x="336" y="1951"/>
      <point x="316" y="1943"/>
      <point x="296" y="1935" type="curve" smooth="yes"/>
      <point x="245" y="1917"/>
      <point x="192" y="1904"/>
      <point x="139" y="1899" type="curve" smooth="yes"/>
      <point x="93" y="1894"/>
      <point x="45" y="1898"/>
      <point x="0" y="1898" type="curve" smooth="yes"/>
    </contour>
    <contour>
      <point x="1157" y="849" type="move" smooth="yes"/>
      <point x="1140" y="768"/>
      <point x="1114" y="689"/>
      <point x="1085" y="613" type="curve" smooth="yes"/>
      <point x="1049" y="519"/>
      <point x="1003" y="424"/>
      <point x="929" y="355" type="curve" smooth="yes"/>
      <point x="874" y="304"/>
      <point x="800" y="278"/>
      <point x="727" y="276" type="curve" smooth="yes"/>
      <point x="706" y="275"/>
      <point x="684" y="280"/>
      <point x="665" y="283" type="curve" smooth="yes"/>
      <point x="634" y="288"/>
      <point x="606" y="293"/>
      <point x="579" y="307" type="curve" smooth="yes"/>
      <point x="526" y="335"/>
      <point x="486" y="383"/>
      <point x="459" y="435" type="curve" smooth="yes"/>
      <point x="394" y="560"/>
      <point x="395" y="714"/>
      <point x="391" y="852" type="curve" smooth="yes"/>
      <point x="387" y="1055"/>
      <point x="391" y="1260"/>
      <point x="391" y="1464" type="curve" smooth="yes"/>
      <point x="391" y="1838" type="line"/>
      <point x="391" y="1927" type="line" smooth="yes"/>
      <point x="391" y="1944"/>
      <point x="393" y="1958"/>
      <point x="381" y="1971" type="curve" smooth="yes"/>
    </contour>
    <contour>
      <point x="392" y="1898" type="move"/>
      <point x="953" y="1898" type="line"/>
    </contour>
  </outline>
</glyph>
<glyph name="v" format="1">
  <advance width="1687"/>
  <unicode hex="0076"/>
  <outline>
    <contour>
      <point x="0" y="1890" type="move"/>
      <point x="139" y="1890" type="line"/>
      <point x="182" y="1890" type="line" smooth="yes"/>
      <point x="188" y="1890"/>
      <point x="196" y="1891"/>
      <point x="203" y="1889" type="curve" smooth="yes"/>
      <point x="219" y="1884"/>
      <point x="236" y="1870"/>
      <point x="252" y="1862" type="curve" smooth="yes"/>
      <point x="263" y="1855"/>
      <point x="282" y="1849"/>
      <point x="291" y="1839" type="curve" smooth="yes"/>
      <point x="296" y="1834"/>
      <point x="296" y="1820"/>
      <point x="297" y="1814" type="curve" smooth="yes"/>
      <point x="301" y="1791"/>
      <point x="303" y="1769"/>
      <point x="308" y="1747" type="curve" smooth="yes"/>
      <point x="312" y="1727"/>
      <point x="323" y="1707"/>
      <point x="330" y="1689" type="curve" smooth="yes"/>
      <point x="345" y="1653"/>
      <point x="358" y="1617"/>
      <point x="372" y="1582" type="curve" smooth="yes"/>
      <point x="462" y="1350"/>
      <point x="552" y="1119"/>
      <point x="644" y="889" type="curve" smooth="yes"/>
      <point x="688" y="779"/>
      <point x="729" y="670"/>
      <point x="773" y="561" type="curve" smooth="yes"/>
      <point x="781" y="542"/>
      <point x="788" y="523"/>
      <point x="795" y="505" type="curve" smooth="yes"/>
      <point x="799" y="496"/>
      <point x="801" y="486"/>
      <point x="806" y="479" type="curve" smooth="yes"/>
      <point x="810" y="473"/>
      <point x="827" y="463"/>
      <point x="834" y="463" type="curve" smooth="yes"/>
      <point x="842" y="463"/>
      <point x="854" y="473"/>
      <point x="861" y="477" type="curve" smooth="yes"/>
      <point x="880" y="488"/>
      <point x="899" y="499"/>
      <point x="919" y="510" type="curve" smooth="yes"/>
      <point x="926" y="515"/>
      <point x="939" y="519"/>
      <point x="943" y="527" type="curve" smooth="yes"/>
      <point x="951" y="538"/>
      <point x="954" y="554"/>
      <point x="959" y="567" type="curve" smooth="yes"/>
      <point x="968" y="594"/>
      <point x="979" y="620"/>
      <point x="989" y="648" type="curve" smooth="yes"/>
      <point x="1018" y="729"/>
      <point x="1049" y="809"/>
      <point x="1079" y="891" type="curve" smooth="yes"/>
      <point x="1169" y="1139"/>
      <point x="1261" y="1386"/>
      <point x="1354" y="1634" type="curve" smooth="yes"/>
      <point x="1377" y="1696"/>
      <point x="1407" y="1758"/>
      <point x="1417" y="1824" type="curve" smooth="yes"/>
      <point x="1420" y="1838"/>
      <point x="1422" y="1853"/>
      <point x="1424" y="1869" type="curve" smooth="yes"/>
      <point x="1425" y="1874"/>
      <point x="1428" y="1881"/>
      <point x="1424" y="1885" type="curve" smooth="yes"/>
      <point x="1420" y="1891"/>
      <point x="1411" y="1890"/>
      <point x="1405" y="1890" type="curve" smooth="yes"/>
      <point x="1353" y="1890" type="line"/>
      <point x="1140" y="1890" type="line"/>
    </contour>
    <contour>
      <point x="293" y="1839" type="move"/>
      <point x="328" y="1874" type="line"/>
      <point x="345" y="1889" type="line"/>
      <point x="367" y="1890" type="line"/>
      <point x="415" y="1890" type="line"/>
      <point x="577" y="1890" type="line"/>
    </contour>
    <contour>
      <point x="1428" y="1885" type="move" smooth="yes"/>
      <point x="1449" y="1896"/>
      <point x="1483" y="1890"/>
      <point x="1507" y="1890" type="curve" smooth="yes"/>
      <point x="1687" y="1890" type="line"/>
    </contour>
    <contour>
      <point x="834" y="462" type="move"/>
      <point x="836" y="243" type="line"/>
    </contour>
  </outline>
</glyph>
<glyph name="w" format="1">
  <advance width="2203"/>
  <unicode hex="0077"/>
  <outline>
    <contour>
      <point x="0" y="1890" type="move"/>
      <point x="138" y="1890" type="line" smooth="yes"/>
      <point x="157" y="1890"/>
      <point x="182" y="1894"/>
      <point x="202" y="1889" type="curve" smooth="yes"/>
      <point x="210" y="1887"/>
      <point x="218" y="1880"/>
      <point x="225" y="1876" type="curve" smooth="yes"/>
      <point x="238" y="1867"/>
      <point x="256" y="1859"/>
      <point x="267" y="1848" type="curve" smooth="yes"/>
      <point x="272" y="1843"/>
      <point x="271" y="1832"/>
      <point x="272" y="1826" type="curve" smooth="yes"/>
      <point x="275" y="1805"/>
      <point x="277" y="1784"/>
      <point x="280" y="1764" type="curve" smooth="yes"/>
      <point x="282" y="1743"/>
      <point x="290" y="1722"/>
      <point x="296" y="1702" type="curve" smooth="yes"/>
      <point x="305" y="1668"/>
      <point x="315" y="1634"/>
      <point x="325" y="1601" type="curve" smooth="yes"/>
      <point x="393" y="1369"/>
      <point x="458" y="1137"/>
      <point x="528" y="906" type="curve" smooth="yes"/>
      <point x="552" y="826"/>
      <point x="574" y="745"/>
      <point x="598" y="666" type="curve" smooth="yes"/>
      <point x="603" y="648"/>
      <point x="608" y="631"/>
      <point x="613" y="614" type="curve" smooth="yes"/>
      <point x="615" y="606"/>
      <point x="616" y="596"/>
      <point x="620" y="590" type="curve" smooth="yes"/>
      <point x="623" y="585"/>
      <point x="630" y="582"/>
      <point x="635" y="580" type="curve" smooth="yes"/>
      <point x="645" y="573"/>
      <point x="656" y="564"/>
      <point x="668" y="560" type="curve"/>
      <point x="668" y="533" type="line"/>
      <point x="669" y="469" type="line"/>
      <point x="672" y="251" type="line"/>
    </contour>
    <contour>
      <point x="270" y="1848" type="move"/>
      <point x="299" y="1877" type="line"/>
      <point x="313" y="1889" type="line"/>
      <point x="332" y="1890" type="line"/>
      <point x="374" y="1890" type="line"/>
      <point x="515" y="1890" type="line"/>
    </contour>
    <contour>
      <point x="1797" y="1890" type="move"/>
      <point x="2203" y="1890" type="line"/>
      <point x="2004" y="1889" type="line"/>
      <point x="1991" y="1885" type="line"/>
      <point x="1977" y="1890" type="line"/>
    </contour>
    <contour>
      <point x="1547" y="251" type="move" smooth="yes"/>
      <point x="1546" y="320"/>
      <point x="1545" y="390"/>
      <point x="1544" y="460" type="curve" smooth="yes"/>
      <point x="1543" y="477"/>
      <point x="1545" y="495"/>
      <point x="1543" y="513" type="curve" smooth="yes"/>
      <point x="1543" y="520"/>
      <point x="1540" y="535"/>
      <point x="1544" y="541" type="curve" smooth="yes"/>
      <point x="1548" y="549"/>
      <point x="1563" y="556"/>
      <point x="1571" y="560" type="curve" smooth="yes"/>
      <point x="1592" y="574"/>
      <point x="1613" y="588"/>
      <point x="1635" y="602" type="curve" smooth="yes"/>
      <point x="1642" y="607"/>
      <point x="1659" y="613"/>
      <point x="1662" y="623" type="curve" smooth="yes"/>
      <point x="1671" y="648"/>
      <point x="1677" y="676"/>
      <point x="1684" y="702" type="curve" smooth="yes"/>
      <point x="1728" y="865" type="line" smooth="yes"/>
      <point x="1775" y="1041"/>
      <point x="1822" y="1217"/>
      <point x="1871" y="1393" type="curve" smooth="yes"/>
      <point x="1896" y="1484"/>
      <point x="1920" y="1577"/>
      <point x="1946" y="1669" type="curve" smooth="yes"/>
      <point x="1957" y="1707"/>
      <point x="1971" y="1747"/>
      <point x="1978" y="1787" type="curve" smooth="yes"/>
      <point x="1981" y="1804"/>
      <point x="1983" y="1823"/>
      <point x="1985" y="1841" type="curve" smooth="yes"/>
      <point x="1986" y="1855"/>
      <point x="1989" y="1869"/>
      <point x="1990" y="1884" type="curve" smooth="yes"/>
    </contour>
    <contour>
      <point x="1109" y="1858" type="move" smooth="yes"/>
      <point x="1111" y="1818"/>
      <point x="1112" y="1778"/>
      <point x="1113" y="1739" type="curve" smooth="yes"/>
      <point x="1113" y="1728"/>
      <point x="1113" y="1717"/>
      <point x="1114" y="1707" type="curve" smooth="yes"/>
      <point x="1114" y="1703"/>
      <point x="1115" y="1697"/>
      <point x="1113" y="1694" type="curve" smooth="yes"/>
      <point x="1109" y="1686"/>
      <point x="1094" y="1679"/>
      <point x="1087" y="1675" type="curve" smooth="yes"/>
      <point x="1064" y="1660"/>
      <point x="1036" y="1646"/>
      <point x="1017" y="1627" type="curve" smooth="yes"/>
      <point x="1012" y="1623"/>
      <point x="1011" y="1615"/>
      <point x="1010" y="1609" type="curve" smooth="yes"/>
      <point x="999" y="1566" type="line" smooth="yes"/>
      <point x="941" y="1333"/>
      <point x="884" y="1099"/>
      <point x="825" y="867" type="curve" smooth="yes"/>
      <point x="782" y="695" type="line"/>
      <point x="770" y="647" type="line" smooth="yes"/>
      <point x="769" y="640"/>
      <point x="768" y="630"/>
      <point x="764" y="625" type="curve" smooth="yes"/>
      <point x="757" y="616"/>
      <point x="743" y="610"/>
      <point x="734" y="604" type="curve" smooth="yes"/>
      <point x="712" y="589"/>
      <point x="691" y="573"/>
      <point x="669" y="561" type="curve" smooth="yes"/>
    </contour>
    <contour>
      <point x="1116" y="1692" type="move" smooth="yes"/>
      <point x="1129" y="1684"/>
      <point x="1152" y="1674"/>
      <point x="1162" y="1662" type="curve" smooth="yes"/>
      <point x="1166" y="1658"/>
      <point x="1167" y="1650"/>
      <point x="1169" y="1645" type="curve" smooth="yes"/>
      <point x="1173" y="1631"/>
      <point x="1178" y="1616"/>
      <point x="1183" y="1603" type="curve" smooth="yes"/>
      <point x="1199" y="1553"/>
      <point x="1214" y="1503"/>
      <point x="1230" y="1454" type="curve" smooth="yes"/>
      <point x="1299" y="1237"/>
      <point x="1371" y="1020"/>
      <point x="1437" y="803" type="curve" smooth="yes"/>
      <point x="1453" y="747"/>
      <point x="1472" y="693"/>
      <point x="1489" y="638" type="curve" smooth="yes"/>
      <point x="1495" y="620"/>
      <point x="1500" y="601"/>
      <point x="1506" y="584" type="curve" smooth="yes"/>
      <point x="1509" y="576"/>
      <point x="1510" y="566"/>
      <point x="1515" y="561" type="curve" smooth="yes"/>
      <point x="1521" y="553"/>
      <point x="1534" y="548"/>
      <point x="1543" y="543" type="curve" smooth="yes"/>
    </contour>
  </outline>
</glyph>
<glyph name="x" format="1">
  <advance width="1659"/>
  <unicode hex="0078"/>
  <outline>
    <contour>
      <point x="1" y="1898" type="move"/>
      <point x="149" y="1898" type="line" smooth="yes"/>
      <point x="171" y="1898"/>
      <point x="198" y="1902"/>
      <point x="220" y="1897" type="curve" smooth="yes"/>
      <point x="235" y="1894"/>
      <point x="250" y="1884"/>
      <point x="265" y="1878" type="curve" smooth="yes"/>
      <point x="284" y="1869"/>
      <point x="308" y="1862"/>
      <point x="326" y="1851" type="curve" smooth="yes"/>
      <point x="332" y="1848"/>
      <point x="332" y="1836"/>
      <point x="334" y="1831" type="curve" smooth="yes"/>
      <point x="338" y="1813"/>
      <point x="341" y="1793"/>
      <point x="348" y="1776" type="curve" smooth="yes"/>
      <point x="353" y="1761"/>
      <point x="366" y="1747"/>
      <point x="375" y="1734" type="curve" smooth="yes"/>
      <point x="393" y="1706"/>
      <point x="411" y="1679"/>
      <point x="429" y="1651" type="curve" smooth="yes"/>
      <point x="523" y="1500"/>
      <point x="622" y="1353"/>
      <point x="720" y="1206" type="curve" smooth="yes"/>
      <point x="734" y="1184"/>
      <point x="749" y="1162"/>
      <point x="763" y="1140" type="curve" smooth="yes"/>
      <point x="770" y="1129"/>
      <point x="776" y="1117"/>
      <point x="784" y="1109" type="curve" smooth="yes"/>
      <point x="794" y="1098"/>
      <point x="819" y="1099"/>
      <point x="825" y="1086" type="curve" smooth="yes"/>
      <point x="829" y="1080"/>
      <point x="827" y="1069"/>
      <point x="827" y="1063" type="curve" smooth="yes"/>
      <point x="827" y="1043"/>
      <point x="828" y="1023"/>
      <point x="826" y="1004" type="curve" smooth="yes"/>
      <point x="826" y="995"/>
      <point x="815" y="988"/>
      <point x="810" y="983" type="curve" smooth="yes"/>
      <point x="798" y="971"/>
      <point x="787" y="957"/>
      <point x="775" y="948" type="curve" smooth="yes"/>
      <point x="768" y="943"/>
      <point x="760" y="943"/>
      <point x="754" y="938" type="curve" smooth="yes"/>
      <point x="745" y="931"/>
      <point x="738" y="917"/>
      <point x="731" y="908" type="curve" smooth="yes"/>
      <point x="718" y="888"/>
      <point x="704" y="869"/>
      <point x="691" y="850" type="curve" smooth="yes"/>
      <point x="589" y="702"/>
      <point x="484" y="557"/>
      <point x="383" y="410" type="curve" smooth="yes"/>
      <point x="370" y="391"/>
      <point x="357" y="373"/>
      <point x="344" y="355" type="curve" smooth="yes"/>
      <point x="337" y="344"/>
      <point x="327" y="334"/>
      <point x="323" y="322" type="curve" smooth="yes"/>
      <point x="318" y="304"/>
      <point x="315" y="286"/>
      <point x="310" y="269" type="curve" smooth="yes"/>
      <point x="308" y="262"/>
      <point x="307" y="254"/>
      <point x="301" y="250" type="curve" smooth="yes"/>
      <point x="274" y="235"/>
      <point x="237" y="242"/>
      <point x="207" y="242" type="curve" smooth="yes"/>
      <point x="0" y="242" type="line"/>
    </contour>
    <contour>
      <point x="330" y="1851" type="move"/>
      <point x="362" y="1883" type="line"/>
      <point x="378" y="1897" type="line"/>
      <point x="400" y="1898" type="line"/>
      <point x="448" y="1898" type="line"/>
      <point x="611" y="1898" type="line"/>
    </contour>
    <contour>
      <point x="1109" y="1898" type="move"/>
      <point x="1658" y="1898" type="line"/>
      <point x="1494" y="1898" type="line"/>
      <point x="1411" y="1897" type="line"/>
      <point x="1387" y="1889" type="line"/>
      <point x="1369" y="1898" type="line"/>
    </contour>
    <contour>
      <point x="1385" y="1889" type="move"/>
      <point x="1373" y="1842" type="line"/>
      <point x="1366" y="1815" type="line"/>
      <point x="1321" y="1751" type="line"/>
      <point x="1235" y="1628" type="line"/>
      <point x="1009" y="1306" type="line"/>
      <point x="939" y="1205" type="line"/>
      <point x="900" y="1150" type="line"/>
      <point x="877" y="1137" type="line"/>
      <point x="827" y="1088" type="line"/>
    </contour>
    <contour>
      <point x="1659" y="242" type="move"/>
      <point x="1490" y="242" type="line"/>
      <point x="1436" y="242" type="line" smooth="yes"/>
      <point x="1427" y="242"/>
      <point x="1417" y="240"/>
      <point x="1409" y="242" type="curve" smooth="yes"/>
      <point x="1400" y="244"/>
      <point x="1391" y="249"/>
      <point x="1384" y="252" type="curve" smooth="yes"/>
      <point x="1369" y="259"/>
      <point x="1354" y="265"/>
      <point x="1340" y="271" type="curve" smooth="yes"/>
      <point x="1324" y="278"/>
      <point x="1302" y="283"/>
      <point x="1289" y="293" type="curve" smooth="yes"/>
      <point x="1284" y="298"/>
      <point x="1283" y="309"/>
      <point x="1282" y="315" type="curve" smooth="yes"/>
      <point x="1277" y="332"/>
      <point x="1274" y="350"/>
      <point x="1268" y="368" type="curve" smooth="yes"/>
      <point x="1266" y="376"/>
      <point x="1258" y="385"/>
      <point x="1253" y="393" type="curve" smooth="yes"/>
      <point x="1242" y="408"/>
      <point x="1232" y="424"/>
      <point x="1222" y="440" type="curve" smooth="yes"/>
      <point x="1142" y="560"/>
      <point x="1065" y="681"/>
      <point x="985" y="802" type="curve" smooth="yes"/>
      <point x="958" y="841"/>
      <point x="933" y="880"/>
      <point x="908" y="920" type="curve" smooth="yes"/>
      <point x="896" y="938"/>
      <point x="885" y="963"/>
      <point x="869" y="978" type="curve" smooth="yes"/>
      <point x="858" y="988"/>
      <point x="839" y="990"/>
      <point x="827" y="999" type="curve" smooth="yes"/>
    </contour>
    <contour>
      <point x="1287" y="295" type="move"/>
      <point x="1250" y="258" type="line"/>
      <point x="1233" y="242" type="line"/>
      <point x="1211" y="242" type="line"/>
      <point x="1163" y="242" type="line"/>
      <point x="1000" y="242" type="line"/>
    </contour>
    <contour>
      <point x="306" y="252" type="move"/>
      <point x="317" y="242" type="line"/>
      <point x="339" y="242" type="line"/>
      <point x="389" y="242" type="line"/>
      <point x="612" y="242" type="line"/>
    </contour>
  </outline>
</glyph>
<glyph name="y" format="1">
  <advance width="1734"/>
  <unicode hex="0079"/>
  <outline>
    <contour>
      <point x="0" y="1898" type="move"/>
      <point x="594" y="1898" type="line"/>
      <point x="428" y="1898" type="line" smooth="yes"/>
      <point x="401" y="1898"/>
      <point x="372" y="1901"/>
      <point x="347" y="1897" type="curve" smooth="yes"/>
      <point x="341" y="1897"/>
      <point x="337" y="1891"/>
      <point x="334" y="1888" type="curve" smooth="yes"/>
      <point x="309" y="1863" type="line" smooth="yes"/>
      <point x="305" y="1859"/>
      <point x="300" y="1852"/>
      <point x="296" y="1852" type="curve" smooth="yes"/>
      <point x="288" y="1852"/>
      <point x="276" y="1861"/>
      <point x="270" y="1864" type="curve" smooth="yes"/>
      <point x="249" y="1875"/>
      <point x="224" y="1892"/>
      <point x="202" y="1897" type="curve" smooth="yes"/>
      <point x="182" y="1901"/>
      <point x="157" y="1898"/>
      <point x="137" y="1898" type="curve" smooth="yes"/>
    </contour>
    <contour>
      <point x="1234" y="1898" type="move"/>
      <point x="1417" y="1898" type="line" smooth="yes"/>
      <point x="1433" y="1898"/>
      <point x="1468" y="1905"/>
      <point x="1478" y="1887" type="curve" smooth="yes"/>
      <point x="1480" y="1882"/>
      <point x="1477" y="1873"/>
      <point x="1476" y="1868" type="curve" smooth="yes"/>
      <point x="1473" y="1851"/>
      <point x="1470" y="1835"/>
      <point x="1468" y="1819" type="curve" smooth="yes"/>
      <point x="1463" y="1792"/>
      <point x="1449" y="1766"/>
      <point x="1439" y="1742" type="curve" smooth="yes"/>
      <point x="1419" y="1693"/>
      <point x="1399" y="1644"/>
      <point x="1380" y="1596" type="curve" smooth="yes"/>
      <point x="1333" y="1478"/>
      <point x="1283" y="1362"/>
      <point x="1235" y="1245" type="curve" smooth="yes"/>
      <point x="1184" y="1119"/>
      <point x="1134" y="992"/>
      <point x="1081" y="868" type="curve" smooth="yes"/>
      <point x="1063" y="827"/>
      <point x="1047" y="785"/>
      <point x="1030" y="744" type="curve" smooth="yes"/>
      <point x="1025" y="731"/>
      <point x="1020" y="719"/>
      <point x="1015" y="707" type="curve" smooth="yes"/>
      <point x="1013" y="701"/>
      <point x="1011" y="693"/>
      <point x="1007" y="689" type="curve" smooth="yes"/>
      <point x="1003" y="685"/>
      <point x="996" y="682"/>
      <point x="992" y="680" type="curve" smooth="yes"/>
      <point x="979" y="672"/>
      <point x="966" y="665"/>
      <point x="953" y="658" type="curve" smooth="yes"/>
      <point x="941" y="652"/>
      <point x="926" y="639"/>
      <point x="914" y="637" type="curve" smooth="yes"/>
      <point x="909" y="636"/>
      <point x="902" y="642"/>
      <point x="898" y="644" type="curve" smooth="yes"/>
      <point x="877" y="654"/>
      <point x="869" y="678"/>
      <point x="859" y="699" type="curve" smooth="yes"/>
      <point x="823" y="771"/>
      <point x="786" y="843"/>
      <point x="749" y="916" type="curve" smooth="yes"/>
      <point x="647" y="1120"/>
      <point x="541" y="1322"/>
      <point x="438" y="1526" type="curve" smooth="yes"/>
      <point x="410" y="1582"/>
      <point x="381" y="1639"/>
      <point x="352" y="1696" type="curve" smooth="yes"/>
      <point x="339" y="1721"/>
      <point x="323" y="1746"/>
      <point x="313" y="1773" type="curve" smooth="yes"/>
      <point x="304" y="1797"/>
      <point x="305" y="1825"/>
      <point x="297" y="1850" type="curve" smooth="yes"/>
    </contour>
    <contour>
      <point x="1480" y="1887" type="move" smooth="yes"/>
      <point x="1486" y="1890"/>
      <point x="1493" y="1896"/>
      <point x="1501" y="1897" type="curve" smooth="yes"/>
      <point x="1521" y="1901"/>
      <point x="1546" y="1898"/>
      <point x="1567" y="1898" type="curve" smooth="yes"/>
      <point x="1734" y="1898" type="line"/>
    </contour>
    <contour>
      <point x="913" y="636" type="move" smooth="yes"/>
      <point x="913" y="600"/>
      <point x="918" y="562"/>
      <point x="916" y="527" type="curve" smooth="yes"/>
      <point x="916" y="510"/>
      <point x="911" y="493"/>
      <point x="908" y="477" type="curve" smooth="yes"/>
      <point x="905" y="459"/>
      <point x="903" y="441"/>
      <point x="899" y="425" type="curve" smooth="yes"/>
      <point x="891" y="394"/>
      <point x="874" y="364"/>
      <point x="863" y="335" type="curve" smooth="yes"/>
      <point x="839" y="277"/>
      <point x="815" y="219"/>
      <point x="792" y="162" type="curve" smooth="yes"/>
      <point x="771" y="111"/>
      <point x="750" y="61"/>
      <point x="730" y="11" type="curve" smooth="yes"/>
      <point x="713" y="-29"/>
      <point x="697" y="-70"/>
      <point x="675" y="-109" type="curve" smooth="yes"/>
      <point x="626" y="-196"/>
      <point x="561" y="-291"/>
      <point x="458" y="-317" type="curve" smooth="yes"/>
      <point x="398" y="-331"/>
      <point x="325" y="-332"/>
      <point x="269" y="-307" type="curve" smooth="yes"/>
      <point x="251" y="-299"/>
      <point x="231" y="-288"/>
      <point x="218" y="-274" type="curve" smooth="yes"/>
      <point x="207" y="-262"/>
      <point x="202" y="-236"/>
      <point x="197" y="-221" type="curve" smooth="yes"/>
      <point x="190" y="-198"/>
      <point x="182" y="-176"/>
      <point x="176" y="-153" type="curve" smooth="yes"/>
      <point x="172" y="-136"/>
      <point x="167" y="-124"/>
      <point x="183" y="-112" type="curve" smooth="yes"/>
    </contour>
  </outline>
</glyph>
<glyph name="z" format="1">
  <advance width="1313"/>
  <unicode hex="007A"/>
  <outline>
    <contour>
      <point x="0" y="1445" type="move" smooth="yes"/>
      <point x="4" y="1539"/>
      <point x="11" y="1634"/>
      <point x="30" y="1728" type="curve" smooth="yes"/>
      <point x="35" y="1751"/>
      <point x="40" y="1775"/>
      <point x="46" y="1799" type="curve" smooth="yes"/>
      <point x="48" y="1806"/>
      <point x="49" y="1819"/>
      <point x="54" y="1825" type="curve" smooth="yes"/>
      <point x="61" y="1834"/>
      <point x="84" y="1838"/>
      <point x="95" y="1841" type="curve" smooth="yes"/>
      <point x="133" y="1854"/>
      <point x="172" y="1864"/>
      <point x="212" y="1872" type="curve" smooth="yes"/>
      <point x="375" y="1906"/>
      <point x="542" y="1898"/>
      <point x="709" y="1898" type="curve" smooth="yes"/>
      <point x="1080" y="1898" type="line"/>
      <point x="1121" y="1898" type="line" smooth="yes"/>
      <point x="1126" y="1898"/>
      <point x="1134" y="1899"/>
      <point x="1139" y="1896" type="curve" smooth="yes"/>
      <point x="1150" y="1891"/>
      <point x="1161" y="1875"/>
      <point x="1171" y="1866" type="curve" smooth="yes"/>
      <point x="1176" y="1860"/>
      <point x="1191" y="1850"/>
      <point x="1192" y="1842" type="curve" smooth="yes"/>
      <point x="1194" y="1834"/>
      <point x="1187" y="1821"/>
      <point x="1185" y="1814" type="curve" smooth="yes"/>
      <point x="1182" y="1800"/>
      <point x="1179" y="1783"/>
      <point x="1173" y="1771" type="curve" smooth="yes"/>
      <point x="1167" y="1758"/>
      <point x="1156" y="1747"/>
      <point x="1148" y="1736" type="curve" smooth="yes"/>
      <point x="1096" y="1663"/>
      <point x="1041" y="1592"/>
      <point x="988" y="1521" type="curve" smooth="yes"/>
      <point x="853" y="1341"/>
      <point x="720" y="1162"/>
      <point x="587" y="982" type="curve" smooth="yes"/>
      <point x="507" y="873"/>
      <point x="424" y="767"/>
      <point x="345" y="658" type="curve" smooth="yes"/>
      <point x="282" y="571"/>
      <point x="217" y="485"/>
      <point x="153" y="400" type="curve" smooth="yes"/>
      <point x="144" y="389"/>
      <point x="133" y="377"/>
      <point x="127" y="365" type="curve" smooth="yes"/>
      <point x="121" y="351"/>
      <point x="119" y="335"/>
      <point x="115" y="322" type="curve" smooth="yes"/>
      <point x="113" y="314"/>
      <point x="106" y="298"/>
      <point x="109" y="292" type="curve" smooth="yes"/>
      <point x="112" y="284"/>
      <point x="122" y="277"/>
      <point x="128" y="272" type="curve" smooth="yes"/>
      <point x="136" y="263"/>
      <point x="146" y="248"/>
      <point x="158" y="243" type="curve" smooth="yes"/>
      <point x="163" y="240"/>
      <point x="174" y="242"/>
      <point x="181" y="242" type="curve" smooth="yes"/>
      <point x="236" y="242" type="line"/>
      <point x="577" y="242" type="line" smooth="yes"/>
      <point x="748" y="242"/>
      <point x="922" y="230"/>
      <point x="1090" y="270" type="curve" smooth="yes"/>
      <point x="1129" y="279"/>
      <point x="1168" y="291"/>
      <point x="1207" y="305" type="curve" smooth="yes"/>
      <point x="1218" y="310"/>
      <point x="1240" y="314"/>
      <point x="1248" y="323" type="curve" smooth="yes"/>
      <point x="1254" y="330"/>
      <point x="1254" y="345"/>
      <point x="1256" y="354" type="curve" smooth="yes"/>
      <point x="1263" y="380"/>
      <point x="1268" y="407"/>
      <point x="1273" y="434" type="curve" smooth="yes"/>
      <point x="1287" y="502"/>
      <point x="1296" y="572"/>
      <point x="1303" y="642" type="curve" smooth="yes"/>
      <point x="1306" y="679"/>
      <point x="1312" y="718"/>
      <point x="1313" y="757" type="curve" smooth="yes"/>
    </contour>
  </outline>
</glyph>
<glyph name="braceleft" format="1">
  <advance width="729"/>
  <unicode hex="007B"/>
  <outline>
    <contour>
      <point x="0" y="1554" type="move"/>
      <point x="45" y="1554" type="line"/>
      <point x="55" y="1540"/>
      <point x="61" y="1523"/>
      <point x="73" y="1513" type="curve" smooth="yes"/>
      <point x="85" y="1502"/>
      <point x="103" y="1496"/>
      <point x="117" y="1486" type="curve" smooth="yes"/>
      <point x="141" y="1470"/>
      <point x="162" y="1448"/>
      <point x="181" y="1427" type="curve" smooth="yes"/>
      <point x="235" y="1366"/>
      <point x="263" y="1284"/>
      <point x="279" y="1206" type="curve" smooth="yes"/>
      <point x="303" y="1090"/>
      <point x="298" y="970"/>
      <point x="298" y="854" type="curve" smooth="yes"/>
      <point x="298" y="354" type="line" smooth="yes"/>
      <point x="298" y="264"/>
      <point x="297" y="171"/>
      <point x="325" y="85" type="curve" smooth="yes"/>
      <point x="341" y="34"/>
      <point x="367" y="-15"/>
      <point x="408" y="-50" type="curve" smooth="yes"/>
      <point x="497" y="-128"/>
      <point x="617" y="-125"/>
      <point x="729" y="-125" type="curve" smooth="yes"/>
    </contour>
    <contour>
      <point x="729" y="3234" type="move" smooth="yes"/>
      <point x="629" y="3234"/>
      <point x="520" y="3237"/>
      <point x="436" y="3176" type="curve" smooth="yes"/>
      <point x="322" y="3094"/>
      <point x="305" y="2946"/>
      <point x="299" y="2818" type="curve" smooth="yes"/>
      <point x="296" y="2747"/>
      <point x="298" y="2676"/>
      <point x="298" y="2606" type="curve" smooth="yes"/>
      <point x="298" y="2291" type="line" smooth="yes"/>
      <point x="298" y="2206"/>
      <point x="300" y="2121"/>
      <point x="292" y="2038" type="curve" smooth="yes"/>
      <point x="279" y="1905"/>
      <point x="252" y="1762"/>
      <point x="158" y="1662" type="curve" smooth="yes"/>
      <point x="134" y="1635"/>
      <point x="105" y="1616"/>
      <point x="75" y="1597" type="curve" smooth="yes"/>
      <point x="60" y="1588"/>
      <point x="59" y="1565"/>
      <point x="44" y="1555" type="curve" smooth="yes"/>
      <point x="41" y="1553"/>
      <point x="35" y="1554"/>
      <point x="31" y="1554" type="curve" smooth="yes"/>
    </contour>
  </outline>
</glyph>
<glyph name="bar" format="1">
  <advance width="0"/>
  <unicode hex="007C"/>
  <outline>
    <contour>
      <point x="0" y="3402" type="move"/>
      <point x="0" y="-297" type="line"/>
    </contour>
  </outline>
</glyph>
<glyph name="exclamdown" format="1">
  <advance width="7"/>
  <unicode hex="00A1"/>
  <outline>
    <contour>
      <point x="7" y="2133" type="move"/>
      <point x="2" y="724" type="line"/>
      <point x="1" y="309" type="line"/>
      <point x="0" y="179" type="line"/>
      <point x="0" y="131" type="line"/>
      <point x="0" y="118" type="line"/>
    </contour>
  </outline>
</glyph>
<glyph name="cent" format="1">
  <advance width="1229"/>
  <unicode hex="00A2"/>
  <outline>
    <contour>
      <point x="873" y="2248" type="move" smooth="yes"/>
      <point x="866" y="2230"/>
      <point x="863" y="2211"/>
      <point x="858" y="2193" type="curve" smooth="yes"/>
      <point x="850" y="2160"/>
      <point x="841" y="2128"/>
      <point x="833" y="2096" type="curve" smooth="yes"/>
      <point x="824" y="2062"/>
      <point x="815" y="2029"/>
      <point x="807" y="1996" type="curve" smooth="yes"/>
      <point x="802" y="1976"/>
      <point x="796" y="1957"/>
      <point x="793" y="1938" type="curve" smooth="yes"/>
      <point x="791" y="1922"/>
      <point x="790" y="1907"/>
      <point x="788" y="1892" type="curve" smooth="yes"/>
      <point x="787" y="1885"/>
      <point x="787" y="1876"/>
      <point x="785" y="1870" type="curve" smooth="yes"/>
      <point x="783" y="1864"/>
      <point x="767" y="1855"/>
      <point x="770" y="1849" type="curve" smooth="yes"/>
      <point x="779" y="1833"/>
      <point x="810" y="1836"/>
      <point x="826" y="1833" type="curve" smooth="yes"/>
      <point x="868" y="1826"/>
      <point x="907" y="1811"/>
      <point x="944" y="1788" type="curve" smooth="yes"/>
      <point x="1001" y="1753"/>
      <point x="1055" y="1711"/>
      <point x="1097" y="1658" type="curve" smooth="yes"/>
      <point x="1110" y="1641"/>
      <point x="1124" y="1624"/>
      <point x="1134" y="1606" type="curve" smooth="yes"/>
      <point x="1139" y="1594"/>
      <point x="1141" y="1580"/>
      <point x="1144" y="1569" type="curve" smooth="yes"/>
      <point x="1150" y="1546"/>
      <point x="1156" y="1523"/>
      <point x="1160" y="1501" type="curve" smooth="yes"/>
      <point x="1165" y="1479"/>
      <point x="1172" y="1455"/>
      <point x="1172" y="1433" type="curve" smooth="yes"/>
      <point x="1172" y="1412"/>
      <point x="1164" y="1398"/>
      <point x="1154" y="1381" type="curve" smooth="yes"/>
      <point x="1150" y="1372"/>
      <point x="1142" y="1363"/>
      <point x="1141" y="1354" type="curve" smooth="yes"/>
    </contour>
    <contour>
      <point x="769" y="1850" type="move" smooth="yes"/>
      <point x="764" y="1844"/>
      <point x="756" y="1839"/>
      <point x="753" y="1833" type="curve" smooth="yes"/>
      <point x="750" y="1825"/>
      <point x="750" y="1814"/>
      <point x="749" y="1806" type="curve" smooth="yes"/>
      <point x="747" y="1788"/>
      <point x="747" y="1769"/>
      <point x="743" y="1752" type="curve" smooth="yes"/>
      <point x="728" y="1678"/>
      <point x="705" y="1606"/>
      <point x="686" y="1534" type="curve" smooth="yes"/>
      <point x="616" y="1256"/>
      <point x="544" y="978"/>
      <point x="469" y="702" type="curve" smooth="yes"/>
      <point x="446" y="617"/>
      <point x="424" y="532"/>
      <point x="402" y="447" type="curve" smooth="yes"/>
      <point x="399" y="434"/>
      <point x="395" y="422"/>
      <point x="393" y="410" type="curve" smooth="yes"/>
      <point x="391" y="400"/>
      <point x="392" y="387"/>
      <point x="389" y="378" type="curve" smooth="yes"/>
      <point x="385" y="369"/>
      <point x="370" y="354"/>
      <point x="362" y="349" type="curve" smooth="yes"/>
      <point x="354" y="345"/>
      <point x="336" y="352"/>
      <point x="329" y="354" type="curve" smooth="yes"/>
      <point x="313" y="357"/>
      <point x="293" y="359"/>
      <point x="279" y="366" type="curve" smooth="yes"/>
      <point x="264" y="373"/>
      <point x="249" y="387"/>
      <point x="237" y="398" type="curve" smooth="yes"/>
      <point x="145" y="479"/>
      <point x="87" y="580"/>
      <point x="50" y="696" type="curve" smooth="yes"/>
      <point x="25" y="773"/>
      <point x="14" y="854"/>
      <point x="6" y="936" type="curve" smooth="yes"/>
      <point x="3" y="972"/>
      <point x="-0" y="1010"/>
      <point x="0" y="1047" type="curve" smooth="yes"/>
      <point x="0" y="1081"/>
      <point x="4" y="1116"/>
      <point x="6" y="1151" type="curve" smooth="yes"/>
      <point x="21" y="1366"/>
      <point x="92" y="1585"/>
      <point x="262" y="1728" type="curve" smooth="yes"/>
      <point x="371" y="1820"/>
      <point x="513" y="1873"/>
      <point x="657" y="1864" type="curve" smooth="yes"/>
      <point x="679" y="1862"/>
      <point x="702" y="1864"/>
      <point x="725" y="1864" type="curve" smooth="yes"/>
      <point x="733" y="1864"/>
      <point x="747" y="1865"/>
      <point x="756" y="1862" type="curve" smooth="yes"/>
      <point x="761" y="1860"/>
      <point x="765" y="1854"/>
      <point x="769" y="1851" type="curve" smooth="yes"/>
    </contour>
    <contour>
      <point x="261" y="-94" type="move"/>
      <point x="284" y="-6" type="line"/>
      <point x="332" y="180" type="line"/>
      <point x="344" y="239" type="line"/>
      <point x="350" y="275" type="line"/>
      <point x="368" y="294" type="line"/>
      <point x="374" y="289"/>
      <point x="382" y="289"/>
      <point x="390" y="287" type="curve" smooth="yes"/>
      <point x="403" y="285"/>
      <point x="417" y="283"/>
      <point x="431" y="280" type="curve" smooth="yes"/>
      <point x="473" y="273"/>
      <point x="514" y="259"/>
      <point x="557" y="253" type="curve" smooth="yes"/>
      <point x="638" y="241"/>
      <point x="724" y="235"/>
      <point x="806" y="250" type="curve" smooth="yes"/>
      <point x="931" y="272"/>
      <point x="1047" y="338"/>
      <point x="1127" y="437" type="curve" smooth="yes"/>
      <point x="1156" y="472"/>
      <point x="1180" y="512"/>
      <point x="1199" y="554" type="curve" smooth="yes"/>
      <point x="1210" y="577"/>
      <point x="1218" y="601"/>
      <point x="1229" y="625" type="curve" smooth="yes"/>
    </contour>
    <contour>
      <point x="362" y="347" type="move" smooth="yes"/>
      <point x="369" y="329"/>
      <point x="368" y="312"/>
      <point x="368" y="294" type="curve" smooth="yes"/>
    </contour>
  </outline>
</glyph>
